Junicode.ufo
<glyph name=".null" format="1">
  <advance width="1024"/>
  <unicode hex="0000"/>
  <outline>
    <contour>
      <point x="354" y="1194" type="qcurve" smooth="yes"/>
      <point x="646" y="1194"/>
      <point x="646" y="995" type="qcurve" smooth="yes"/>
      <point x="646" y="906"/>
      <point x="530" y="844" type="qcurve" smooth="yes"/>
      <point x="424" y="788" type="line" smooth="yes"/>
      <point x="310" y="726"/>
      <point x="310" y="637" type="qcurve" smooth="yes"/>
      <point x="310" y="562"/>
      <point x="386" y="426" type="qcurve" smooth="yes"/>
      <point x="394" y="418"/>
      <point x="408" y="419" type="qcurve" smooth="yes"/>
      <point x="430" y="423"/>
      <point x="430" y="438" type="qcurve" smooth="yes"/>
      <point x="410" y="507"/>
      <point x="410" y="563" type="qcurve" smooth="yes"/>
      <point x="410" y="612"/>
      <point x="484" y="653" type="qcurve" smooth="yes"/>
      <point x="650" y="741" type="line" smooth="yes"/>
      <point x="732" y="784"/>
      <point x="732" y="930" type="qcurve" smooth="yes"/>
      <point x="730" y="1090"/>
      <point x="614" y="1231" type="qcurve" smooth="yes"/>
      <point x="500" y="1362"/>
      <point x="370" y="1362" type="qcurve" smooth="yes"/>
      <point x="286" y="1362"/>
      <point x="286" y="1280" type="qcurve" smooth="yes"/>
      <point x="286" y="1194"/>
    </contour>
    <contour>
      <point x="534" y="86" type="qcurve" smooth="yes"/>
      <point x="534" y="125"/>
      <point x="514" y="157" type="qcurve" smooth="yes"/>
      <point x="478" y="213"/>
      <point x="414" y="213" type="qcurve" smooth="yes"/>
      <point x="376" y="213"/>
      <point x="346" y="192" type="qcurve" smooth="yes"/>
      <point x="296" y="155"/>
      <point x="296" y="86" type="qcurve" smooth="yes"/>
      <point x="296" y="49"/>
      <point x="318" y="18" type="qcurve" smooth="yes"/>
      <point x="354" y="-31"/>
      <point x="414" y="-31" type="qcurve" smooth="yes"/>
      <point x="450" y="-31"/>
      <point x="480" y="-14" type="qcurve" smooth="yes"/>
      <point x="534" y="19"/>
    </contour>
    <contour>
      <point x="68" y="-132" type="line"/>
      <point x="68" y="1508" type="line"/>
      <point x="932" y="1508" type="line"/>
      <point x="932" y="-132" type="line"/>
    </contour>
  </outline>
</glyph>
<glyph name="exclam" format="1">
  <advance width="520"/>
  <unicode hex="0021"/>
  <outline>
    <contour>
      <point x="260" y="211" type="qcurve" smooth="yes"/>
      <point x="321" y="211"/>
      <point x="381" y="137"/>
      <point x="381" y="36"/>
      <point x="312" y="-25"/>
      <point x="206" y="-25"/>
      <point x="139" y="47"/>
      <point x="139" y="149"/>
      <point x="199" y="211"/>
    </contour>
    <contour>
      <point x="166" y="1275" type="qcurve" smooth="yes"/>
      <point x="166" y="1331"/>
      <point x="227" y="1399"/>
      <point x="264" y="1399" type="qcurve" smooth="yes"/>
      <point x="367" y="1399"/>
      <point x="367" y="1288" type="qcurve" smooth="yes"/>
      <point x="367" y="1225"/>
      <point x="305" y="642"/>
      <point x="293" y="436" type="qcurve" smooth="yes"/>
      <point x="292" y="420"/>
      <point x="260" y="420" type="qcurve" smooth="yes"/>
      <point x="228" y="420"/>
      <point x="227" y="436" type="qcurve" smooth="yes"/>
      <point x="219" y="635"/>
      <point x="166" y="1219"/>
    </contour>
  </outline>
</glyph>
<glyph name="quotedbl" format="1">
  <advance width="758"/>
  <unicode hex="0022"/>
  <outline>
    <contour>
      <point x="450" y="1396" type="qcurve"/>
      <point x="450" y="1482"/>
      <point x="545" y="1482" type="qcurve"/>
      <point x="640" y="1482"/>
      <point x="640" y="1398" type="qcurve"/>
      <point x="640" y="1357"/>
      <point x="621" y="1237" type="qcurve"/>
      <point x="602" y="1117"/>
      <point x="581" y="945" type="qcurve"/>
      <point x="580" y="937"/>
      <point x="546" y="937" type="qcurve"/>
      <point x="512" y="937"/>
      <point x="511" y="945" type="qcurve"/>
      <point x="491" y="1114"/>
      <point x="470.5" y="1235.5" type="qcurve"/>
      <point x="450" y="1357"/>
    </contour>
    <contour>
      <point x="121" y="1395" type="qcurve"/>
      <point x="121" y="1481"/>
      <point x="216" y="1481" type="qcurve"/>
      <point x="311" y="1481"/>
      <point x="311" y="1397" type="qcurve"/>
      <point x="311" y="1356"/>
      <point x="292" y="1236" type="qcurve"/>
      <point x="273" y="1116"/>
      <point x="252" y="944" type="qcurve"/>
      <point x="251" y="936"/>
      <point x="217" y="936" type="qcurve"/>
      <point x="183" y="936"/>
      <point x="182" y="944" type="qcurve"/>
      <point x="162" y="1113"/>
      <point x="141.5" y="1234.5" type="qcurve"/>
      <point x="121" y="1356"/>
    </contour>
  </outline>
</glyph>
<glyph name="dollar" format="1">
  <advance width="987"/>
  <unicode hex="0024"/>
  <outline>
    <contour>
      <point x="122" y="351" type="qcurve"/>
      <point x="122" y="359"/>
      <point x="123" y="365" type="qcurve"/>
      <point x="127" y="382"/>
      <point x="156" y="382" type="qcurve"/>
      <point x="185" y="382"/>
      <point x="186" y="375" type="qcurve"/>
      <point x="198" y="250"/>
      <point x="276.5" y="173" type="qcurve"/>
      <point x="355" y="96"/>
      <point x="459" y="74" type="qcurve"/>
      <point x="459" y="610" type="line"/>
      <point x="334" y="668" type="line"/>
      <point x="129" y="763"/>
      <point x="129" y="1016" type="qcurve"/>
      <point x="129" y="1131"/>
      <point x="221.5" y="1225" type="qcurve"/>
      <point x="314" y="1319"/>
      <point x="459" y="1329" type="qcurve"/>
      <point x="459" y="1466" type="line"/>
      <point x="459" y="1481"/>
      <point x="502" y="1481" type="qcurve"/>
      <point x="545" y="1481"/>
      <point x="545" y="1466" type="qcurve"/>
      <point x="545" y="1329" type="line"/>
      <point x="629" y="1324"/>
      <point x="705" y="1308" type="qcurve"/>
      <point x="781" y="1292"/>
      <point x="786" y="1292" type="qcurve"/>
      <point x="810" y="1211"/>
      <point x="821" y="1072" type="qcurve"/>
      <point x="823" y="1054"/>
      <point x="823" y="1045.5" type="qcurve"/>
      <point x="823" y="1037"/>
      <point x="809.5" y="1031.5" type="qcurve"/>
      <point x="796" y="1026"/>
      <point x="779" y="1026" type="qcurve"/>
      <point x="762" y="1026"/>
      <point x="758" y="1040" type="qcurve"/>
      <point x="736" y="1145"/>
      <point x="673" y="1202.5" type="qcurve"/>
      <point x="610" y="1260"/>
      <point x="545" y="1266" type="qcurve"/>
      <point x="545" y="778" type="line"/>
      <point x="742" y="717"/>
      <point x="818.5" y="629" type="qcurve"/>
      <point x="895" y="541"/>
      <point x="895" y="389" type="qcurve"/>
      <point x="895" y="211"/>
      <point x="795" y="105.5" type="qcurve"/>
      <point x="695" y="0"/>
      <point x="545" y="-4" type="qcurve"/>
      <point x="545" y="-150" type="line"/>
      <point x="545" y="-166"/>
      <point x="502" y="-166" type="qcurve"/>
      <point x="459" y="-166"/>
      <point x="459" y="-150" type="qcurve"/>
      <point x="459" y="-4" type="line"/>
      <point x="372" y="2"/>
      <point x="314.5" y="23.5" type="qcurve"/>
      <point x="257" y="45"/>
      <point x="168" y="88" type="qcurve"/>
      <point x="122" y="226"/>
    </contour>
    <contour>
      <point x="262" y="1057" type="qcurve"/>
      <point x="262" y="944"/>
      <point x="318.5" y="891.5" type="qcurve"/>
      <point x="375" y="839"/>
      <point x="459" y="809" type="qcurve"/>
      <point x="459" y="1268" type="line"/>
      <point x="360" y="1256"/>
      <point x="311" y="1199" type="qcurve"/>
      <point x="262" y="1142"/>
    </contour>
    <contour>
      <point x="545" y="66" type="line"/>
      <point x="623" y="66"/>
      <point x="693.5" y="126" type="qcurve"/>
      <point x="764" y="186"/>
      <point x="764" y="293" type="qcurve"/>
      <point x="764" y="485"/>
      <point x="545" y="575" type="qcurve"/>
    </contour>
  </outline>
</glyph>
<glyph name="percent" format="1">
  <advance width="1823"/>
  <unicode hex="0025"/>
  <outline>
    <contour>
      <point x="1098" y="414" type="qcurve" smooth="yes"/>
      <point x="1098" y="594"/>
      <point x="1274" y="830"/>
      <point x="1578" y="830"/>
      <point x="1735" y="570"/>
      <point x="1735" y="210"/>
      <point x="1561" y="-22"/>
      <point x="1258" y="-22"/>
      <point x="1098" y="234"/>
    </contour>
    <contour>
      <point x="1250" y="373" type="qcurve" smooth="yes"/>
      <point x="1250" y="253"/>
      <point x="1338" y="46"/>
      <point x="1434" y="46" type="qcurve" smooth="yes"/>
      <point x="1500" y="46"/>
      <point x="1586" y="256"/>
      <point x="1586" y="442" type="qcurve" smooth="yes"/>
      <point x="1586" y="588"/>
      <point x="1498" y="762"/>
      <point x="1406" y="762" type="qcurve" smooth="yes"/>
      <point x="1336" y="762"/>
      <point x="1250" y="553"/>
    </contour>
    <contour>
      <point x="433" y="-42" type="qcurve"/>
      <point x="433" y="-41"/>
      <point x="437" y="-34" type="qcurve"/>
      <point x="1309" y="1413" type="line"/>
      <point x="1312" y="1418"/>
      <point x="1321.5" y="1418" type="qcurve"/>
      <point x="1331" y="1418"/>
      <point x="1355" y="1403.5" type="qcurve"/>
      <point x="1379" y="1389"/>
      <point x="1379" y="1378" type="qcurve"/>
      <point x="1379" y="1376"/>
      <point x="1378" y="1374" type="qcurve"/>
      <point x="504" y="-78" type="line"/>
      <point x="502" y="-82"/>
      <point x="492.5" y="-82" type="qcurve"/>
      <point x="483" y="-82"/>
      <point x="458" y="-67" type="qcurve"/>
      <point x="433" y="-52"/>
    </contour>
    <contour>
      <point x="98" y="982" type="qcurve" smooth="yes"/>
      <point x="98" y="1162"/>
      <point x="274" y="1399"/>
      <point x="578" y="1399"/>
      <point x="735" y="1139"/>
      <point x="735" y="778"/>
      <point x="561" y="547"/>
      <point x="258" y="547"/>
      <point x="98" y="802"/>
    </contour>
    <contour>
      <point x="250" y="942" type="qcurve" smooth="yes"/>
      <point x="250" y="822"/>
      <point x="338" y="614"/>
      <point x="434" y="614" type="qcurve" smooth="yes"/>
      <point x="500" y="614"/>
      <point x="586" y="825"/>
      <point x="586" y="1011" type="qcurve" smooth="yes"/>
      <point x="586" y="1157"/>
      <point x="498" y="1331"/>
      <point x="406" y="1331" type="qcurve" smooth="yes"/>
      <point x="336" y="1331"/>
      <point x="250" y="1122"/>
    </contour>
  </outline>
</glyph>
<glyph name="ampersand" format="1">
  <advance width="1704"/>
  <unicode hex="0026"/>
  <outline>
    <contour>
      <point x="76" y="356" type="qcurve" smooth="yes"/>
      <point x="76" y="614"/>
      <point x="281" y="733" type="qcurve" smooth="yes"/>
      <point x="430" y="819" type="line"/>
      <point x="258" y="943"/>
      <point x="258" y="1083" type="qcurve" smooth="yes"/>
      <point x="258" y="1204"/>
      <point x="436" y="1372"/>
      <point x="557" y="1372" type="qcurve" smooth="yes"/>
      <point x="684" y="1372"/>
      <point x="834" y="1228"/>
      <point x="834" y="1116" type="qcurve" smooth="yes"/>
      <point x="834" y="986"/>
      <point x="709" y="913" type="qcurve"/>
      <point x="620" y="862" type="line"/>
      <point x="834" y="707"/>
      <point x="1022" y="432" type="qcurve"/>
      <point x="1114" y="550" type="line"/>
      <point x="1262" y="742"/>
      <point x="1262" y="852"/>
      <point x="1110" y="852" type="qcurve" smooth="yes"/>
      <point x="1095" y="852"/>
      <point x="1095" y="908"/>
      <point x="1110" y="909" type="qcurve"/>
      <point x="1166" y="903"/>
      <point x="1530" y="903"/>
      <point x="1589" y="909" type="qcurve"/>
      <point x="1606" y="908"/>
      <point x="1606" y="852"/>
      <point x="1589" y="852" type="qcurve" smooth="yes"/>
      <point x="1486" y="852"/>
      <point x="1382" y="780"/>
      <point x="1250" y="608" type="qcurve" smooth="yes"/>
      <point x="1065" y="369" type="line"/>
      <point x="1135" y="266" type="line" smooth="yes"/>
      <point x="1264" y="76"/>
      <point x="1446" y="76" type="qcurve" smooth="yes"/>
      <point x="1567" y="76"/>
      <point x="1638" y="154" type="qcurve" smooth="yes"/>
      <point x="1645" y="161"/>
      <point x="1676" y="135"/>
      <point x="1668" y="125" type="qcurve"/>
      <point x="1564" y="-29"/>
      <point x="1323" y="-29" type="qcurve" smooth="yes"/>
      <point x="1166" y="-29"/>
      <point x="975" y="252" type="qcurve"/>
      <point x="759" y="-27"/>
      <point x="496" y="-27" type="qcurve" smooth="yes"/>
      <point x="304" y="-27"/>
      <point x="76" y="195"/>
    </contour>
    <contour>
      <point x="395" y="1135" type="qcurve"/>
      <point x="395" y="1025"/>
      <point x="569" y="899" type="qcurve"/>
      <point x="698" y="974"/>
      <point x="698" y="1122" type="qcurve" smooth="yes"/>
      <point x="698" y="1213"/>
      <point x="614" y="1311"/>
      <point x="549" y="1311" type="qcurve" smooth="yes"/>
      <point x="480" y="1310"/>
      <point x="396" y="1202"/>
    </contour>
    <contour>
      <point x="221" y="422" type="qcurve"/>
      <point x="222" y="270"/>
      <point x="414" y="98"/>
      <point x="555" y="98" type="qcurve" smooth="yes"/>
      <point x="764" y="98"/>
      <point x="932" y="315" type="qcurve"/>
      <point x="744" y="592"/>
      <point x="482" y="782" type="qcurve"/>
      <point x="221" y="631"/>
    </contour>
  </outline>
</glyph>
<glyph name="quotesingle" format="1">
  <advance width="422"/>
  <unicode hex="0027"/>
  <outline>
    <contour>
      <point x="117" y="1395" type="qcurve"/>
      <point x="117" y="1481"/>
      <point x="212" y="1481" type="qcurve"/>
      <point x="307" y="1481"/>
      <point x="307" y="1397" type="qcurve"/>
      <point x="307" y="1356"/>
      <point x="288" y="1236" type="qcurve"/>
      <point x="269" y="1116"/>
      <point x="248" y="944" type="qcurve"/>
      <point x="247" y="936"/>
      <point x="213" y="936" type="qcurve"/>
      <point x="179" y="936"/>
      <point x="178" y="944" type="qcurve"/>
      <point x="158" y="1113"/>
      <point x="137.5" y="1234.5" type="qcurve"/>
      <point x="117" y="1356"/>
    </contour>
  </outline>
</glyph>
<glyph name="parenleft" format="1">
  <advance width="676"/>
  <unicode hex="0028"/>
  <outline>
    <contour>
      <point x="160" y="588" type="qcurve" smooth="yes"/>
      <point x="160" y="850"/>
      <point x="388" y="1346"/>
      <point x="567" y="1516" type="qcurve" smooth="yes"/>
      <point x="583" y="1530"/>
      <point x="622" y="1530"/>
      <point x="647" y="1508"/>
      <point x="647" y="1488"/>
      <point x="629" y="1464" type="qcurve" smooth="yes"/>
      <point x="299" y="1118"/>
      <point x="299" y="588" type="qcurve" smooth="yes"/>
      <point x="299" y="63"/>
      <point x="633" y="-289" type="qcurve" smooth="yes"/>
      <point x="647" y="-303"/>
      <point x="647" y="-335"/>
      <point x="615" y="-354"/>
      <point x="587" y="-354"/>
      <point x="567" y="-338" type="qcurve" smooth="yes"/>
      <point x="374" y="-164"/>
      <point x="160" y="271"/>
    </contour>
  </outline>
</glyph>
<glyph name="asterisk" format="1">
  <advance width="807"/>
  <unicode hex="002A"/>
  <outline>
    <contour>
      <point x="367" y="694" type="line"/>
      <point x="367" y="981" type="line"/>
      <point x="123" y="843" type="line"/>
      <point x="86" y="904" type="line"/>
      <point x="332" y="1044" type="line"/>
      <point x="86" y="1186" type="line"/>
      <point x="123" y="1247" type="line"/>
      <point x="367" y="1108" type="line"/>
      <point x="367" y="1384" type="line"/>
      <point x="438" y="1384" type="line"/>
      <point x="438" y="1106" type="line"/>
      <point x="682" y="1247" type="line"/>
      <point x="719" y="1186" type="line"/>
      <point x="475" y="1044" type="line"/>
      <point x="719" y="904" type="line"/>
      <point x="682" y="843" type="line"/>
      <point x="438" y="981" type="line"/>
      <point x="438" y="694" type="line"/>
    </contour>
  </outline>
</glyph>
<glyph name="hyphen" format="1">
  <advance width="827"/>
  <unicode hex="002D"/>
  <outline>
    <contour>
      <point x="707" y="602" type="line"/>
      <point x="724" y="602"/>
      <point x="724" y="544.5" type="qcurve"/>
      <point x="724" y="487"/>
      <point x="705" y="487" type="qcurve"/>
      <point x="115" y="487" type="line"/>
      <point x="99" y="487"/>
      <point x="99" y="544.5" type="qcurve"/>
      <point x="99" y="602"/>
      <point x="115" y="602" type="qcurve"/>
    </contour>
  </outline>
</glyph>
<glyph name="slash" format="1">
  <advance width="717"/>
  <unicode hex="002F"/>
  <outline>
    <contour>
      <point x="102" y="-12" type="line"/>
      <point x="100" y="-17"/>
      <point x="92" y="-17" type="qcurve"/>
      <point x="78" y="-17"/>
      <point x="41" y="1" type="qcurve"/>
      <point x="4" y="19"/>
      <point x="4" y="33" type="qcurve"/>
      <point x="614" y="1473" type="line"/>
      <point x="617" y="1479"/>
      <point x="628" y="1479" type="qcurve"/>
      <point x="650" y="1479"/>
      <point x="682.5" y="1463" type="qcurve"/>
      <point x="715" y="1447"/>
      <point x="715" y="1430" type="qcurve"/>
    </contour>
  </outline>
</glyph>
<glyph name="one" format="1">
  <advance width="956"/>
  <unicode hex="0031"/>
  <outline>
    <contour>
      <point x="229" y="-8" type="qcurve"/>
      <point x="215" y="-8"/>
      <point x="215" y="49"/>
      <point x="229" y="49" type="qcurve" smooth="yes"/>
      <point x="356" y="49"/>
      <point x="424" y="126"/>
      <point x="424" y="260" type="qcurve" smooth="yes"/>
      <point x="424" y="1130" type="line" smooth="yes"/>
      <point x="424" y="1177"/>
      <point x="403" y="1177" type="qcurve" smooth="yes"/>
      <point x="396" y="1177"/>
      <point x="379" y="1169" type="qcurve" smooth="yes"/>
      <point x="250" y="1110" type="line" smooth="yes"/>
      <point x="239" y="1105"/>
      <point x="219" y="1150"/>
      <point x="231" y="1157" type="qcurve"/>
      <point x="450" y="1263"/>
      <point x="555" y="1368" type="qcurve" smooth="yes"/>
      <point x="561" y="1374"/>
      <point x="571" y="1374" type="qcurve" smooth="yes"/>
      <point x="584" y="1374"/>
      <point x="584" y="1360" type="qcurve" smooth="yes"/>
      <point x="578" y="1235"/>
      <point x="578" y="1188" type="qcurve" smooth="yes"/>
      <point x="578" y="262" type="line" smooth="yes"/>
      <point x="578" y="113"/>
      <point x="666" y="49"/>
      <point x="756" y="49" type="qcurve" smooth="yes"/>
      <point x="770" y="49"/>
      <point x="770" y="-8"/>
      <point x="756" y="-8" type="qcurve"/>
      <point x="676" y="0"/>
      <point x="308" y="0"/>
    </contour>
  </outline>
</glyph>
<glyph name="six" format="1">
  <advance width="956"/>
  <unicode hex="0036"/>
  <outline>
    <contour>
      <point x="473" y="-16" type="qcurve" smooth="yes"/>
      <point x="293" y="-16"/>
      <point x="100" y="261"/>
      <point x="100" y="465" type="qcurve" smooth="yes"/>
      <point x="100" y="751"/>
      <point x="495" y="1264"/>
      <point x="752" y="1378" type="qcurve"/>
      <point x="768" y="1384"/>
      <point x="780.529" y="1360.26" type="qcurve"/>
      <point x="793.057" y="1336.53"/>
      <point x="778" y="1329" type="qcurve"/>
      <point x="485" y="1163"/>
      <point x="363" y="902" type="qcurve" smooth="yes"/>
      <point x="305" y="779"/>
      <point x="281" y="629" type="qcurve"/>
      <point x="433" y="766"/>
      <point x="549" y="766" type="qcurve" smooth="yes"/>
      <point x="691" y="766"/>
      <point x="864" y="538"/>
      <point x="864" y="391" type="qcurve" smooth="yes"/>
      <point x="864" y="223"/>
      <point x="647" y="-16"/>
    </contour>
    <contour>
      <point x="498" y="63" type="qcurve" smooth="yes"/>
      <point x="601" y="63"/>
      <point x="709" y="232"/>
      <point x="709" y="330" type="qcurve" smooth="yes"/>
      <point x="709" y="476"/>
      <point x="570" y="653"/>
      <point x="469" y="653" type="qcurve" smooth="yes"/>
      <point x="356" y="653"/>
      <point x="270" y="543" type="qcurve"/>
      <point x="264" y="500"/>
      <point x="264" y="461" type="qcurve" smooth="yes"/>
      <point x="264" y="194"/>
      <point x="377" y="103" type="qcurve" smooth="yes"/>
      <point x="427" y="63"/>
    </contour>
  </outline>
</glyph>
<glyph name="eight" format="1">
  <advance width="956"/>
  <unicode hex="0038"/>
  <outline>
    <contour>
      <point x="477" y="-16" type="qcurve" smooth="yes"/>
      <point x="306" y="-16"/>
      <point x="104" y="172"/>
      <point x="104" y="315" type="qcurve" smooth="yes"/>
      <point x="104" y="524"/>
      <point x="377" y="668" type="qcurve"/>
      <point x="250" y="750"/>
      <point x="211" y="809" type="qcurve" smooth="yes"/>
      <point x="141" y="902"/>
      <point x="141" y="1008" type="qcurve" smooth="yes"/>
      <point x="141" y="1142"/>
      <point x="333" y="1333"/>
      <point x="477" y="1333" type="qcurve" smooth="yes"/>
      <point x="646" y="1333"/>
      <point x="809" y="1161"/>
      <point x="809" y="1038" type="qcurve" smooth="yes"/>
      <point x="809" y="830"/>
      <point x="582" y="711" type="qcurve"/>
      <point x="852" y="538"/>
      <point x="852" y="332" type="qcurve" smooth="yes"/>
      <point x="852" y="178"/>
      <point x="631" y="-16"/>
    </contour>
    <contour>
      <point x="258" y="1075" type="qcurve" smooth="yes"/>
      <point x="258" y="947"/>
      <point x="417" y="829" type="qcurve" smooth="yes"/>
      <point x="450" y="804"/>
      <point x="528" y="754" type="qcurve"/>
      <point x="670" y="854"/>
      <point x="670" y="997" type="qcurve" smooth="yes"/>
      <point x="670" y="1118"/>
      <point x="548" y="1257"/>
      <point x="453" y="1257" type="qcurve" smooth="yes"/>
      <point x="351" y="1257"/>
      <point x="258" y="1138"/>
    </contour>
    <contour>
      <point x="709" y="260" type="qcurve" smooth="yes"/>
      <point x="709" y="388"/>
      <point x="536" y="554"/>
      <point x="463" y="605" type="qcurve" smooth="yes"/>
      <point x="434" y="625" type="line"/>
      <point x="260" y="524"/>
      <point x="260" y="336" type="qcurve" smooth="yes"/>
      <point x="260" y="224"/>
      <point x="399" y="51"/>
      <point x="508" y="51" type="qcurve" smooth="yes"/>
      <point x="609" y="51"/>
      <point x="709" y="184"/>
    </contour>
  </outline>
</glyph>
<glyph name="nine" format="1">
  <advance width="956"/>
  <unicode hex="0039"/>
  <outline>
    <contour>
      <point x="92" y="907" type="qcurve" smooth="yes"/>
      <point x="92" y="1099"/>
      <point x="309" y="1333"/>
      <point x="483" y="1333" type="qcurve" smooth="yes"/>
      <point x="661" y="1333"/>
      <point x="856" y="1059"/>
      <point x="856" y="864" type="qcurve" smooth="yes"/>
      <point x="856" y="552"/>
      <point x="618" y="278" type="qcurve" smooth="yes"/>
      <point x="449" y="85"/>
      <point x="213" y="-35" type="qcurve" smooth="yes"/>
      <point x="201" y="-42"/>
      <point x="166" y="16"/>
      <point x="180" y="27" type="qcurve"/>
      <point x="370" y="138"/>
      <point x="625" y="431"/>
      <point x="674" y="686" type="qcurve"/>
      <point x="546" y="551"/>
      <point x="416" y="551" type="qcurve" smooth="yes"/>
      <point x="282" y="551"/>
      <point x="95" y="764"/>
    </contour>
    <contour>
      <point x="248" y="975" type="qcurve" smooth="yes"/>
      <point x="248" y="840"/>
      <point x="383" y="662"/>
      <point x="481" y="662" type="qcurve" smooth="yes"/>
      <point x="593" y="662"/>
      <point x="684" y="774" type="qcurve"/>
      <point x="690" y="818"/>
      <point x="690" y="862" type="qcurve" smooth="yes"/>
      <point x="690" y="1096"/>
      <point x="534" y="1251"/>
      <point x="453" y="1251" type="qcurve" smooth="yes"/>
      <point x="344" y="1251"/>
      <point x="248" y="1072"/>
    </contour>
  </outline>
</glyph>
<glyph name="colon" format="1">
  <advance width="594"/>
  <unicode hex="003A"/>
  <outline>
    <contour>
      <point x="215" y="98" type="qcurve" smooth="yes"/>
      <point x="215" y="149"/>
      <point x="287" y="211"/>
      <point x="397" y="211"/>
      <point x="457" y="137"/>
      <point x="457" y="36"/>
      <point x="388" y="-25"/>
      <point x="282" y="-25"/>
      <point x="215" y="47"/>
    </contour>
    <contour>
      <point x="215" y="740" type="qcurve" smooth="yes"/>
      <point x="215" y="790"/>
      <point x="288" y="852"/>
      <point x="397" y="852"/>
      <point x="457" y="778"/>
      <point x="457" y="677"/>
      <point x="389" y="616"/>
      <point x="283" y="616"/>
      <point x="215" y="688"/>
    </contour>
  </outline>
</glyph>
<glyph name="semicolon" format="1">
  <advance width="594"/>
  <unicode hex="003B"/>
  <outline>
    <contour>
      <point x="193" y="139" type="qcurve" smooth="yes"/>
      <point x="193" y="197"/>
      <point x="248" y="223" type="qcurve" smooth="yes"/>
      <point x="274" y="236"/>
      <point x="308" y="236" type="qcurve" smooth="yes"/>
      <point x="387" y="236"/>
      <point x="486" y="111"/>
      <point x="486" y="39" type="qcurve" smooth="yes"/>
      <point x="486" y="-90"/>
      <point x="332" y="-293"/>
      <point x="204" y="-371"/>
      <point x="199" y="-371" type="qcurve" smooth="yes"/>
      <point x="174" y="-371"/>
      <point x="174" y="-344" type="qcurve" smooth="yes"/>
      <point x="174" y="-340"/>
      <point x="251" y="-261"/>
      <point x="344" y="-134"/>
      <point x="344" y="-57" type="qcurve" smooth="yes"/>
      <point x="344" y="-8"/>
      <point x="310" y="4" type="qcurve" smooth="yes"/>
      <point x="193" y="49"/>
    </contour>
    <contour>
      <point x="184" y="742.5" type="qcurve" smooth="yes"/>
      <point x="184" y="795"/>
      <point x="260" y="855"/>
      <point x="365" y="855"/>
      <point x="426" y="781"/>
      <point x="426" y="681"/>
      <point x="360" y="619"/>
      <point x="252" y="619"/>
      <point x="184" y="690"/>
    </contour>
  </outline>
</glyph>
<glyph name="less" format="1">
  <advance width="1024"/>
  <unicode hex="003C"/>
  <outline>
    <contour>
      <point x="911" y="-2" type="line"/>
      <point x="115" y="375" type="line"/>
      <point x="115" y="467" type="line"/>
      <point x="911" y="846" type="line"/>
      <point x="911" y="727" type="line"/>
      <point x="262" y="424" type="line"/>
      <point x="262" y="420" type="line"/>
      <point x="911" y="115" type="line"/>
    </contour>
  </outline>
</glyph>
<glyph name="equal" format="1">
  <advance width="1024"/>
  <unicode hex="003D"/>
  <outline>
    <contour>
      <point x="907" y="596" type="line"/>
      <point x="119" y="596" type="line"/>
      <point x="119" y="696" type="line"/>
      <point x="907" y="696" type="line"/>
    </contour>
    <contour>
      <point x="907" y="330" type="line"/>
      <point x="119" y="330" type="line"/>
      <point x="119" y="430" type="line"/>
      <point x="907" y="430" type="line"/>
    </contour>
  </outline>
</glyph>
<glyph name="at" format="1">
  <advance width="1556"/>
  <unicode hex="0040"/>
  <outline>
    <contour>
      <point x="92" y="295"/>
      <point x="92" y="600" type="qcurve" smooth="yes"/>
      <point x="92" y="946"/>
      <point x="574" y="1384"/>
      <point x="901" y="1384" type="qcurve" smooth="yes"/>
      <point x="1181" y="1384"/>
      <point x="1505" y="1071"/>
      <point x="1505" y="852" type="qcurve" smooth="yes"/>
      <point x="1505" y="651"/>
      <point x="1216" y="358"/>
      <point x="975" y="358" type="qcurve" smooth="yes"/>
      <point x="884" y="358"/>
      <point x="864" y="383" type="qcurve" smooth="yes"/>
      <point x="852" y="398"/>
      <point x="852" y="422" type="qcurve" smooth="yes"/>
      <point x="852" y="449"/>
      <point x="896" y="581" type="qcurve" smooth="yes"/>
      <point x="901" y="596" type="line"/>
      <point x="893" y="600" type="line"/>
      <point x="712" y="360"/>
      <point x="590" y="360" type="qcurve" smooth="yes"/>
      <point x="498" y="360"/>
      <point x="498" y="487" type="qcurve" smooth="yes"/>
      <point x="498" y="640"/>
      <point x="751" y="1014"/>
      <point x="903" y="1014" type="qcurve" smooth="yes"/>
      <point x="955" y="1014"/>
      <point x="1004" y="973" type="qcurve"/>
      <point x="1020" y="1024" type="line" smooth="yes"/>
      <point x="1026" y="1042"/>
      <point x="1110" y="1042"/>
      <point x="1110" y="1024" type="qcurve"/>
      <point x="969" y="532" type="line" smooth="yes"/>
      <point x="959" y="496"/>
      <point x="959" y="472" type="qcurve" smooth="yes"/>
      <point x="959" y="426"/>
      <point x="1001" y="426" type="qcurve" smooth="yes"/>
      <point x="1180" y="426"/>
      <point x="1417" y="660"/>
      <point x="1417" y="844" type="qcurve" smooth="yes"/>
      <point x="1417" y="1050"/>
      <point x="1123" y="1315"/>
      <point x="903" y="1315" type="qcurve" smooth="yes"/>
      <point x="586" y="1315"/>
      <point x="233" y="896"/>
      <point x="233" y="602" type="qcurve" smooth="yes"/>
      <point x="233" y="384"/>
      <point x="524" y="39"/>
      <point x="844" y="39" type="qcurve" smooth="yes"/>
      <point x="988" y="39"/>
      <point x="1161" y="111" type="qcurve" smooth="yes"/>
      <point x="1168" y="114"/>
      <point x="1186" y="76"/>
      <point x="1178" y="72" type="qcurve" smooth="yes"/>
      <point x="1012" y="-33"/>
      <point x="782" y="-33" type="qcurve" smooth="yes"/>
      <point x="502" y="-33"/>
    </contour>
    <contour>
      <point x="608" y="512" type="qcurve" smooth="yes"/>
      <point x="608" y="442"/>
      <point x="653" y="442" type="qcurve" smooth="yes"/>
      <point x="706" y="442"/>
      <point x="822" y="574" type="qcurve" smooth="yes"/>
      <point x="863" y="621"/>
      <point x="883" y="651" type="qcurve" smooth="yes"/>
      <point x="930" y="722"/>
      <point x="959" y="824" type="qcurve" smooth="yes"/>
      <point x="981" y="901" type="line"/>
      <point x="981" y="965"/>
      <point x="883" y="965" type="qcurve" smooth="yes"/>
      <point x="780" y="965"/>
      <point x="608" y="628"/>
    </contour>
  </outline>
</glyph>
<glyph name="A" format="2">
  <advance width="1398"/>
  <unicode hex="0041"/>
  <outline>
    <contour>
      <point x="10" y="-7" type="qcurve"/>
      <point x="-4" y="-7"/>
      <point x="-4" y="69"/>
      <point x="10" y="69" type="qcurve" smooth="yes"/>
      <point x="107" y="69"/>
      <point x="171" y="125"/>
      <point x="205" y="201" type="qcurve"/>
      <point x="582" y="1188" type="line" smooth="yes"/>
      <point x="588" y="1205"/>
      <point x="588" y="1231"/>
      <point x="562" y="1258"/>
      <point x="562" y="1270"/>
      <point x="641" y="1313"/>
      <point x="747" y="1387"/>
      <point x="759" y="1387" type="qcurve" smooth="yes"/>
      <point x="782" y="1387"/>
      <point x="794" y="1343" type="qcurve" smooth="yes"/>
      <point x="820" y="1246"/>
      <point x="843" y="1177" type="qcurve" smooth="yes"/>
      <point x="1176" y="186" type="line" smooth="yes"/>
      <point x="1215" y="69"/>
      <point x="1368" y="69" type="qcurve" smooth="yes"/>
      <point x="1381" y="69"/>
      <point x="1381" y="-7"/>
      <point x="1368" y="-7" type="qcurve"/>
      <point x="1295" y="0"/>
      <point x="979" y="0"/>
      <point x="907" y="-7" type="qcurve"/>
      <point x="893" y="-7"/>
      <point x="893" y="69"/>
      <point x="907" y="69" type="qcurve" smooth="yes"/>
      <point x="1006" y="69"/>
      <point x="1006" y="137" type="qcurve" smooth="yes"/>
      <point x="1006" y="160"/>
      <point x="998" y="186" type="qcurve" smooth="yes"/>
      <point x="897" y="499" type="line"/>
      <point x="888" y="531"/>
      <point x="853" y="531" type="qcurve" smooth="yes"/>
      <point x="446" y="531" type="line" smooth="yes"/>
      <point x="418" y="531"/>
      <point x="406" y="496" type="qcurve" smooth="yes"/>
      <point x="293" y="182" type="line"/>
      <point x="284" y="160"/>
      <point x="284" y="142" type="qcurve" smooth="yes"/>
      <point x="284" y="69"/>
      <point x="435" y="69" type="qcurve" smooth="yes"/>
      <point x="449" y="69"/>
      <point x="449" y="-7"/>
      <point x="435" y="-7" type="qcurve"/>
      <point x="350" y="0"/>
      <point x="94" y="0"/>
    </contour>
    <contour>
      <point x="832" y="600" type="line" smooth="yes"/>
      <point x="857" y="600"/>
      <point x="857" y="616" type="qcurve" smooth="yes"/>
      <point x="857" y="621"/>
      <point x="855" y="627" type="qcurve" smooth="yes"/>
      <point x="685" y="1159" type="line" smooth="yes"/>
      <point x="679" y="1179"/>
      <point x="655" y="1179"/>
      <point x="648" y="1159" type="qcurve" smooth="yes"/>
      <point x="451" y="627" type="line" smooth="yes"/>
      <point x="449" y="622"/>
      <point x="449" y="616" type="qcurve" smooth="yes"/>
      <point x="449" y="600"/>
      <point x="473" y="600" type="qcurve" smooth="yes"/>
    </contour>
  </outline>
</glyph>
<glyph name="B" format="1">
  <advance width="1250"/>
  <unicode hex="0042"/>
  <outline>
    <contour>
      <point x="271" y="186" type="qcurve" smooth="yes"/>
      <point x="271" y="1172" type="line" smooth="yes"/>
      <point x="271" y="1282"/>
      <point x="82" y="1282" type="qcurve" smooth="yes"/>
      <point x="68" y="1282"/>
      <point x="68" y="1358"/>
      <point x="82" y="1358" type="qcurve"/>
      <point x="196" y="1352"/>
      <point x="448" y="1352"/>
      <point x="558" y="1358"/>
      <point x="629" y="1358" type="qcurve" smooth="yes"/>
      <point x="802" y="1358"/>
      <point x="1036" y="1196"/>
      <point x="1036" y="1035" type="qcurve" smooth="yes"/>
      <point x="1036" y="836"/>
      <point x="840" y="745" type="qcurve" smooth="yes"/>
      <point x="825" y="738"/>
      <point x="825" y="731.5" type="qcurve" smooth="yes"/>
      <point x="825" y="725"/>
      <point x="840" y="720" type="qcurve" smooth="yes"/>
      <point x="948" y="685"/>
      <point x="1129" y="500"/>
      <point x="1129" y="347" type="qcurve" smooth="yes"/>
      <point x="1129" y="205"/>
      <point x="920" y="-7"/>
      <point x="629" y="-7" type="qcurve" smooth="yes"/>
      <point x="565" y="-7"/>
      <point x="413" y="0"/>
      <point x="173" y="0"/>
      <point x="91" y="-7" type="qcurve"/>
      <point x="78" y="-7"/>
      <point x="78" y="69"/>
      <point x="91" y="69" type="qcurve" smooth="yes"/>
      <point x="271" y="69"/>
    </contour>
    <contour>
      <point x="431" y="789" type="line" smooth="yes"/>
      <point x="431" y="753"/>
      <point x="510" y="753" type="qcurve" smooth="yes"/>
      <point x="864" y="753"/>
      <point x="864" y="1032" type="qcurve" smooth="yes"/>
      <point x="864" y="1297"/>
      <point x="483" y="1297" type="qcurve" smooth="yes"/>
      <point x="431" y="1297"/>
      <point x="431" y="1230" type="qcurve" smooth="yes"/>
    </contour>
    <contour>
      <point x="431" y="277" type="line" smooth="yes"/>
      <point x="431" y="57"/>
      <point x="615" y="57" type="qcurve" smooth="yes"/>
      <point x="948" y="57"/>
      <point x="948" y="372" type="qcurve" smooth="yes"/>
      <point x="948" y="583"/>
      <point x="726" y="661" type="qcurve"/>
      <point x="639" y="690"/>
      <point x="466" y="691" type="qcurve" smooth="yes"/>
      <point x="431" y="691"/>
      <point x="431" y="661" type="qcurve" smooth="yes"/>
    </contour>
  </outline>
</glyph>
<glyph name="C" format="1">
  <advance width="1344"/>
  <unicode hex="0043"/>
  <outline>
    <contour>
      <point x="91" y="647" type="qcurve" smooth="yes"/>
      <point x="91" y="870"/>
      <point x="282" y="1199"/>
      <point x="588" y="1385"/>
      <point x="812" y="1385" type="qcurve" smooth="yes"/>
      <point x="903" y="1385"/>
      <point x="1075" y="1355"/>
      <point x="1230" y="1327" type="qcurve"/>
      <point x="1259" y="1193"/>
      <point x="1259" y="1016" type="qcurve"/>
      <point x="1255" y="1000"/>
      <point x="1192" y="1000"/>
      <point x="1190" y="1014" type="qcurve" smooth="yes"/>
      <point x="1162" y="1314"/>
      <point x="783" y="1314" type="qcurve" smooth="yes"/>
      <point x="579" y="1314"/>
      <point x="282" y="946"/>
      <point x="282" y="707" type="qcurve" smooth="yes"/>
      <point x="282" y="424"/>
      <point x="572" y="48"/>
      <point x="780" y="48" type="qcurve" smooth="yes"/>
      <point x="1134" y="48"/>
      <point x="1232" y="317" type="qcurve" smooth="yes"/>
      <point x="1236" y="328"/>
      <point x="1286" y="328"/>
      <point x="1299" y="317"/>
      <point x="1299" y="306" type="qcurve"/>
      <point x="1262" y="115"/>
      <point x="1209" y="36" type="qcurve"/>
      <point x="1177" y="32"/>
      <point x="1132" y="19" type="qcurve"/>
      <point x="985" y="-27"/>
      <point x="756" y="-27" type="qcurve" smooth="yes"/>
      <point x="578" y="-27"/>
      <point x="275" y="145"/>
      <point x="91" y="448"/>
    </contour>
  </outline>
</glyph>
<glyph name="D" format="1">
  <advance width="1525"/>
  <unicode hex="0044"/>
  <outline>
    <contour>
      <point x="271" y="186" type="qcurve" smooth="yes"/>
      <point x="271" y="1172" type="line" smooth="yes"/>
      <point x="271" y="1282"/>
      <point x="82" y="1282" type="qcurve" smooth="yes"/>
      <point x="68" y="1282"/>
      <point x="68" y="1358"/>
      <point x="82" y="1358" type="qcurve" smooth="yes"/>
      <point x="222" y="1352"/>
      <point x="422" y="1352"/>
      <point x="640" y="1358"/>
      <point x="703" y="1358" type="qcurve" smooth="yes"/>
      <point x="1014" y="1358"/>
      <point x="1432" y="1024"/>
      <point x="1432" y="728" type="qcurve" smooth="yes"/>
      <point x="1432" y="406"/>
      <point x="1065" y="-7"/>
      <point x="751" y="-7" type="qcurve" smooth="yes"/>
      <point x="703" y="-7"/>
      <point x="410" y="0"/>
      <point x="214" y="0"/>
      <point x="91" y="-7" type="qcurve" smooth="yes"/>
      <point x="78" y="-7"/>
      <point x="78" y="68"/>
      <point x="91" y="69" type="qcurve"/>
      <point x="271" y="69"/>
    </contour>
    <contour>
      <point x="431" y="298" type="line" smooth="yes"/>
      <point x="431" y="149"/>
      <point x="551" y="53"/>
      <point x="682" y="53" type="qcurve" smooth="yes"/>
      <point x="938" y="53"/>
      <point x="1241" y="415"/>
      <point x="1241" y="716" type="qcurve" smooth="yes"/>
      <point x="1241" y="968"/>
      <point x="887" y="1297"/>
      <point x="621" y="1297" type="qcurve" smooth="yes"/>
      <point x="526" y="1297"/>
      <point x="465" y="1280"/>
      <point x="431" y="1225"/>
      <point x="431" y="1181" type="qcurve" smooth="yes"/>
    </contour>
  </outline>
</glyph>
<glyph name="E" format="1">
  <advance width="1235"/>
  <unicode hex="0045"/>
  <outline>
    <contour>
      <point x="271" y="177" type="qcurve" smooth="yes"/>
      <point x="271" y="1172" type="line" smooth="yes"/>
      <point x="271" y="1282"/>
      <point x="84" y="1282" type="qcurve" smooth="yes"/>
      <point x="70" y="1282"/>
      <point x="70" y="1358"/>
      <point x="84" y="1358" type="qcurve" smooth="yes"/>
      <point x="224" y="1352"/>
      <point x="484" y="1352"/>
      <point x="925" y="1358"/>
      <point x="1017" y="1358" type="qcurve" smooth="yes"/>
      <point x="1068" y="1358"/>
      <point x="1089" y="1344"/>
      <point x="1089" y="1331" type="qcurve" smooth="yes"/>
      <point x="1089" y="1010" type="line" smooth="yes"/>
      <point x="1089" y="993"/>
      <point x="1014" y="993"/>
      <point x="1014" y="1010" type="qcurve" smooth="yes"/>
      <point x="1014" y="1276"/>
      <point x="756" y="1282" type="qcurve" smooth="yes"/>
      <point x="472" y="1289" type="line"/>
      <point x="431" y="1289"/>
      <point x="431" y="1241" type="qcurve" smooth="yes"/>
      <point x="431" y="709" type="line" smooth="yes"/>
      <point x="431" y="676"/>
      <point x="459" y="676" type="qcurve" smooth="yes"/>
      <point x="665" y="676" type="line" smooth="yes"/>
      <point x="743" y="676"/>
      <point x="782" y="734"/>
      <point x="782" y="793" type="qcurve" smooth="yes"/>
      <point x="782" y="867" type="line" smooth="yes"/>
      <point x="782" y="880"/>
      <point x="852" y="880"/>
      <point x="852" y="867" type="qcurve"/>
      <point x="844" y="796"/>
      <point x="844" y="510"/>
      <point x="852" y="430" type="qcurve"/>
      <point x="852" y="417"/>
      <point x="782" y="417"/>
      <point x="782" y="430" type="qcurve" smooth="yes"/>
      <point x="782" y="512" type="line" smooth="yes"/>
      <point x="782" y="555"/>
      <point x="743" y="607"/>
      <point x="665" y="607" type="qcurve" smooth="yes"/>
      <point x="456" y="607" type="line" smooth="yes"/>
      <point x="431" y="607"/>
      <point x="431" y="576" type="qcurve" smooth="yes"/>
      <point x="431" y="262" type="line" smooth="yes"/>
      <point x="431" y="149"/>
      <point x="496" y="94" type="qcurve" smooth="yes"/>
      <point x="534" y="62"/>
      <point x="587" y="62" type="qcurve"/>
      <point x="822" y="69" type="line" smooth="yes"/>
      <point x="1081" y="77"/>
      <point x="1081" y="340" type="qcurve" smooth="yes"/>
      <point x="1081" y="357"/>
      <point x="1156" y="357"/>
      <point x="1156" y="340" type="qcurve" smooth="yes"/>
      <point x="1156" y="23" type="line" smooth="yes"/>
      <point x="1156" y="-1"/>
      <point x="1112" y="-7"/>
      <point x="1083" y="-7" type="qcurve" smooth="yes"/>
      <point x="967" y="-7"/>
      <point x="488" y="0"/>
      <point x="230" y="0"/>
      <point x="84" y="-7" type="qcurve" smooth="yes"/>
      <point x="70" y="-7"/>
      <point x="70" y="68"/>
      <point x="84" y="69" type="qcurve"/>
      <point x="271" y="69"/>
    </contour>
  </outline>
</glyph>
<glyph name="F" format="1">
  <advance width="1170"/>
  <unicode hex="0046"/>
  <outline>
    <contour>
      <point x="271" y="186" type="qcurve" smooth="yes"/>
      <point x="271" y="1172" type="line" smooth="yes"/>
      <point x="271" y="1282"/>
      <point x="84" y="1282" type="qcurve" smooth="yes"/>
      <point x="70" y="1282"/>
      <point x="70" y="1358"/>
      <point x="84" y="1358" type="qcurve" smooth="yes"/>
      <point x="200" y="1353"/>
      <point x="544" y="1353"/>
      <point x="862" y="1358"/>
      <point x="1035" y="1358" type="qcurve"/>
      <point x="1105" y="1357"/>
      <point x="1108" y="1339" type="qcurve"/>
      <point x="1108" y="1010" type="line" smooth="yes"/>
      <point x="1108" y="992"/>
      <point x="1032" y="992"/>
      <point x="1032" y="1010" type="qcurve" smooth="yes"/>
      <point x="1032" y="1265"/>
      <point x="773" y="1272" type="qcurve"/>
      <point x="472" y="1282" type="line"/>
      <point x="431" y="1282"/>
      <point x="431" y="1241" type="qcurve" smooth="yes"/>
      <point x="431" y="747" type="line" smooth="yes"/>
      <point x="431" y="716"/>
      <point x="459" y="716" type="qcurve" smooth="yes"/>
      <point x="623" y="716" type="line" smooth="yes"/>
      <point x="698" y="716"/>
      <point x="740" y="776"/>
      <point x="740" y="846" type="qcurve" smooth="yes"/>
      <point x="740" y="963" type="line" smooth="yes"/>
      <point x="740" y="976"/>
      <point x="810" y="976"/>
      <point x="810" y="963" type="qcurve"/>
      <point x="802" y="893"/>
      <point x="802" y="466"/>
      <point x="810" y="395" type="qcurve"/>
      <point x="810" y="382"/>
      <point x="740" y="382"/>
      <point x="740" y="395" type="qcurve" smooth="yes"/>
      <point x="740" y="512" type="line" smooth="yes"/>
      <point x="740" y="582"/>
      <point x="690" y="640"/>
      <point x="623" y="640" type="qcurve" smooth="yes"/>
      <point x="456" y="640" type="line" smooth="yes"/>
      <point x="431" y="640"/>
      <point x="431" y="615" type="qcurve" smooth="yes"/>
      <point x="431" y="186" type="line" smooth="yes"/>
      <point x="431" y="69"/>
      <point x="619" y="69" type="qcurve" smooth="yes"/>
      <point x="632" y="69"/>
      <point x="632" y="-7"/>
      <point x="619" y="-7" type="qcurve"/>
      <point x="530" y="0"/>
      <point x="178" y="0"/>
      <point x="91" y="-7" type="qcurve"/>
      <point x="78" y="-7"/>
      <point x="78" y="69"/>
      <point x="91" y="69" type="qcurve" smooth="yes"/>
      <point x="271" y="69"/>
    </contour>
  </outline>
</glyph>
<glyph name="G" format="1">
  <advance width="1409"/>
  <unicode hex="0047"/>
  <outline>
    <contour>
      <point x="91" y="667" type="qcurve" smooth="yes"/>
      <point x="91" y="909"/>
      <point x="452" y="1385"/>
      <point x="771" y="1385" type="qcurve" smooth="yes"/>
      <point x="935" y="1385"/>
      <point x="1218" y="1327"/>
      <point x="1232" y="1327" type="qcurve"/>
      <point x="1251" y="1278"/>
      <point x="1261" y="1019" type="qcurve" smooth="yes"/>
      <point x="1261" y="1001"/>
      <point x="1193" y="1001"/>
      <point x="1192" y="1014" type="qcurve"/>
      <point x="1192" y="1125"/>
      <point x="985" y="1314"/>
      <point x="776" y="1314" type="qcurve" smooth="yes"/>
      <point x="547" y="1314"/>
      <point x="282" y="951"/>
      <point x="282" y="726" type="qcurve" smooth="yes"/>
      <point x="282" y="420"/>
      <point x="580" y="48"/>
      <point x="970" y="48"/>
      <point x="1048" y="95" type="qcurve"/>
      <point x="1070" y="111"/>
      <point x="1070" y="173" type="qcurve" smooth="yes"/>
      <point x="1070" y="363" type="line" smooth="yes"/>
      <point x="1070" y="478"/>
      <point x="842" y="478" type="qcurve" smooth="yes"/>
      <point x="828" y="478"/>
      <point x="828" y="554"/>
      <point x="842" y="554" type="qcurve"/>
      <point x="898" y="548"/>
      <point x="1314" y="548"/>
      <point x="1371" y="554" type="qcurve"/>
      <point x="1386" y="554"/>
      <point x="1386" y="478"/>
      <point x="1371" y="478" type="qcurve" smooth="yes"/>
      <point x="1230" y="478"/>
      <point x="1230" y="363" type="qcurve" smooth="yes"/>
      <point x="1230" y="144" type="line" smooth="yes"/>
      <point x="1230" y="77"/>
      <point x="1267" y="77" type="qcurve" smooth="yes"/>
      <point x="1281" y="77"/>
      <point x="1281" y="31"/>
      <point x="1255" y="31"/>
      <point x="1156" y="20"/>
      <point x="943" y="-17"/>
      <point x="845" y="-27"/>
      <point x="768" y="-27" type="qcurve" smooth="yes"/>
      <point x="622" y="-27"/>
      <point x="258" y="145"/>
      <point x="91" y="498"/>
    </contour>
  </outline>
</glyph>
<glyph name="H" format="1">
  <advance width="1620"/>
  <unicode hex="0048"/>
  <outline>
    <contour>
      <point x="1371" y="186" type="line" smooth="yes"/>
      <point x="1371" y="69"/>
      <point x="1551" y="69" type="qcurve" smooth="yes"/>
      <point x="1564" y="69"/>
      <point x="1564" y="-7"/>
      <point x="1551" y="-7" type="qcurve" smooth="yes"/>
      <point x="1391" y="0"/>
      <point x="1191" y="0"/>
      <point x="1033" y="-7" type="qcurve" smooth="yes"/>
      <point x="1020" y="-7"/>
      <point x="1020" y="68"/>
      <point x="1033" y="69" type="qcurve"/>
      <point x="1211" y="69"/>
      <point x="1211" y="186" type="qcurve" smooth="yes"/>
      <point x="1211" y="621" type="line" smooth="yes"/>
      <point x="1211" y="659"/>
      <point x="1172" y="659" type="qcurve" smooth="yes"/>
      <point x="470" y="659" type="line" smooth="yes"/>
      <point x="431" y="659"/>
      <point x="431" y="621" type="qcurve" smooth="yes"/>
      <point x="431" y="186" type="line" smooth="yes"/>
      <point x="431" y="69"/>
      <point x="611" y="69" type="qcurve" smooth="yes"/>
      <point x="624" y="69"/>
      <point x="624" y="-7"/>
      <point x="611" y="-7" type="qcurve" smooth="yes"/>
      <point x="462" y="0"/>
      <point x="254" y="0"/>
      <point x="93" y="-7" type="qcurve" smooth="yes"/>
      <point x="80" y="-7"/>
      <point x="80" y="68"/>
      <point x="93" y="69" type="qcurve"/>
      <point x="271" y="69"/>
      <point x="271" y="186" type="qcurve" smooth="yes"/>
      <point x="271" y="1172" type="line" smooth="yes"/>
      <point x="271" y="1287"/>
      <point x="82" y="1287" type="qcurve" smooth="yes"/>
      <point x="68" y="1287"/>
      <point x="68" y="1363"/>
      <point x="82" y="1363" type="qcurve"/>
      <point x="126" y="1358"/>
      <point x="566" y="1358"/>
      <point x="611" y="1363" type="qcurve"/>
      <point x="624" y="1363"/>
      <point x="624" y="1287"/>
      <point x="611" y="1287" type="qcurve" smooth="yes"/>
      <point x="431" y="1287"/>
      <point x="431" y="1172" type="qcurve" smooth="yes"/>
      <point x="431" y="782" type="line" smooth="yes"/>
      <point x="431" y="743"/>
      <point x="470" y="743" type="qcurve" smooth="yes"/>
      <point x="1172" y="743" type="line" smooth="yes"/>
      <point x="1211" y="743"/>
      <point x="1211" y="782" type="qcurve" smooth="yes"/>
      <point x="1211" y="1172" type="line" smooth="yes"/>
      <point x="1211" y="1287"/>
      <point x="1022" y="1287" type="qcurve" smooth="yes"/>
      <point x="1008" y="1287"/>
      <point x="1008" y="1363"/>
      <point x="1022" y="1363" type="qcurve"/>
      <point x="1066" y="1358"/>
      <point x="1506" y="1358"/>
      <point x="1551" y="1363" type="qcurve"/>
      <point x="1564" y="1363"/>
      <point x="1564" y="1287"/>
      <point x="1551" y="1287" type="qcurve" smooth="yes"/>
      <point x="1371" y="1287"/>
      <point x="1371" y="1172" type="qcurve" smooth="yes"/>
    </contour>
  </outline>
</glyph>
<glyph name="I" format="1">
  <advance width="683"/>
  <unicode hex="0049"/>
  <outline>
    <contour>
      <point x="271" y="186" type="qcurve" smooth="yes"/>
      <point x="271" y="1172" type="line" smooth="yes"/>
      <point x="271" y="1287"/>
      <point x="82" y="1287" type="qcurve" smooth="yes"/>
      <point x="68" y="1287"/>
      <point x="68" y="1363"/>
      <point x="82" y="1363" type="qcurve"/>
      <point x="126" y="1358"/>
      <point x="566" y="1358"/>
      <point x="611" y="1363" type="qcurve"/>
      <point x="624" y="1363"/>
      <point x="624" y="1287"/>
      <point x="611" y="1287" type="qcurve" smooth="yes"/>
      <point x="431" y="1287"/>
      <point x="431" y="1172" type="qcurve" smooth="yes"/>
      <point x="431" y="186" type="line" smooth="yes"/>
      <point x="431" y="69"/>
      <point x="611" y="69" type="qcurve" smooth="yes"/>
      <point x="624" y="69"/>
      <point x="624" y="-7"/>
      <point x="611" y="-7" type="qcurve"/>
      <point x="525" y="0"/>
      <point x="179" y="0"/>
      <point x="93" y="-7" type="qcurve"/>
      <point x="80" y="-7"/>
      <point x="80" y="69"/>
      <point x="93" y="69" type="qcurve" smooth="yes"/>
      <point x="271" y="69"/>
    </contour>
  </outline>
</glyph>
<glyph name="J" format="1">
  <advance width="716"/>
  <unicode hex="004A"/>
  <outline>
    <contour>
      <point x="292" y="260" type="qcurve" smooth="yes"/>
      <point x="292" y="1172" type="line" smooth="yes"/>
      <point x="292" y="1287"/>
      <point x="102" y="1287" type="qcurve" smooth="yes"/>
      <point x="88" y="1287"/>
      <point x="88" y="1363"/>
      <point x="102" y="1363" type="qcurve"/>
      <point x="149" y="1358"/>
      <point x="585" y="1358"/>
      <point x="644" y="1363" type="qcurve"/>
      <point x="658" y="1363"/>
      <point x="658" y="1287"/>
      <point x="644" y="1287" type="qcurve" smooth="yes"/>
      <point x="452" y="1287"/>
      <point x="452" y="1172" type="qcurve" smooth="yes"/>
      <point x="452" y="634" type="line" smooth="yes"/>
      <point x="452" y="-82"/>
      <point x="310" y="-285"/>
      <point x="142" y="-419"/>
      <point x="33" y="-419" type="qcurve" smooth="yes"/>
      <point x="-21" y="-419"/>
      <point x="-97" y="-358"/>
      <point x="-97" y="-298" type="qcurve" smooth="yes"/>
      <point x="-97" y="-267"/>
      <point x="-38" y="-216"/>
      <point x="9" y="-216" type="qcurve" smooth="yes"/>
      <point x="69" y="-216"/>
      <point x="151" y="-284"/>
      <point x="160" y="-317" type="qcurve"/>
      <point x="230" y="-293"/>
      <point x="292" y="-113"/>
    </contour>
  </outline>
</glyph>
<glyph name="M" format="1">
  <advance width="1848"/>
  <unicode hex="004D"/>
  <outline>
    <contour>
      <point x="228" y="186" type="qcurve" smooth="yes"/>
      <point x="287" y="1130" type="line" smooth="yes"/>
      <point x="288" y="1141"/>
      <point x="288" y="1171"/>
      <point x="269" y="1235"/>
      <point x="184" y="1287"/>
      <point x="97" y="1287" type="qcurve" smooth="yes"/>
      <point x="84" y="1287"/>
      <point x="84" y="1363"/>
      <point x="97" y="1363" type="qcurve"/>
      <point x="142" y="1358"/>
      <point x="351" y="1358"/>
      <point x="414" y="1327"/>
      <point x="434" y="1285" type="qcurve" smooth="yes"/>
      <point x="906" y="277" type="line" smooth="yes"/>
      <point x="919" y="250"/>
      <point x="937" y="250"/>
      <point x="951" y="279" type="qcurve" smooth="yes"/>
      <point x="1436" y="1291" type="line" smooth="yes"/>
      <point x="1458" y="1337"/>
      <point x="1526" y="1358"/>
      <point x="1722" y="1358"/>
      <point x="1770" y="1363" type="qcurve"/>
      <point x="1784" y="1363"/>
      <point x="1784" y="1287"/>
      <point x="1770" y="1287" type="qcurve" smooth="yes"/>
      <point x="1685" y="1287"/>
      <point x="1606" y="1233"/>
      <point x="1582" y="1160"/>
      <point x="1582" y="1106" type="qcurve" smooth="yes"/>
      <point x="1589" y="186" type="line" smooth="yes"/>
      <point x="1590" y="69"/>
      <point x="1748" y="69" type="qcurve" smooth="yes"/>
      <point x="1762" y="69"/>
      <point x="1762" y="-7"/>
      <point x="1748" y="-7" type="qcurve"/>
      <point x="1673" y="0"/>
      <point x="1365" y="0"/>
      <point x="1280" y="-7" type="qcurve"/>
      <point x="1266" y="-7"/>
      <point x="1266" y="69"/>
      <point x="1280" y="69" type="qcurve" smooth="yes"/>
      <point x="1429" y="69"/>
      <point x="1429" y="186" type="qcurve" smooth="yes"/>
      <point x="1425" y="1039" type="line" smooth="yes"/>
      <point x="1425" y="1052"/>
      <point x="1407" y="1052"/>
      <point x="1402" y="1040" type="qcurve" smooth="yes"/>
      <point x="896" y="-6" type="line" smooth="yes"/>
      <point x="888" y="-23"/>
      <point x="860" y="-23"/>
      <point x="852" y="-6" type="qcurve" smooth="yes"/>
      <point x="388" y="1041" type="line" smooth="yes"/>
      <point x="380" y="1058"/>
      <point x="362" y="1058"/>
      <point x="361" y="1041" type="qcurve" smooth="yes"/>
      <point x="310" y="186" type="line"/>
      <point x="310" y="168.5" type="line" smooth="yes"/>
      <point x="310" y="156"/>
      <point x="329" y="104"/>
      <point x="407" y="69"/>
      <point x="468" y="69" type="qcurve" smooth="yes"/>
      <point x="482" y="69"/>
      <point x="482" y="-7"/>
      <point x="468" y="-7" type="qcurve"/>
      <point x="387" y="0"/>
      <point x="155" y="0"/>
      <point x="71" y="-7" type="qcurve"/>
      <point x="58" y="-7"/>
      <point x="58" y="69"/>
      <point x="71" y="69" type="qcurve" smooth="yes"/>
      <point x="221" y="69"/>
    </contour>
  </outline>
</glyph>
<glyph name="N" format="1">
  <advance width="1482"/>
  <unicode hex="004E"/>
  <outline>
    <contour>
      <point x="257" y="186" type="qcurve" smooth="yes"/>
      <point x="257" y="1110" type="line" smooth="yes"/>
      <point x="257" y="1211"/>
      <point x="166" y="1287"/>
      <point x="69" y="1287" type="qcurve" smooth="yes"/>
      <point x="56" y="1287"/>
      <point x="56" y="1363"/>
      <point x="69" y="1363" type="qcurve"/>
      <point x="113" y="1358"/>
      <point x="323" y="1358"/>
      <point x="387" y="1343"/>
      <point x="414" y="1309" type="qcurve" smooth="yes"/>
      <point x="1172" y="332" type="line" smooth="yes"/>
      <point x="1182" y="319"/>
      <point x="1196" y="319" type="qcurve" smooth="yes"/>
      <point x="1219" y="319"/>
      <point x="1219" y="352" type="qcurve" smooth="yes"/>
      <point x="1219" y="1171" type="line" smooth="yes"/>
      <point x="1219" y="1287"/>
      <point x="1048" y="1287" type="qcurve" smooth="yes"/>
      <point x="1034" y="1287"/>
      <point x="1034" y="1363"/>
      <point x="1048" y="1363" type="qcurve"/>
      <point x="1094" y="1358"/>
      <point x="1378" y="1358"/>
      <point x="1423" y="1363" type="qcurve"/>
      <point x="1436" y="1363"/>
      <point x="1436" y="1287"/>
      <point x="1423" y="1287" type="qcurve" smooth="yes"/>
      <point x="1287" y="1287"/>
      <point x="1287" y="1171" type="qcurve" smooth="yes"/>
      <point x="1287" y="4" type="line" smooth="yes"/>
      <point x="1287" y="-21"/>
      <point x="1270" y="-21" type="qcurve" smooth="yes"/>
      <point x="1252" y="-21"/>
      <point x="1228" y="9" type="qcurve" smooth="yes"/>
      <point x="361" y="1104" type="line" smooth="yes"/>
      <point x="350" y="1117"/>
      <point x="328" y="1117"/>
      <point x="328" y="1099" type="qcurve" smooth="yes"/>
      <point x="328" y="186" type="line" smooth="yes"/>
      <point x="328" y="69"/>
      <point x="487" y="69" type="qcurve" smooth="yes"/>
      <point x="500" y="69"/>
      <point x="500" y="-7"/>
      <point x="487" y="-7" type="qcurve"/>
      <point x="406" y="0"/>
      <point x="174" y="0"/>
      <point x="90" y="-7" type="qcurve"/>
      <point x="76" y="-7"/>
      <point x="76" y="69"/>
      <point x="90" y="69" type="qcurve" smooth="yes"/>
      <point x="257" y="69"/>
    </contour>
  </outline>
</glyph>
<glyph name="O" format="1">
  <advance width="1461"/>
  <unicode hex="004F"/>
  <outline>
    <contour>
      <point x="91" y="667" type="qcurve" smooth="yes"/>
      <point x="91" y="930"/>
      <point x="443" y="1385"/>
      <point x="740" y="1385" type="qcurve" smooth="yes"/>
      <point x="1006" y="1385"/>
      <point x="1383" y="969"/>
      <point x="1383" y="663" type="qcurve" smooth="yes"/>
      <point x="1383" y="407"/>
      <point x="1035" y="-27"/>
      <point x="735" y="-27" type="qcurve" smooth="yes"/>
      <point x="445" y="-27"/>
      <point x="91" y="383"/>
    </contour>
    <contour>
      <point x="282" y="726" type="qcurve" smooth="yes"/>
      <point x="282" y="416"/>
      <point x="582" y="48"/>
      <point x="749" y="48" type="qcurve" smooth="yes"/>
      <point x="961" y="48"/>
      <point x="1192" y="394"/>
      <point x="1192" y="647" type="qcurve" smooth="yes"/>
      <point x="1192" y="926"/>
      <point x="901" y="1314"/>
      <point x="727" y="1314" type="qcurve" smooth="yes"/>
      <point x="517" y="1314"/>
      <point x="282" y="952"/>
    </contour>
  </outline>
</glyph>
<glyph name="P" format="1">
  <advance width="1164"/>
  <unicode hex="0050"/>
  <outline>
    <contour>
      <point x="271" y="186" type="qcurve" smooth="yes"/>
      <point x="271" y="1172" type="line" smooth="yes"/>
      <point x="271" y="1287"/>
      <point x="82" y="1287" type="qcurve" smooth="yes"/>
      <point x="69" y="1287"/>
      <point x="69" y="1358"/>
      <point x="82" y="1358" type="qcurve" smooth="yes"/>
      <point x="198" y="1353"/>
      <point x="418" y="1353"/>
      <point x="586" y="1358"/>
      <point x="644" y="1358" type="qcurve" smooth="yes"/>
      <point x="846" y="1358"/>
      <point x="1116" y="1160"/>
      <point x="1116" y="800"/>
      <point x="854" y="596"/>
      <point x="638" y="596" type="qcurve" smooth="yes"/>
      <point x="518" y="596"/>
      <point x="467" y="602"/>
      <point x="453" y="602"/>
      <point x="431" y="594"/>
      <point x="431" y="569" type="qcurve" smooth="yes"/>
      <point x="431" y="186" type="line" smooth="yes"/>
      <point x="431" y="69"/>
      <point x="617" y="69" type="qcurve" smooth="yes"/>
      <point x="630" y="69"/>
      <point x="630" y="-7"/>
      <point x="617" y="-7" type="qcurve"/>
      <point x="540" y="0"/>
      <point x="170" y="0"/>
      <point x="93" y="-7" type="qcurve"/>
      <point x="80" y="-7"/>
      <point x="80" y="68"/>
      <point x="93" y="69" type="qcurve"/>
      <point x="271" y="69"/>
    </contour>
    <contour>
      <point x="431" y="707" type="line" smooth="yes"/>
      <point x="431" y="673"/>
      <point x="518" y="658"/>
      <point x="576" y="658" type="qcurve" smooth="yes"/>
      <point x="944" y="658"/>
      <point x="944" y="984" type="qcurve" smooth="yes"/>
      <point x="944" y="1113"/>
      <point x="738" y="1296"/>
      <point x="567" y="1296" type="qcurve" smooth="yes"/>
      <point x="478" y="1296" type="line" smooth="yes"/>
      <point x="431" y="1296"/>
      <point x="431" y="1265" type="qcurve" smooth="yes"/>
    </contour>
  </outline>
</glyph>
<glyph name="Q" format="1">
  <advance width="1474"/>
  <unicode hex="0051"/>
  <outline>
    <contour>
      <point x="91" y="667" type="qcurve"/>
      <point x="93" y="933"/>
      <point x="446" y="1385"/>
      <point x="740" y="1385" type="qcurve" smooth="yes"/>
      <point x="1019" y="1385"/>
      <point x="1383" y="958"/>
      <point x="1383" y="663" type="qcurve" smooth="yes"/>
      <point x="1383" y="468"/>
      <point x="1168" y="107"/>
      <point x="1022" y="38" type="qcurve" smooth="yes"/>
      <point x="1005" y="30"/>
      <point x="1005" y="4"/>
      <point x="1019" y="-7" type="qcurve" smooth="yes"/>
      <point x="1096" y="-67"/>
      <point x="1425" y="-225"/>
      <point x="1648" y="-284" type="qcurve" smooth="yes"/>
      <point x="1662" y="-288"/>
      <point x="1662" y="-319"/>
      <point x="1655" y="-359"/>
      <point x="1637" y="-359" type="qcurve"/>
      <point x="1062" y="-234"/>
      <point x="501" y="9" type="qcurve" smooth="yes"/>
      <point x="326" y="85"/>
      <point x="91" y="426"/>
    </contour>
    <contour>
      <point x="282" y="708" type="qcurve" smooth="yes"/>
      <point x="282" y="421"/>
      <point x="580" y="47"/>
      <point x="749" y="47" type="qcurve" smooth="yes"/>
      <point x="975" y="47"/>
      <point x="1192" y="407"/>
      <point x="1192" y="664" type="qcurve" smooth="yes"/>
      <point x="1192" y="925"/>
      <point x="912" y="1314"/>
      <point x="733" y="1314" type="qcurve" smooth="yes"/>
      <point x="535" y="1314"/>
      <point x="282" y="990"/>
    </contour>
  </outline>
</glyph>
<glyph name="R" format="1">
  <advance width="1405"/>
  <unicode hex="0052"/>
  <outline>
    <contour>
      <point x="271" y="186" type="qcurve" smooth="yes"/>
      <point x="271" y="1172" type="line" smooth="yes"/>
      <point x="271" y="1282"/>
      <point x="82" y="1282" type="qcurve" smooth="yes"/>
      <point x="68" y="1282"/>
      <point x="68" y="1358"/>
      <point x="82" y="1358" type="qcurve" smooth="yes"/>
      <point x="198" y="1353"/>
      <point x="390" y="1353"/>
      <point x="584" y="1358"/>
      <point x="644" y="1358" type="qcurve" smooth="yes"/>
      <point x="874" y="1358"/>
      <point x="1136" y="1165"/>
      <point x="1136" y="984" type="qcurve" smooth="yes"/>
      <point x="1136" y="707"/>
      <point x="869" y="636" type="qcurve" smooth="yes"/>
      <point x="856" y="632"/>
      <point x="856" y="594"/>
      <point x="1017" y="343"/>
      <point x="1319" y="15"/>
      <point x="1414" y="15" type="qcurve" smooth="yes"/>
      <point x="1428" y="15"/>
      <point x="1428" y="-20"/>
      <point x="1414" y="-21" type="qcurve" smooth="yes"/>
      <point x="1372" y="-25"/>
      <point x="1347" y="-25" type="qcurve" smooth="yes"/>
      <point x="1176" y="-25"/>
      <point x="994" y="110"/>
      <point x="845" y="297"/>
      <point x="673" y="558"/>
      <point x="617" y="596"/>
      <point x="506" y="596"/>
      <point x="462" y="601"/>
      <point x="446" y="601"/>
      <point x="431" y="591"/>
      <point x="431" y="579" type="qcurve" smooth="yes"/>
      <point x="431" y="186" type="line" smooth="yes"/>
      <point x="431" y="69"/>
      <point x="625" y="69" type="qcurve" smooth="yes"/>
      <point x="638" y="69"/>
      <point x="638" y="-7"/>
      <point x="625" y="-7" type="qcurve"/>
      <point x="548" y="0"/>
      <point x="168" y="0"/>
      <point x="91" y="-7" type="qcurve"/>
      <point x="78" y="-7"/>
      <point x="78" y="68"/>
      <point x="91" y="69" type="qcurve"/>
      <point x="271" y="69"/>
    </contour>
    <contour>
      <point x="431" y="705" type="line" smooth="yes"/>
      <point x="431" y="674"/>
      <point x="507" y="658"/>
      <point x="576" y="658" type="qcurve" smooth="yes"/>
      <point x="963" y="658"/>
      <point x="963" y="984" type="qcurve" smooth="yes"/>
      <point x="963" y="1115"/>
      <point x="753" y="1296"/>
      <point x="567" y="1296" type="qcurve" smooth="yes"/>
      <point x="478" y="1296" type="line" smooth="yes"/>
      <point x="431" y="1296"/>
      <point x="431" y="1265" type="qcurve" smooth="yes"/>
    </contour>
  </outline>
</glyph>
<glyph name="S" format="1">
  <advance width="1042"/>
  <unicode hex="0053"/>
  <outline>
    <contour>
      <point x="137" y="1050" type="qcurve" smooth="yes"/>
      <point x="137" y="1194"/>
      <point x="358" y="1385"/>
      <point x="525" y="1385" type="qcurve" smooth="yes"/>
      <point x="629" y="1385"/>
      <point x="802" y="1344"/>
      <point x="828" y="1344"/>
      <point x="831" y="1345" type="qcurve"/>
      <point x="859" y="1244"/>
      <point x="869" y="1087" type="qcurve" smooth="yes"/>
      <point x="869" y="1073"/>
      <point x="836" y="1063"/>
      <point x="804" y="1063"/>
      <point x="800" y="1077" type="qcurve"/>
      <point x="779" y="1187"/>
      <point x="634" y="1318"/>
      <point x="501" y="1318" type="qcurve" smooth="yes"/>
      <point x="401" y="1318"/>
      <point x="277" y="1185"/>
      <point x="277" y="1095" type="qcurve" smooth="yes"/>
      <point x="277" y="862"/>
      <point x="572" y="802" type="qcurve" smooth="yes"/>
      <point x="944" y="726"/>
      <point x="944" y="390" type="qcurve" smooth="yes"/>
      <point x="944" y="200"/>
      <point x="725" y="-27"/>
      <point x="554" y="-27" type="qcurve" smooth="yes"/>
      <point x="434" y="-27"/>
      <point x="291" y="15"/>
      <point x="177" y="73" type="qcurve"/>
      <point x="128" y="228"/>
      <point x="128" y="346" type="qcurve" smooth="yes"/>
      <point x="128" y="357"/>
      <point x="136" y="383"/>
      <point x="196" y="383"/>
      <point x="197" y="374" type="qcurve" smooth="yes"/>
      <point x="206" y="245"/>
      <point x="411" y="48"/>
      <point x="583" y="48" type="qcurve" smooth="yes"/>
      <point x="675" y="48"/>
      <point x="806" y="192"/>
      <point x="806" y="304" type="qcurve" smooth="yes"/>
      <point x="806" y="540"/>
      <point x="542" y="600" type="qcurve"/>
      <point x="138" y="694"/>
    </contour>
  </outline>
</glyph>
<glyph name="T" format="1">
  <advance width="1321"/>
  <unicode hex="0054"/>
  <outline>
    <contour>
      <point x="576" y="186" type="qcurve" smooth="yes"/>
      <point x="576" y="1236" type="line" smooth="yes"/>
      <point x="576" y="1282"/>
      <point x="528" y="1282" type="qcurve" smooth="yes"/>
      <point x="376" y="1282" type="line" smooth="yes"/>
      <point x="111" y="1282"/>
      <point x="111" y="1006" type="qcurve" smooth="yes"/>
      <point x="111" y="992"/>
      <point x="35" y="992"/>
      <point x="35" y="1006" type="qcurve" smooth="yes"/>
      <point x="35" y="1325" type="line" smooth="yes"/>
      <point x="35" y="1358"/>
      <point x="113" y="1358" type="qcurve" smooth="yes"/>
      <point x="214" y="1358"/>
      <point x="540" y="1353"/>
      <point x="772" y="1353"/>
      <point x="1096" y="1358"/>
      <point x="1209" y="1358" type="qcurve" smooth="yes"/>
      <point x="1287" y="1358"/>
      <point x="1287" y="1325" type="qcurve" smooth="yes"/>
      <point x="1287" y="1006" type="line" smooth="yes"/>
      <point x="1287" y="992"/>
      <point x="1211" y="992"/>
      <point x="1211" y="1006" type="qcurve" smooth="yes"/>
      <point x="1211" y="1282"/>
      <point x="949" y="1282" type="qcurve" smooth="yes"/>
      <point x="787" y="1282" type="line" smooth="yes"/>
      <point x="736" y="1282"/>
      <point x="736" y="1236" type="qcurve" smooth="yes"/>
      <point x="736" y="186" type="line" smooth="yes"/>
      <point x="736" y="69"/>
      <point x="925" y="69" type="qcurve" smooth="yes"/>
      <point x="939" y="69"/>
      <point x="939" y="-7"/>
      <point x="925" y="-7" type="qcurve"/>
      <point x="833" y="0"/>
      <point x="471" y="0"/>
      <point x="379" y="-7" type="qcurve"/>
      <point x="365" y="-7"/>
      <point x="365" y="69"/>
      <point x="379" y="69" type="qcurve" smooth="yes"/>
      <point x="576" y="69"/>
    </contour>
  </outline>
</glyph>
<glyph name="U" format="1">
  <advance width="1497"/>
  <unicode hex="0055"/>
  <outline>
    <contour>
      <point x="256" y="539" type="qcurve" smooth="yes"/>
      <point x="256" y="1172" type="line" smooth="yes"/>
      <point x="256" y="1287"/>
      <point x="71" y="1287" type="qcurve" smooth="yes"/>
      <point x="58" y="1287"/>
      <point x="58" y="1363"/>
      <point x="71" y="1363" type="qcurve"/>
      <point x="115" y="1358"/>
      <point x="579" y="1358"/>
      <point x="625" y="1363" type="qcurve"/>
      <point x="638" y="1363"/>
      <point x="638" y="1287"/>
      <point x="625" y="1287" type="qcurve" smooth="yes"/>
      <point x="419" y="1287"/>
      <point x="419" y="1172" type="qcurve" smooth="yes"/>
      <point x="419" y="541" type="line" smooth="yes"/>
      <point x="419" y="240"/>
      <point x="628" y="48"/>
      <point x="783" y="48" type="qcurve" smooth="yes"/>
      <point x="976" y="48"/>
      <point x="1179" y="249"/>
      <point x="1179" y="487" type="qcurve" smooth="yes"/>
      <point x="1179" y="1172" type="line" smooth="yes"/>
      <point x="1179" y="1287"/>
      <point x="991" y="1287" type="qcurve" smooth="yes"/>
      <point x="978" y="1287"/>
      <point x="978" y="1363"/>
      <point x="991" y="1363" type="qcurve"/>
      <point x="1036" y="1358"/>
      <point x="1424" y="1358"/>
      <point x="1469" y="1363" type="qcurve"/>
      <point x="1482" y="1363"/>
      <point x="1482" y="1287"/>
      <point x="1469" y="1287" type="qcurve" smooth="yes"/>
      <point x="1289" y="1287"/>
      <point x="1289" y="1172" type="qcurve" smooth="yes"/>
      <point x="1289" y="729" type="line" smooth="yes"/>
      <point x="1289" y="377"/>
      <point x="1184" y="130"/>
      <point x="957" y="-27"/>
      <point x="758" y="-27" type="qcurve" smooth="yes"/>
      <point x="567" y="-27"/>
      <point x="348" y="98"/>
      <point x="256" y="349"/>
    </contour>
  </outline>
</glyph>
<glyph name="W" format="1">
  <advance width="1971"/>
  <unicode hex="0057"/>
  <outline>
    <contour>
      <point x="180" y="1172" type="line" smooth="yes"/>
      <point x="129" y="1287"/>
      <point x="33" y="1287" type="qcurve" smooth="yes"/>
      <point x="20" y="1287"/>
      <point x="20" y="1363"/>
      <point x="33" y="1363" type="qcurve"/>
      <point x="78" y="1358"/>
      <point x="414" y="1358"/>
      <point x="461" y="1363" type="qcurve"/>
      <point x="474" y="1363"/>
      <point x="474" y="1287"/>
      <point x="461" y="1287" type="qcurve" smooth="yes"/>
      <point x="348" y="1287"/>
      <point x="348" y="1230" type="qcurve" smooth="yes"/>
      <point x="348" y="1206"/>
      <point x="363" y="1172" type="qcurve" smooth="yes"/>
      <point x="758" y="292" type="line" smooth="yes"/>
      <point x="767" y="273"/>
      <point x="786" y="273"/>
      <point x="795" y="294" type="qcurve" smooth="yes"/>
      <point x="940" y="611" type="line" smooth="yes"/>
      <point x="948" y="629"/>
      <point x="948" y="672"/>
      <point x="938" y="695" type="qcurve" smooth="yes"/>
      <point x="724" y="1172" type="line" smooth="yes"/>
      <point x="672" y="1287"/>
      <point x="587" y="1287" type="qcurve" smooth="yes"/>
      <point x="574" y="1287"/>
      <point x="574" y="1363"/>
      <point x="587" y="1363" type="qcurve"/>
      <point x="631" y="1358"/>
      <point x="959" y="1358"/>
      <point x="1005" y="1363" type="qcurve"/>
      <point x="1018" y="1363"/>
      <point x="1018" y="1287"/>
      <point x="1005" y="1287" type="qcurve" smooth="yes"/>
      <point x="892" y="1287"/>
      <point x="892" y="1232" type="qcurve" smooth="yes"/>
      <point x="892" y="1208"/>
      <point x="908" y="1172" type="qcurve" smooth="yes"/>
      <point x="1024" y="913" type="line" smooth="yes"/>
      <point x="1035" y="890"/>
      <point x="1051" y="890"/>
      <point x="1062" y="915" type="qcurve" smooth="yes"/>
      <point x="1175" y="1163" type="line" smooth="yes"/>
      <point x="1192" y="1200"/>
      <point x="1192" y="1226" type="qcurve" smooth="yes"/>
      <point x="1192" y="1287"/>
      <point x="1092" y="1287" type="qcurve" smooth="yes"/>
      <point x="1078" y="1287"/>
      <point x="1078" y="1363"/>
      <point x="1092" y="1363" type="qcurve"/>
      <point x="1138" y="1358"/>
      <point x="1426" y="1358"/>
      <point x="1471" y="1363" type="qcurve"/>
      <point x="1484" y="1363"/>
      <point x="1484" y="1287"/>
      <point x="1471" y="1287" type="qcurve" smooth="yes"/>
      <point x="1322" y="1287"/>
      <point x="1283" y="1201" type="qcurve" smooth="yes"/>
      <point x="1108" y="813" type="line" smooth="yes"/>
      <point x="1097" y="788"/>
      <point x="1097" y="751"/>
      <point x="1104" y="735" type="qcurve" smooth="yes"/>
      <point x="1303" y="292" type="line"/>
      <point x="1313" y="273"/>
      <point x="1331" y="273"/>
      <point x="1339" y="294" type="qcurve"/>
      <point x="1735" y="1163" type="line" smooth="yes"/>
      <point x="1752" y="1200"/>
      <point x="1752" y="1225" type="qcurve" smooth="yes"/>
      <point x="1752" y="1287"/>
      <point x="1653" y="1287" type="qcurve" smooth="yes"/>
      <point x="1640" y="1287"/>
      <point x="1640" y="1363"/>
      <point x="1653" y="1363" type="qcurve"/>
      <point x="1700" y="1358"/>
      <point x="1966" y="1358"/>
      <point x="2012" y="1363" type="qcurve"/>
      <point x="2026" y="1363"/>
      <point x="2026" y="1287"/>
      <point x="2012" y="1287" type="qcurve" smooth="yes"/>
      <point x="1882" y="1287"/>
      <point x="1843" y="1201" type="qcurve" smooth="yes"/>
      <point x="1301" y="7" type="line" smooth="yes"/>
      <point x="1284" y="-29"/>
      <point x="1262" y="-29"/>
      <point x="1247" y="6" type="qcurve" smooth="yes"/>
      <point x="1019" y="518" type="line" smooth="yes"/>
      <point x="1011" y="534"/>
      <point x="995" y="534"/>
      <point x="988" y="518" type="qcurve" smooth="yes"/>
      <point x="756" y="6" type="line" smooth="yes"/>
      <point x="741" y="-29"/>
      <point x="720" y="-29"/>
      <point x="703" y="6" type="qcurve"/>
    </contour>
  </outline>
</glyph>
<glyph name="Y" format="1">
  <advance width="1235"/>
  <unicode hex="0059"/>
  <outline>
    <contour>
      <point x="175" y="1172" type="line" smooth="yes"/>
      <point x="105" y="1287"/>
      <point x="-13" y="1287" type="qcurve" smooth="yes"/>
      <point x="-26" y="1287"/>
      <point x="-26" y="1363"/>
      <point x="-13" y="1363" type="qcurve"/>
      <point x="32" y="1358"/>
      <point x="416" y="1358"/>
      <point x="463" y="1363" type="qcurve"/>
      <point x="476" y="1363"/>
      <point x="476" y="1287"/>
      <point x="463" y="1287" type="qcurve" smooth="yes"/>
      <point x="342" y="1287"/>
      <point x="342" y="1230" type="qcurve" smooth="yes"/>
      <point x="342" y="1207"/>
      <point x="363" y="1172" type="qcurve" smooth="yes"/>
      <point x="644" y="700" type="line" smooth="yes"/>
      <point x="652" y="686"/>
      <point x="667" y="686"/>
      <point x="676" y="700" type="qcurve" smooth="yes"/>
      <point x="974" y="1163" type="line" smooth="yes"/>
      <point x="1001" y="1205"/>
      <point x="1001" y="1234" type="qcurve" smooth="yes"/>
      <point x="1001" y="1287"/>
      <point x="890" y="1287" type="qcurve" smooth="yes"/>
      <point x="876" y="1287"/>
      <point x="876" y="1363"/>
      <point x="890" y="1363" type="qcurve"/>
      <point x="936" y="1358"/>
      <point x="1240" y="1358"/>
      <point x="1285" y="1363" type="qcurve"/>
      <point x="1298" y="1363"/>
      <point x="1298" y="1287"/>
      <point x="1285" y="1287" type="qcurve" smooth="yes"/>
      <point x="1146" y="1287"/>
      <point x="1074" y="1178" type="qcurve" smooth="yes"/>
      <point x="766" y="705" type="line" smooth="yes"/>
      <point x="701" y="605"/>
      <point x="689" y="546"/>
      <point x="689" y="489" type="qcurve" smooth="yes"/>
      <point x="689" y="186" type="line" smooth="yes"/>
      <point x="689" y="69"/>
      <point x="853" y="69" type="qcurve" smooth="yes"/>
      <point x="866" y="69"/>
      <point x="866" y="-7"/>
      <point x="853" y="-7" type="qcurve"/>
      <point x="778" y="0"/>
      <point x="440" y="0"/>
      <point x="365" y="-7" type="qcurve"/>
      <point x="352" y="-7"/>
      <point x="352" y="69"/>
      <point x="365" y="69" type="qcurve" smooth="yes"/>
      <point x="529" y="69"/>
      <point x="529" y="186" type="qcurve" smooth="yes"/>
      <point x="529" y="487" type="line" smooth="yes"/>
      <point x="529" y="588"/>
      <point x="501" y="634" type="qcurve" smooth="yes"/>
    </contour>
  </outline>
</glyph>
<glyph name="Z" format="1">
  <advance width="1241"/>
  <unicode hex="005A"/>
  <outline>
    <contour>
      <point x="83" y="24" type="qcurve" smooth="yes"/>
      <point x="83" y="37"/>
      <point x="93" y="51" type="qcurve" smooth="yes"/>
      <point x="968" y="1249" type="line" smooth="yes"/>
      <point x="977" y="1261"/>
      <point x="977" y="1270" type="qcurve" smooth="yes"/>
      <point x="977" y="1291"/>
      <point x="946" y="1291" type="qcurve" smooth="yes"/>
      <point x="392" y="1291" type="line" smooth="yes"/>
      <point x="337" y="1291"/>
      <point x="243" y="1169"/>
      <point x="194" y="1044"/>
      <point x="175" y="977" type="qcurve" smooth="yes"/>
      <point x="173" y="970"/>
      <point x="129" y="970"/>
      <point x="126" y="984" type="qcurve"/>
      <point x="159" y="1197"/>
      <point x="159" y="1347" type="qcurve" smooth="yes"/>
      <point x="159" y="1365"/>
      <point x="196" y="1365" type="qcurve"/>
      <point x="293" y="1356"/>
      <point x="343" y="1356" type="qcurve" smooth="yes"/>
      <point x="824" y="1356" type="line" smooth="yes"/>
      <point x="976" y="1356"/>
      <point x="1192" y="1364" type="qcurve" smooth="yes"/>
      <point x="1217" y="1364"/>
      <point x="1217" y="1336"/>
      <point x="1203" y="1318" type="qcurve" smooth="yes"/>
      <point x="340" y="118" type="line" smooth="yes"/>
      <point x="331" y="106"/>
      <point x="331" y="94" type="qcurve" smooth="yes"/>
      <point x="331" y="69"/>
      <point x="361" y="69" type="qcurve" smooth="yes"/>
      <point x="796" y="69"/>
      <point x="1001" y="82" type="qcurve" smooth="yes"/>
      <point x="1081" y="87"/>
      <point x="1203" y="319"/>
      <point x="1211" y="352" type="qcurve"/>
      <point x="1214" y="359"/>
      <point x="1230" y="359"/>
      <point x="1261" y="346"/>
      <point x="1261" y="336" type="qcurve"/>
      <point x="1213" y="100"/>
      <point x="1213" y="-17" type="qcurve" smooth="yes"/>
      <point x="1213" y="-30"/>
      <point x="1198" y="-33" type="qcurve"/>
      <point x="1163" y="-23"/>
      <point x="1143" y="-21" type="qcurve" smooth="yes"/>
      <point x="956" y="0"/>
      <point x="483" y="0" type="qcurve" smooth="yes"/>
      <point x="118" y="0" type="line" smooth="yes"/>
      <point x="83" y="0"/>
    </contour>
  </outline>
</glyph>
<glyph name="backslash" format="1">
  <advance width="717"/>
  <unicode hex="005C"/>
  <outline>
    <contour>
      <point x="713" y="25" type="line"/>
      <point x="713" y="18" type="line"/>
      <point x="708" y="9"/>
      <point x="684" y="-2" type="qcurve" smooth="yes"/>
      <point x="648" y="-18"/>
      <point x="629" y="-18" type="qcurve" smooth="yes"/>
      <point x="614" y="-18"/>
      <point x="612" y="-12" type="qcurve" smooth="yes"/>
      <point x="4" y="1432" type="line"/>
      <point x="2" y="1434"/>
      <point x="2" y="1438" type="qcurve" smooth="yes"/>
      <point x="2" y="1452"/>
      <point x="32" y="1468" type="qcurve" smooth="yes"/>
      <point x="64" y="1483"/>
      <point x="88" y="1483" type="qcurve" smooth="yes"/>
      <point x="104" y="1483"/>
      <point x="106" y="1475" type="qcurve" smooth="yes"/>
    </contour>
  </outline>
</glyph>
<glyph name="bracketright" format="1">
  <advance width="739"/>
  <unicode hex="005D"/>
  <outline>
    <contour>
      <point x="452" y="-332" type="line" smooth="yes"/>
      <point x="452" y="-354"/>
      <point x="430" y="-354" type="qcurve" smooth="yes"/>
      <point x="53" y="-354" type="line" smooth="yes"/>
      <point x="30" y="-354"/>
      <point x="30" y="-276"/>
      <point x="51" y="-276" type="qcurve" smooth="yes"/>
      <point x="301" y="-276" type="line" smooth="yes"/>
      <point x="313" y="-276"/>
      <point x="313" y="-252" type="qcurve" smooth="yes"/>
      <point x="313" y="1430" type="line" smooth="yes"/>
      <point x="313" y="1452"/>
      <point x="295" y="1452" type="qcurve" smooth="yes"/>
      <point x="71" y="1452" type="line" smooth="yes"/>
      <point x="47" y="1452"/>
      <point x="47" y="1530"/>
      <point x="67" y="1530" type="qcurve" smooth="yes"/>
      <point x="432" y="1530" type="line" smooth="yes"/>
      <point x="452" y="1530"/>
      <point x="452" y="1511" type="qcurve" smooth="yes"/>
    </contour>
  </outline>
</glyph>
<glyph name="c" format="1">
  <advance width="817"/>
  <unicode hex="0063"/>
  <outline>
    <contour>
      <point x="743" y="152" type="qcurve" smooth="yes"/>
      <point x="754" y="157"/>
      <point x="781" y="116"/>
      <point x="781" y="108" type="qcurve" smooth="yes"/>
      <point x="781" y="102"/>
      <point x="776" y="97" type="qcurve" smooth="yes"/>
      <point x="750" y="74"/>
      <point x="588" y="-22"/>
      <point x="446" y="-23" type="qcurve"/>
      <point x="300" y="-23"/>
      <point x="86" y="211"/>
      <point x="86" y="396" type="qcurve" smooth="yes"/>
      <point x="86" y="581"/>
      <point x="330" y="870"/>
      <point x="523" y="870" type="qcurve" smooth="yes"/>
      <point x="719" y="870"/>
      <point x="756" y="797" type="qcurve" smooth="yes"/>
      <point x="762" y="785"/>
      <point x="762" y="756" type="qcurve" smooth="yes"/>
      <point x="762" y="737"/>
      <point x="718" y="682"/>
      <point x="684" y="682"/>
      <point x="674" y="696" type="qcurve" smooth="yes"/>
      <point x="596" y="803"/>
      <point x="501" y="803" type="qcurve" smooth="yes"/>
      <point x="406" y="803"/>
      <point x="250" y="598"/>
      <point x="249" y="440" type="qcurve" smooth="yes"/>
      <point x="249" y="282"/>
      <point x="428" y="90"/>
      <point x="530" y="90" type="qcurve" smooth="yes"/>
      <point x="607" y="90"/>
    </contour>
  </outline>
</glyph>
<glyph name="e" format="1">
  <advance width="838"/>
  <unicode hex="0065"/>
  <outline>
    <contour>
      <point x="85" y="431" type="qcurve" smooth="yes"/>
      <point x="85" y="609"/>
      <point x="312" y="870"/>
      <point x="453" y="870" type="qcurve" smooth="yes"/>
      <point x="594" y="870"/>
      <point x="768" y="674"/>
      <point x="768" y="550"/>
      <point x="717" y="549" type="qcurve"/>
      <point x="268" y="549" type="line" smooth="yes"/>
      <point x="238" y="549"/>
      <point x="238" y="483" type="qcurve" smooth="yes"/>
      <point x="238" y="323"/>
      <point x="391" y="94"/>
      <point x="526" y="94" type="qcurve" smooth="yes"/>
      <point x="627" y="94"/>
      <point x="727" y="154" type="qcurve" smooth="yes"/>
      <point x="732" y="157"/>
      <point x="738" y="157" type="qcurve" smooth="yes"/>
      <point x="750" y="157"/>
      <point x="759" y="146" type="qcurve" smooth="yes"/>
      <point x="766" y="139"/>
      <point x="766" y="125" type="qcurve" smooth="yes"/>
      <point x="766" y="120"/>
      <point x="762" y="117" type="qcurve" smooth="yes"/>
      <point x="604" y="-23"/>
      <point x="451" y="-23" type="qcurve" smooth="yes"/>
      <point x="298" y="-23"/>
      <point x="85" y="253"/>
    </contour>
    <contour>
      <point x="261" y="630" type="qcurve" smooth="yes"/>
      <point x="261" y="616"/>
      <point x="285" y="616" type="qcurve" smooth="yes"/>
      <point x="606" y="616" type="line" smooth="yes"/>
      <point x="621" y="616"/>
      <point x="621" y="633" type="qcurve" smooth="yes"/>
      <point x="621" y="677"/>
      <point x="512" y="811"/>
      <point x="453" y="811" type="qcurve" smooth="yes"/>
      <point x="388" y="811"/>
      <point x="293" y="724"/>
      <point x="264" y="645" type="qcurve" smooth="yes"/>
      <point x="261" y="637"/>
    </contour>
  </outline>
</glyph>
<glyph name="f" format="1">
  <advance width="584"/>
  <unicode hex="0066"/>
  <outline>
    <contour>
      <point x="201" y="127" type="qcurve" smooth="yes"/>
      <point x="201" y="727" type="line" smooth="yes"/>
      <point x="201" y="764"/>
      <point x="164" y="764" type="qcurve" smooth="yes"/>
      <point x="90" y="764" type="line" smooth="yes"/>
      <point x="75" y="764"/>
      <point x="75" y="819"/>
      <point x="90" y="819" type="qcurve" smooth="yes"/>
      <point x="201" y="819"/>
      <point x="201" y="905" type="qcurve" smooth="yes"/>
      <point x="201" y="924" type="line" smooth="yes"/>
      <point x="201" y="1174"/>
      <point x="483" y="1487"/>
      <point x="672" y="1487" type="qcurve" smooth="yes"/>
      <point x="725" y="1487"/>
      <point x="768" y="1474" type="qcurve" smooth="yes"/>
      <point x="810" y="1461"/>
      <point x="834" y="1435" type="qcurve" smooth="yes"/>
      <point x="858" y="1410"/>
      <point x="858" y="1368" type="qcurve" smooth="yes"/>
      <point x="858" y="1338"/>
      <point x="803" y="1284"/>
      <point x="772" y="1284" type="qcurve" smooth="yes"/>
      <point x="716" y="1284"/>
      <point x="625" y="1393"/>
      <point x="571" y="1393" type="qcurve" smooth="yes"/>
      <point x="465" y="1393"/>
      <point x="354" y="1223"/>
      <point x="354" y="1101" type="qcurve" smooth="yes"/>
      <point x="354" y="887" type="line" smooth="yes"/>
      <point x="354" y="850"/>
      <point x="391" y="850" type="qcurve" smooth="yes"/>
      <point x="594" y="850" type="line" smooth="yes"/>
      <point x="609" y="850"/>
      <point x="609" y="764"/>
      <point x="594" y="764" type="qcurve" smooth="yes"/>
      <point x="391" y="764" type="line" smooth="yes"/>
      <point x="354" y="764"/>
      <point x="354" y="727" type="qcurve" smooth="yes"/>
      <point x="354" y="127" type="line" smooth="yes"/>
      <point x="354" y="49"/>
      <point x="502" y="49" type="qcurve" smooth="yes"/>
      <point x="516" y="49"/>
      <point x="516" y="-8"/>
      <point x="502" y="-8" type="qcurve"/>
      <point x="417" y="0"/>
      <point x="165" y="0"/>
      <point x="84" y="-8" type="qcurve"/>
      <point x="70" y="-8"/>
      <point x="70" y="49"/>
      <point x="84" y="49" type="qcurve" smooth="yes"/>
      <point x="201" y="49"/>
    </contour>
  </outline>
</glyph>
<glyph name="g" format="1">
  <advance width="948"/>
  <unicode hex="0067"/>
  <outline>
    <contour>
      <point x="59" y="-308" type="qcurve" smooth="yes"/>
      <point x="59" y="-208"/>
      <point x="246" y="-74" type="qcurve"/>
      <point x="262" y="-60"/>
      <point x="262" y="-52" type="qcurve"/>
      <point x="260" y="-41"/>
      <point x="242" y="-37" type="qcurve"/>
      <point x="106" y="2"/>
      <point x="106" y="111" type="qcurve" smooth="yes"/>
      <point x="106" y="162"/>
      <point x="220" y="242" type="qcurve" smooth="yes"/>
      <point x="230" y="249"/>
      <point x="257" y="265"/>
      <point x="257" y="289"/>
      <point x="242" y="299" type="qcurve" smooth="yes"/>
      <point x="96" y="392"/>
      <point x="96" y="538" type="qcurve" smooth="yes"/>
      <point x="96" y="684"/>
      <point x="297" y="870"/>
      <point x="424" y="870" type="qcurve" smooth="yes"/>
      <point x="551" y="870"/>
      <point x="725" y="793"/>
      <point x="776" y="793" type="qcurve" smooth="yes"/>
      <point x="948" y="793" type="line" smooth="yes"/>
      <point x="963" y="793"/>
      <point x="963" y="707"/>
      <point x="948" y="707" type="qcurve" smooth="yes"/>
      <point x="782" y="707" type="line"/>
      <point x="786" y="670"/>
      <point x="786" y="598" type="qcurve" smooth="yes"/>
      <point x="786" y="453"/>
      <point x="598" y="260"/>
      <point x="430" y="260" type="qcurve" smooth="yes"/>
      <point x="397" y="260"/>
      <point x="354" y="264" type="qcurve"/>
      <point x="333" y="264"/>
      <point x="311" y="250" type="qcurve" smooth="yes"/>
      <point x="242" y="205"/>
      <point x="242" y="150" type="qcurve" smooth="yes"/>
      <point x="242" y="70"/>
      <point x="391" y="70" type="qcurve" smooth="yes"/>
      <point x="645" y="70" type="line" smooth="yes"/>
      <point x="942" y="70"/>
      <point x="942" y="-158" type="qcurve" smooth="yes"/>
      <point x="942" y="-328"/>
      <point x="623" y="-559"/>
      <point x="428" y="-559" type="qcurve" smooth="yes"/>
      <point x="247" y="-559"/>
      <point x="59" y="-418"/>
    </contour>
    <contour>
      <point x="219" y="-252" type="qcurve" smooth="yes"/>
      <point x="219" y="-350"/>
      <point x="365" y="-469"/>
      <point x="503" y="-469" type="qcurve" smooth="yes"/>
      <point x="641" y="-469"/>
      <point x="819" y="-336"/>
      <point x="819" y="-242" type="qcurve" smooth="yes"/>
      <point x="819" y="-55"/>
      <point x="575" y="-55" type="qcurve" smooth="yes"/>
      <point x="391" y="-55" type="line" smooth="yes"/>
      <point x="356" y="-55"/>
      <point x="330" y="-74" type="qcurve" smooth="yes"/>
      <point x="219" y="-154"/>
    </contour>
    <contour>
      <point x="250" y="569" type="qcurve" smooth="yes"/>
      <point x="250" y="460"/>
      <point x="382" y="319"/>
      <point x="461" y="319" type="qcurve" smooth="yes"/>
      <point x="631" y="319"/>
      <point x="631" y="543" type="qcurve" smooth="yes"/>
      <point x="631" y="715"/>
      <point x="545" y="780" type="qcurve" smooth="yes"/>
      <point x="504" y="811"/>
      <point x="435" y="811" type="qcurve" smooth="yes"/>
      <point x="366" y="811"/>
      <point x="250" y="678"/>
    </contour>
  </outline>
</glyph>
<glyph name="h" format="1">
  <advance width="1094"/>
  <unicode hex="0068"/>
  <outline>
    <contour>
      <point x="921" y="127" type="line" smooth="yes"/>
      <point x="921" y="49"/>
      <point x="1048" y="49" type="qcurve" smooth="yes"/>
      <point x="1062" y="49"/>
      <point x="1062" y="-8"/>
      <point x="1048" y="-8" type="qcurve"/>
      <point x="966" y="0"/>
      <point x="734" y="0"/>
      <point x="655" y="-8" type="qcurve"/>
      <point x="641" y="-8"/>
      <point x="641" y="49"/>
      <point x="655" y="49" type="qcurve" smooth="yes"/>
      <point x="768" y="49"/>
      <point x="768" y="127" type="qcurve" smooth="yes"/>
      <point x="768" y="547" type="line" smooth="yes"/>
      <point x="768" y="644"/>
      <point x="650" y="780"/>
      <point x="566" y="780" type="qcurve" smooth="yes"/>
      <point x="482" y="780"/>
      <point x="354" y="678"/>
      <point x="354" y="629" type="qcurve" smooth="yes"/>
      <point x="354" y="127" type="line" smooth="yes"/>
      <point x="354" y="49"/>
      <point x="465" y="49" type="qcurve" smooth="yes"/>
      <point x="479" y="49"/>
      <point x="479" y="-8"/>
      <point x="465" y="-8" type="qcurve"/>
      <point x="360" y="0"/>
      <point x="160" y="0"/>
      <point x="80" y="-8" type="qcurve"/>
      <point x="66" y="-8"/>
      <point x="66" y="49"/>
      <point x="80" y="49" type="qcurve" smooth="yes"/>
      <point x="201" y="49"/>
      <point x="201" y="127" type="qcurve" smooth="yes"/>
      <point x="201" y="1174" type="line" smooth="yes"/>
      <point x="201" y="1313"/>
      <point x="109" y="1313" type="qcurve" smooth="yes"/>
      <point x="92" y="1313"/>
      <point x="92" y="1368"/>
      <point x="109" y="1368" type="qcurve" smooth="yes"/>
      <point x="142" y="1368"/>
      <point x="271" y="1436"/>
      <point x="304" y="1462" type="qcurve" smooth="yes"/>
      <point x="336" y="1488"/>
      <point x="360" y="1488"/>
      <point x="360" y="1470"/>
      <point x="354" y="1363"/>
      <point x="354" y="1305" type="qcurve" smooth="yes"/>
      <point x="354" y="791" type="line" smooth="yes"/>
      <point x="354" y="766"/>
      <point x="370" y="766" type="qcurve" smooth="yes"/>
      <point x="379" y="766"/>
      <point x="387" y="774" type="qcurve" smooth="yes"/>
      <point x="478" y="870"/>
      <point x="628" y="870" type="qcurve" smooth="yes"/>
      <point x="773" y="870"/>
      <point x="921" y="659"/>
      <point x="921" y="549" type="qcurve" smooth="yes"/>
    </contour>
  </outline>
</glyph>
<glyph name="i" format="1">
  <advance width="524"/>
  <unicode hex="0069"/>
  <outline>
    <contour>
      <point x="467" y="-8" type="qcurve"/>
      <point x="391" y="0"/>
      <point x="169" y="0"/>
      <point x="88" y="-8" type="qcurve"/>
      <point x="74" y="-8"/>
      <point x="74" y="49"/>
      <point x="88" y="49" type="qcurve" smooth="yes"/>
      <point x="201" y="49"/>
      <point x="201" y="127" type="qcurve" smooth="yes"/>
      <point x="201" y="571" type="line" smooth="yes"/>
      <point x="201" y="709"/>
      <point x="109" y="709" type="qcurve" smooth="yes"/>
      <point x="92" y="709"/>
      <point x="92" y="765"/>
      <point x="109" y="765" type="qcurve" smooth="yes"/>
      <point x="142" y="765"/>
      <point x="271" y="833"/>
      <point x="337" y="883"/>
      <point x="348" y="883" type="qcurve" smooth="yes"/>
      <point x="360" y="883"/>
      <point x="360" y="867" type="qcurve" smooth="yes"/>
      <point x="354" y="759"/>
      <point x="354" y="701" type="qcurve" smooth="yes"/>
      <point x="354" y="127" type="line" smooth="yes"/>
      <point x="354" y="49"/>
      <point x="467" y="49" type="qcurve" smooth="yes"/>
      <point x="481" y="49"/>
      <point x="481" y="-8"/>
    </contour>
    <contour>
      <point x="150" y="1202"/>
      <point x="211" y="1263"/>
      <point x="301" y="1263"/>
      <point x="365" y="1202"/>
      <point x="365" y="1112"/>
      <point x="301" y="1048"/>
      <point x="211" y="1048"/>
      <point x="150" y="1112"/>
    </contour>
  </outline>
</glyph>
<glyph name="j" format="1">
  <advance width="518"/>
  <unicode hex="006A"/>
  <outline>
    <contour>
      <point x="365" y="1112"/>
      <point x="301" y="1048"/>
      <point x="211" y="1048"/>
      <point x="150" y="1112"/>
      <point x="150" y="1202"/>
      <point x="211" y="1263"/>
      <point x="301" y="1263"/>
      <point x="365" y="1202"/>
    </contour>
    <contour>
      <point x="358" y="59" type="line" smooth="yes"/>
      <point x="358" y="-270"/>
      <point x="248" y="-424" type="qcurve" smooth="yes"/>
      <point x="155" y="-555"/>
      <point x="0" y="-555" type="qcurve" smooth="yes"/>
      <point x="-50" y="-555"/>
      <point x="-125" y="-499"/>
      <point x="-125" y="-459" type="qcurve" smooth="yes"/>
      <point x="-125" y="-427"/>
      <point x="-76" y="-389"/>
      <point x="-47" y="-389" type="qcurve" smooth="yes"/>
      <point x="2" y="-389"/>
      <point x="81" y="-467"/>
      <point x="106" y="-467" type="qcurve" smooth="yes"/>
      <point x="205" y="-467"/>
      <point x="205" y="-254" type="qcurve" smooth="yes"/>
      <point x="205" y="571" type="line" smooth="yes"/>
      <point x="205" y="709"/>
      <point x="113" y="709" type="qcurve" smooth="yes"/>
      <point x="96" y="709"/>
      <point x="96" y="765"/>
      <point x="113" y="765" type="qcurve" smooth="yes"/>
      <point x="146" y="765"/>
      <point x="275" y="833"/>
      <point x="341" y="883"/>
      <point x="352" y="883" type="qcurve" smooth="yes"/>
      <point x="364" y="883"/>
      <point x="364" y="867" type="qcurve" smooth="yes"/>
      <point x="358" y="759"/>
      <point x="358" y="701" type="qcurve" smooth="yes"/>
    </contour>
  </outline>
</glyph>
<glyph name="l" format="1">
  <advance width="524"/>
  <unicode hex="006C"/>
  <outline>
    <contour>
      <point x="354" y="127" type="line" smooth="yes"/>
      <point x="354" y="49"/>
      <point x="473" y="49" type="qcurve" smooth="yes"/>
      <point x="487" y="49"/>
      <point x="487" y="-8"/>
      <point x="473" y="-8" type="qcurve"/>
      <point x="396" y="0"/>
      <point x="164" y="0"/>
      <point x="84" y="-8" type="qcurve"/>
      <point x="70" y="-8"/>
      <point x="70" y="49"/>
      <point x="84" y="49" type="qcurve" smooth="yes"/>
      <point x="201" y="49"/>
      <point x="201" y="127" type="qcurve" smooth="yes"/>
      <point x="201" y="1171" type="line" smooth="yes"/>
      <point x="201" y="1311"/>
      <point x="109" y="1311" type="qcurve" smooth="yes"/>
      <point x="92" y="1311"/>
      <point x="92" y="1366"/>
      <point x="109" y="1366" type="qcurve" smooth="yes"/>
      <point x="155" y="1366"/>
      <point x="274" y="1440" type="qcurve" smooth="yes"/>
      <point x="308" y="1461"/>
      <point x="340" y="1485"/>
      <point x="360" y="1485"/>
      <point x="360" y="1470" type="qcurve"/>
      <point x="354" y="1413"/>
      <point x="354" y="1373" type="qcurve" smooth="yes"/>
    </contour>
  </outline>
</glyph>
<glyph name="m" format="1">
  <advance width="1607"/>
  <unicode hex="006D"/>
  <outline>
    <contour>
      <point x="80" y="-8" type="qcurve"/>
      <point x="66" y="-8"/>
      <point x="66" y="49"/>
      <point x="80" y="49" type="qcurve" smooth="yes"/>
      <point x="201" y="49"/>
      <point x="201" y="127" type="qcurve" smooth="yes"/>
      <point x="201" y="578" type="line" smooth="yes"/>
      <point x="201" y="702"/>
      <point x="117" y="702" type="qcurve" smooth="yes"/>
      <point x="100" y="702"/>
      <point x="100" y="758"/>
      <point x="117" y="758" type="qcurve" smooth="yes"/>
      <point x="142" y="758"/>
      <point x="259" y="827"/>
      <point x="330" y="883"/>
      <point x="343" y="883" type="qcurve" smooth="yes"/>
      <point x="358" y="883"/>
      <point x="358" y="856"/>
      <point x="353" y="798"/>
      <point x="353" y="752"/>
      <point x="365" y="752" type="qcurve" smooth="yes"/>
      <point x="374" y="752"/>
      <point x="382" y="760" type="qcurve" smooth="yes"/>
      <point x="486" y="870"/>
      <point x="634" y="870" type="qcurve" smooth="yes"/>
      <point x="766" y="870"/>
      <point x="850" y="748" type="qcurve" smooth="yes"/>
      <point x="861" y="732"/>
      <point x="878" y="732"/>
      <point x="889" y="745" type="qcurve" smooth="yes"/>
      <point x="1002" y="870"/>
      <point x="1163" y="870" type="qcurve" smooth="yes"/>
      <point x="1285" y="870"/>
      <point x="1404" y="734"/>
      <point x="1437" y="633"/>
      <point x="1437" y="565" type="qcurve" smooth="yes"/>
      <point x="1437" y="127" type="line" smooth="yes"/>
      <point x="1437" y="49"/>
      <point x="1553" y="49" type="qcurve" smooth="yes"/>
      <point x="1567" y="49"/>
      <point x="1567" y="-8"/>
      <point x="1553" y="-8" type="qcurve"/>
      <point x="1476" y="0"/>
      <point x="1252" y="0"/>
      <point x="1174" y="-8" type="qcurve"/>
      <point x="1160" y="-8"/>
      <point x="1160" y="49"/>
      <point x="1174" y="49" type="qcurve" smooth="yes"/>
      <point x="1284" y="49"/>
      <point x="1284" y="127" type="qcurve" smooth="yes"/>
      <point x="1284" y="580" type="line" smooth="yes"/>
      <point x="1284" y="697"/>
      <point x="1171" y="780"/>
      <point x="1085" y="780" type="qcurve" smooth="yes"/>
      <point x="998" y="780"/>
      <point x="895" y="616"/>
      <point x="895" y="477" type="qcurve" smooth="yes"/>
      <point x="895" y="127" type="line" smooth="yes"/>
      <point x="895" y="49"/>
      <point x="1010" y="49" type="qcurve" smooth="yes"/>
      <point x="1024" y="49"/>
      <point x="1024" y="-8"/>
      <point x="1010" y="-8" type="qcurve"/>
      <point x="930" y="0"/>
      <point x="710" y="0"/>
      <point x="632" y="-8" type="qcurve"/>
      <point x="618" y="-8"/>
      <point x="618" y="49"/>
      <point x="632" y="49" type="qcurve" smooth="yes"/>
      <point x="742" y="49"/>
      <point x="742" y="127" type="qcurve" smooth="yes"/>
      <point x="742" y="532" type="line" smooth="yes"/>
      <point x="742" y="622"/>
      <point x="710" y="736"/>
      <point x="645" y="780"/>
      <point x="571" y="780" type="qcurve" smooth="yes"/>
      <point x="526" y="780"/>
      <point x="461" y="746"/>
      <point x="398" y="698"/>
      <point x="354" y="630"/>
      <point x="354" y="590" type="qcurve" smooth="yes"/>
      <point x="354" y="127" type="line" smooth="yes"/>
      <point x="354" y="49"/>
      <point x="460" y="49" type="qcurve" smooth="yes"/>
      <point x="474" y="49"/>
      <point x="474" y="-8"/>
      <point x="460" y="-8" type="qcurve"/>
      <point x="384" y="0"/>
      <point x="160" y="0"/>
    </contour>
  </outline>
</glyph>
<glyph name="o" format="1">
  <advance width="995"/>
  <unicode hex="006F"/>
  <outline>
    <contour>
      <point x="84" y="428" type="qcurve" smooth="yes"/>
      <point x="84" y="596"/>
      <point x="334" y="870"/>
      <point x="508" y="870" type="qcurve" smooth="yes"/>
      <point x="682" y="870"/>
      <point x="924" y="596"/>
      <point x="924" y="420" type="qcurve" smooth="yes"/>
      <point x="924" y="244"/>
      <point x="702" y="-23"/>
      <point x="516" y="-23" type="qcurve" smooth="yes"/>
      <point x="330" y="-23"/>
      <point x="84" y="260"/>
    </contour>
    <contour>
      <point x="247" y="422" type="qcurve" smooth="yes"/>
      <point x="247" y="244"/>
      <point x="410" y="43"/>
      <point x="504" y="43" type="qcurve" smooth="yes"/>
      <point x="600" y="43"/>
      <point x="761" y="246"/>
      <point x="761" y="422" type="qcurve" smooth="yes"/>
      <point x="761" y="598"/>
      <point x="601" y="810"/>
      <point x="506" y="811" type="qcurve"/>
      <point x="410" y="811"/>
      <point x="247" y="600"/>
    </contour>
  </outline>
</glyph>
<glyph name="q" format="1">
  <advance width="1012"/>
  <unicode hex="0071"/>
  <outline>
    <contour>
      <point x="669" y="0" type="qcurve"/>
      <point x="605" y="-23"/>
      <point x="438" y="-23" type="qcurve"/>
      <point x="264" y="-23"/>
      <point x="66" y="210"/>
      <point x="66" y="416" type="qcurve" smooth="yes"/>
      <point x="66" y="628"/>
      <point x="309" y="870"/>
      <point x="452" y="870" type="qcurve" smooth="yes"/>
      <point x="595" y="870"/>
      <point x="711" y="811" type="qcurve"/>
      <point x="829" y="866" type="line"/>
      <point x="868" y="866"/>
      <point x="868" y="821" type="qcurve"/>
      <point x="841" y="794"/>
      <point x="841" y="522" type="qcurve" smooth="yes"/>
      <point x="841" y="-418" type="line" smooth="yes"/>
      <point x="841" y="-502"/>
      <point x="974" y="-502" type="qcurve" smooth="yes"/>
      <point x="988" y="-502"/>
      <point x="988" y="-559"/>
      <point x="974" y="-559" type="qcurve"/>
      <point x="890" y="-551"/>
      <point x="638" y="-551"/>
      <point x="555" y="-559" type="qcurve"/>
      <point x="541" y="-559"/>
      <point x="541" y="-502"/>
      <point x="555" y="-502" type="qcurve" smooth="yes"/>
      <point x="688" y="-502"/>
      <point x="688" y="-416" type="qcurve" smooth="yes"/>
      <point x="688" y="-37" type="line" smooth="yes"/>
      <point x="688" y="0"/>
    </contour>
    <contour>
      <point x="688" y="205" type="qcurve" smooth="yes"/>
      <point x="688" y="623" type="line" smooth="yes"/>
      <point x="688" y="660"/>
      <point x="674" y="682" type="qcurve" smooth="yes"/>
      <point x="608" y="788"/>
      <point x="522" y="788" type="qcurve" smooth="yes"/>
      <point x="229" y="788"/>
      <point x="229" y="435" type="qcurve" smooth="yes"/>
      <point x="229" y="276"/>
      <point x="350" y="41"/>
      <point x="474" y="41" type="qcurve" smooth="yes"/>
      <point x="688" y="41"/>
    </contour>
  </outline>
</glyph>
<glyph name="t" format="1">
  <advance width="674"/>
  <unicode hex="0074"/>
  <outline>
    <contour>
      <point x="193" y="213" type="qcurve" smooth="yes"/>
      <point x="193" y="720" type="line" smooth="yes"/>
      <point x="193" y="760"/>
      <point x="153" y="760" type="qcurve" smooth="yes"/>
      <point x="80" y="760" type="line" smooth="yes"/>
      <point x="66" y="760"/>
      <point x="66" y="806"/>
      <point x="80" y="806" type="qcurve" smooth="yes"/>
      <point x="125" y="806"/>
      <point x="221" y="877"/>
      <point x="285" y="962"/>
      <point x="301" y="1001" type="qcurve" smooth="yes"/>
      <point x="305" y="1010"/>
      <point x="325" y="1010"/>
      <point x="346" y="1000"/>
      <point x="346" y="991" type="qcurve" smooth="yes"/>
      <point x="346" y="893" type="line" smooth="yes"/>
      <point x="346" y="850"/>
      <point x="387" y="850" type="qcurve" smooth="yes"/>
      <point x="631" y="850" type="line" smooth="yes"/>
      <point x="645" y="850"/>
      <point x="645" y="760"/>
      <point x="631" y="760" type="qcurve" smooth="yes"/>
      <point x="387" y="760" type="line" smooth="yes"/>
      <point x="346" y="760"/>
      <point x="346" y="720" type="qcurve" smooth="yes"/>
      <point x="346" y="317" type="line" smooth="yes"/>
      <point x="346" y="186"/>
      <point x="421" y="74"/>
      <point x="508" y="74" type="qcurve" smooth="yes"/>
      <point x="560" y="74"/>
      <point x="616" y="113" type="qcurve" smooth="yes"/>
      <point x="622" y="117"/>
      <point x="633" y="117"/>
      <point x="645" y="95"/>
      <point x="645" y="81"/>
      <point x="643" y="78" type="qcurve" smooth="yes"/>
      <point x="559" y="-23"/>
      <point x="423" y="-23" type="qcurve" smooth="yes"/>
      <point x="298" y="-23"/>
      <point x="193" y="86"/>
    </contour>
  </outline>
</glyph>
<glyph name="u" format="1">
  <advance width="1036"/>
  <unicode hex="0075"/>
  <outline>
    <contour>
      <point x="1009" y="31" type="qcurve" smooth="yes"/>
      <point x="981" y="28"/>
      <point x="764" y="-21"/>
      <point x="735" y="-32" type="qcurve" smooth="yes"/>
      <point x="732" y="-33"/>
      <point x="728" y="-33" type="qcurve" smooth="yes"/>
      <point x="712" y="-33"/>
      <point x="712" y="12" type="qcurve" smooth="yes"/>
      <point x="712" y="57" type="line" smooth="yes"/>
      <point x="712" y="81"/>
      <point x="689" y="81"/>
      <point x="673" y="66" type="qcurve" smooth="yes"/>
      <point x="578" y="-23"/>
      <point x="439" y="-23" type="qcurve" smooth="yes"/>
      <point x="334" y="-23"/>
      <point x="174" y="189"/>
      <point x="174" y="301" type="qcurve" smooth="yes"/>
      <point x="174" y="636" type="line" smooth="yes"/>
      <point x="174" y="783"/>
      <point x="63" y="783" type="qcurve" smooth="yes"/>
      <point x="48" y="783"/>
      <point x="48" y="839"/>
      <point x="63" y="839" type="qcurve" smooth="yes"/>
      <point x="168" y="839"/>
      <point x="297" y="857"/>
      <point x="335" y="857"/>
      <point x="335" y="841" type="qcurve"/>
      <point x="327" y="718"/>
      <point x="327" y="689" type="qcurve" smooth="yes"/>
      <point x="327" y="334" type="line" smooth="yes"/>
      <point x="327" y="219"/>
      <point x="406" y="74"/>
      <point x="488" y="74" type="qcurve" smooth="yes"/>
      <point x="576" y="74"/>
      <point x="712" y="178"/>
      <point x="712" y="252" type="qcurve" smooth="yes"/>
      <point x="712" y="636" type="line" smooth="yes"/>
      <point x="712" y="783"/>
      <point x="601" y="783" type="qcurve" smooth="yes"/>
      <point x="586" y="783"/>
      <point x="586" y="839"/>
      <point x="601" y="839" type="qcurve" smooth="yes"/>
      <point x="724" y="839"/>
      <point x="839" y="857"/>
      <point x="851" y="857" type="qcurve" smooth="yes"/>
      <point x="871" y="857"/>
      <point x="871" y="830" type="qcurve"/>
      <point x="865" y="743"/>
      <point x="865" y="691" type="qcurve" smooth="yes"/>
      <point x="865" y="227" type="line" smooth="yes"/>
      <point x="865" y="142"/>
      <point x="909" y="82"/>
      <point x="947" y="82"/>
      <point x="994" y="88"/>
      <point x="1003" y="88"/>
      <point x="1012" y="79"/>
      <point x="1017" y="53"/>
      <point x="1017" y="46" type="qcurve" smooth="yes"/>
      <point x="1017" y="32"/>
    </contour>
  </outline>
</glyph>
<glyph name="braceleft" format="1">
  <advance width="784"/>
  <unicode hex="007B"/>
  <outline>
    <contour>
      <point x="715" y="-319" type="qcurve"/>
      <point x="491" y="-319"/>
      <point x="426.5" y="-294.5" type="qcurve"/>
      <point x="362" y="-270"/>
      <point x="324.5" y="-205" type="qcurve"/>
      <point x="287" y="-140"/>
      <point x="287" y="-18" type="qcurve"/>
      <point x="287" y="424" type="line"/>
      <point x="287" y="600"/>
      <point x="76" y="600" type="qcurve"/>
      <point x="66" y="600"/>
      <point x="66" y="617.5" type="qcurve"/>
      <point x="66" y="635"/>
      <point x="76" y="635" type="qcurve"/>
      <point x="287" y="635"/>
      <point x="287" y="807" type="qcurve"/>
      <point x="287" y="1145" type="line"/>
      <point x="287" y="1308"/>
      <point x="328" y="1382" type="qcurve"/>
      <point x="369" y="1456"/>
      <point x="451.5" y="1474.5" type="qcurve"/>
      <point x="534" y="1493"/>
      <point x="715" y="1493" type="qcurve"/>
      <point x="729" y="1493"/>
      <point x="729" y="1469.5" type="qcurve"/>
      <point x="729" y="1446"/>
      <point x="715" y="1446" type="qcurve"/>
      <point x="559" y="1446"/>
      <point x="491.5" y="1394" type="qcurve"/>
      <point x="424" y="1342"/>
      <point x="424" y="1208" type="qcurve"/>
      <point x="424" y="965" type="line"/>
      <point x="424" y="792"/>
      <point x="412" y="752.5" type="qcurve"/>
      <point x="400" y="713"/>
      <point x="366.5" y="675.5" type="qcurve"/>
      <point x="333" y="638"/>
      <point x="260" y="621" type="qcurve"/>
      <point x="260" y="614" type="line"/>
      <point x="327" y="602"/>
      <point x="362.5" y="566.5" type="qcurve"/>
      <point x="398" y="531"/>
      <point x="411" y="481.5" type="qcurve"/>
      <point x="424" y="432"/>
      <point x="424" y="293" type="qcurve"/>
      <point x="424" y="16" type="line"/>
      <point x="424" y="-156"/>
      <point x="487" y="-214" type="qcurve"/>
      <point x="550" y="-272"/>
      <point x="715" y="-272" type="qcurve"/>
      <point x="729" y="-272"/>
      <point x="729" y="-295.5" type="qcurve"/>
      <point x="729" y="-319"/>
    </contour>
  </outline>
</glyph>
<glyph name="braceright" format="1">
  <advance width="821"/>
  <unicode hex="007D"/>
  <outline>
    <contour>
      <point x="719" y="600" type="qcurve"/>
      <point x="508" y="600"/>
      <point x="508" y="424" type="qcurve"/>
      <point x="508" y="-18" type="line"/>
      <point x="508" y="-153"/>
      <point x="459" y="-223.5" type="qcurve"/>
      <point x="410" y="-294"/>
      <point x="321.5" y="-306.5" type="qcurve"/>
      <point x="233" y="-319"/>
      <point x="80" y="-319" type="qcurve"/>
      <point x="66" y="-319"/>
      <point x="66" y="-295.5" type="qcurve"/>
      <point x="66" y="-272"/>
      <point x="80" y="-272" type="qcurve"/>
      <point x="245" y="-272"/>
      <point x="308" y="-214" type="qcurve"/>
      <point x="371" y="-156"/>
      <point x="371" y="16" type="qcurve"/>
      <point x="371" y="293" type="line"/>
      <point x="371" y="436"/>
      <point x="386" y="485" type="qcurve"/>
      <point x="401" y="534"/>
      <point x="434" y="568" type="qcurve"/>
      <point x="467" y="602"/>
      <point x="535" y="614" type="qcurve"/>
      <point x="535" y="621" type="line"/>
      <point x="458" y="639"/>
      <point x="426" y="677" type="qcurve"/>
      <point x="394" y="715"/>
      <point x="382.5" y="755.5" type="qcurve"/>
      <point x="371" y="796"/>
      <point x="371" y="965" type="qcurve"/>
      <point x="371" y="1208" type="line"/>
      <point x="371" y="1344"/>
      <point x="301" y="1395" type="qcurve"/>
      <point x="231" y="1446"/>
      <point x="80" y="1446" type="qcurve"/>
      <point x="66" y="1446"/>
      <point x="66" y="1469.5" type="qcurve"/>
      <point x="66" y="1493"/>
      <point x="80" y="1493" type="qcurve"/>
      <point x="250" y="1493"/>
      <point x="339.5" y="1476.5" type="qcurve"/>
      <point x="429" y="1460"/>
      <point x="468.5" y="1381" type="qcurve"/>
      <point x="508" y="1302"/>
      <point x="508" y="1145" type="qcurve"/>
      <point x="508" y="807" type="line"/>
      <point x="508" y="635"/>
      <point x="719" y="635" type="qcurve"/>
      <point x="729" y="635"/>
      <point x="729" y="617.5" type="qcurve"/>
      <point x="729" y="600"/>
    </contour>
  </outline>
</glyph>
<glyph name="exclamdown" format="1">
  <advance width="520"/>
  <unicode hex="00A1"/>
  <outline>
    <contour>
      <point x="260" y="634" type="qcurve"/>
      <point x="198" y="634"/>
      <point x="168" y="671" type="qcurve"/>
      <point x="138" y="708"/>
      <point x="138" y="758.5" type="qcurve"/>
      <point x="138" y="809"/>
      <point x="173" y="839.5" type="qcurve"/>
      <point x="208" y="870"/>
      <point x="261" y="870" type="qcurve"/>
      <point x="314" y="870"/>
      <point x="347" y="834" type="qcurve"/>
      <point x="380" y="798"/>
      <point x="380" y="747" type="qcurve"/>
      <point x="380" y="696"/>
      <point x="350" y="665" type="qcurve"/>
      <point x="320" y="634"/>
    </contour>
    <contour>
      <point x="152" y="-443" type="qcurve"/>
      <point x="152" y="-380"/>
      <point x="183" y="-88.5" type="qcurve"/>
      <point x="214" y="203"/>
      <point x="226" y="409" type="qcurve"/>
      <point x="228" y="425"/>
      <point x="260" y="425" type="qcurve"/>
      <point x="292" y="425"/>
      <point x="292" y="409" type="qcurve"/>
      <point x="300" y="210"/>
      <point x="327" y="-82" type="qcurve"/>
      <point x="354" y="-374"/>
      <point x="354" y="-430" type="qcurve"/>
      <point x="354" y="-486"/>
      <point x="323" y="-520" type="qcurve"/>
      <point x="292" y="-554"/>
      <point x="256" y="-554" type="qcurve"/>
      <point x="152" y="-554"/>
    </contour>
  </outline>
</glyph>
<glyph name="sterling" format="1">
  <advance width="1126"/>
  <unicode hex="00A3"/>
  <outline>
    <contour>
      <point x="31" y="100" type="qcurve"/>
      <point x="31" y="165"/>
      <point x="77" y="208.5" type="qcurve"/>
      <point x="123" y="252"/>
      <point x="205" y="252" type="qcurve"/>
      <point x="268" y="252"/>
      <point x="442" y="195" type="qcurve"/>
      <point x="465" y="273"/>
      <point x="465" y="330" type="qcurve"/>
      <point x="465" y="454"/>
      <point x="401" y="655" type="qcurve"/>
      <point x="127" y="655" type="line"/>
      <point x="112" y="655"/>
      <point x="112" y="691" type="qcurve"/>
      <point x="112" y="727"/>
      <point x="127" y="727" type="qcurve"/>
      <point x="377" y="727" type="line"/>
      <point x="317" y="890"/>
      <point x="317" y="1027" type="qcurve"/>
      <point x="317" y="1164"/>
      <point x="429.5" y="1267" type="qcurve"/>
      <point x="542" y="1370"/>
      <point x="705" y="1370" type="qcurve"/>
      <point x="796" y="1370"/>
      <point x="902" y="1337.5" type="qcurve"/>
      <point x="1008" y="1305"/>
      <point x="1008" y="1257" type="qcurve"/>
      <point x="1008" y="1070"/>
      <point x="981" y="1030" type="qcurve"/>
      <point x="978" y="1026"/>
      <point x="966.5" y="1026" type="qcurve"/>
      <point x="955" y="1026"/>
      <point x="937" y="1080" type="qcurve"/>
      <point x="919" y="1134"/>
      <point x="902.5" y="1187" type="qcurve"/>
      <point x="886" y="1240"/>
      <point x="838" y="1281.5" type="qcurve"/>
      <point x="790" y="1323"/>
      <point x="694" y="1323" type="qcurve"/>
      <point x="581" y="1323"/>
      <point x="520" y="1253.5" type="qcurve"/>
      <point x="459" y="1184"/>
      <point x="459" y="1100" type="qcurve"/>
      <point x="459" y="1016"/>
      <point x="543" y="727" type="qcurve"/>
      <point x="866" y="727" type="line"/>
      <point x="882" y="727"/>
      <point x="882" y="691" type="qcurve"/>
      <point x="882" y="655"/>
      <point x="866" y="655" type="qcurve"/>
      <point x="559" y="655" type="line"/>
      <point x="575" y="565"/>
      <point x="575" y="458" type="qcurve"/>
      <point x="575" y="351"/>
      <point x="508" y="166" type="qcurve"/>
      <point x="688" y="98"/>
      <point x="778" y="98" type="qcurve"/>
      <point x="912" y="98"/>
      <point x="1024" y="197" type="qcurve"/>
      <point x="1059" y="229"/>
      <point x="1070" y="229" type="qcurve"/>
      <point x="1081" y="229"/>
      <point x="1081" y="207.5" type="qcurve"/>
      <point x="1081" y="186"/>
      <point x="1055" y="129" type="qcurve"/>
      <point x="977" y="-41"/>
      <point x="791" y="-41" type="qcurve"/>
      <point x="663" y="-41"/>
      <point x="461" y="96" type="qcurve"/>
      <point x="398" y="31"/>
      <point x="340" y="-5" type="qcurve"/>
      <point x="282" y="-41"/>
      <point x="194" y="-41" type="qcurve"/>
      <point x="118" y="-41"/>
      <point x="74.5" y="1" type="qcurve"/>
      <point x="31" y="43"/>
    </contour>
    <contour>
      <point x="88" y="100" type="qcurve"/>
      <point x="88" y="62"/>
      <point x="120" y="37" type="qcurve"/>
      <point x="152" y="12"/>
      <point x="205" y="12" type="qcurve"/>
      <point x="317" y="12"/>
      <point x="410" y="125" type="qcurve"/>
      <point x="308" y="199"/>
      <point x="230" y="199" type="qcurve"/>
      <point x="148" y="199"/>
      <point x="118" y="165.5" type="qcurve"/>
      <point x="88" y="132"/>
    </contour>
  </outline>
</glyph>
<glyph name="currency" format="1">
  <advance width="1024"/>
  <unicode hex="00A4"/>
  <outline>
    <contour>
      <point x="80" y="668" type="qcurve"/>
      <point x="80" y="816"/>
      <point x="168" y="928" type="qcurve"/>
      <point x="88" y="1008" type="line"/>
      <point x="86" y="1010"/>
      <point x="86" y="1014" type="qcurve"/>
      <point x="86" y="1028"/>
      <point x="119" y="1061" type="qcurve"/>
      <point x="152" y="1094"/>
      <point x="166" y="1094" type="qcurve"/>
      <point x="170" y="1094"/>
      <point x="172" y="1092" type="qcurve"/>
      <point x="252" y="1014" type="line"/>
      <point x="364" y="1102"/>
      <point x="511.5" y="1102" type="qcurve"/>
      <point x="659" y="1102"/>
      <point x="774" y="1014" type="qcurve"/>
      <point x="852" y="1092" type="line"/>
      <point x="854" y="1094"/>
      <point x="858" y="1094" type="qcurve"/>
      <point x="872" y="1094"/>
      <point x="905" y="1061" type="qcurve"/>
      <point x="938" y="1028"/>
      <point x="938" y="1014" type="qcurve"/>
      <point x="938" y="1010"/>
      <point x="936" y="1008" type="qcurve"/>
      <point x="858" y="930" type="line"/>
      <point x="946" y="815"/>
      <point x="946" y="667" type="qcurve"/>
      <point x="946" y="519"/>
      <point x="858" y="406" type="qcurve"/>
      <point x="936" y="328" type="line"/>
      <point x="939" y="325"/>
      <point x="939" y="321" type="qcurve"/>
      <point x="939" y="307"/>
      <point x="904.5" y="274.5" type="qcurve"/>
      <point x="870" y="242"/>
      <point x="857" y="242" type="qcurve"/>
      <point x="854" y="242"/>
      <point x="852" y="244" type="qcurve"/>
      <point x="774" y="322" type="line"/>
      <point x="658" y="233"/>
      <point x="514" y="233" type="qcurve"/>
      <point x="370" y="233"/>
      <point x="252" y="324" type="qcurve"/>
      <point x="172" y="244" type="line"/>
      <point x="170" y="242"/>
      <point x="167" y="242" type="qcurve"/>
      <point x="154" y="242"/>
      <point x="119.5" y="274.5" type="qcurve"/>
      <point x="85" y="307"/>
      <point x="85" y="321" type="qcurve"/>
      <point x="85" y="325"/>
      <point x="88" y="328" type="qcurve"/>
      <point x="168" y="408" type="line"/>
      <point x="80" y="520"/>
    </contour>
    <contour>
      <point x="168" y="668" type="qcurve"/>
      <point x="168" y="524"/>
      <point x="268.5" y="423" type="qcurve"/>
      <point x="369" y="322"/>
      <point x="513.5" y="322" type="qcurve"/>
      <point x="658" y="322"/>
      <point x="759" y="423" type="qcurve"/>
      <point x="860" y="524"/>
      <point x="860" y="666" type="qcurve"/>
      <point x="860" y="808"/>
      <point x="757" y="911" type="qcurve"/>
      <point x="654" y="1014"/>
      <point x="512.5" y="1014" type="qcurve"/>
      <point x="371" y="1014"/>
      <point x="269.5" y="912.5" type="qcurve"/>
      <point x="168" y="811"/>
    </contour>
  </outline>
</glyph>
<glyph name="yen" format="1">
  <advance width="1325"/>
  <unicode hex="00A5"/>
  <outline>
    <contour>
      <point x="1096" y="571" type="line"/>
      <point x="1111" y="571"/>
      <point x="1111" y="521" type="qcurve"/>
      <point x="1111" y="471"/>
      <point x="1096" y="471" type="qcurve"/>
      <point x="728" y="471" type="line"/>
      <point x="728" y="186" type="line"/>
      <point x="728" y="69"/>
      <point x="892" y="69" type="qcurve"/>
      <point x="905" y="69"/>
      <point x="905" y="31" type="qcurve"/>
      <point x="905" y="-7"/>
      <point x="892" y="-7" type="qcurve"/>
      <point x="817" y="0"/>
      <point x="648" y="0" type="qcurve"/>
      <point x="479" y="0"/>
      <point x="404" y="-7" type="qcurve"/>
      <point x="391" y="-7"/>
      <point x="391" y="31" type="qcurve"/>
      <point x="391" y="69"/>
      <point x="404" y="69" type="qcurve"/>
      <point x="568" y="69"/>
      <point x="568" y="186" type="qcurve"/>
      <point x="568" y="471" type="line"/>
      <point x="567" y="471" type="line"/>
      <point x="221" y="471" type="line"/>
      <point x="206" y="471"/>
      <point x="206" y="521" type="qcurve"/>
      <point x="206" y="571"/>
      <point x="221" y="571" type="qcurve"/>
      <point x="562" y="571" type="line"/>
      <point x="555" y="610"/>
      <point x="540" y="634" type="qcurve"/>
      <point x="478" y="737" type="line"/>
      <point x="221" y="737" type="line"/>
      <point x="206" y="737"/>
      <point x="206" y="787.5" type="qcurve"/>
      <point x="206" y="838"/>
      <point x="221" y="838" type="qcurve"/>
      <point x="416" y="838" type="line"/>
      <point x="214" y="1172" type="line"/>
      <point x="144" y="1287"/>
      <point x="26" y="1287" type="qcurve"/>
      <point x="13" y="1287"/>
      <point x="13" y="1325" type="qcurve"/>
      <point x="13" y="1363"/>
      <point x="26" y="1363" type="qcurve"/>
      <point x="70" y="1358"/>
      <point x="262.5" y="1358" type="qcurve"/>
      <point x="455" y="1358"/>
      <point x="502" y="1363" type="qcurve"/>
      <point x="515" y="1363"/>
      <point x="515" y="1325" type="qcurve"/>
      <point x="515" y="1287"/>
      <point x="502" y="1287" type="qcurve"/>
      <point x="381" y="1287"/>
      <point x="381" y="1230" type="qcurve"/>
      <point x="381" y="1207"/>
      <point x="402" y="1172" type="qcurve"/>
      <point x="683" y="700" type="line"/>
      <point x="691" y="686"/>
      <point x="698.5" y="686" type="qcurve"/>
      <point x="706" y="686"/>
      <point x="715" y="700" type="qcurve"/>
      <point x="1013" y="1163" type="line"/>
      <point x="1040" y="1205"/>
      <point x="1040" y="1234" type="qcurve"/>
      <point x="1040" y="1287"/>
      <point x="929" y="1287" type="qcurve"/>
      <point x="915" y="1287"/>
      <point x="915" y="1325" type="qcurve"/>
      <point x="915" y="1363"/>
      <point x="929" y="1363" type="qcurve"/>
      <point x="974" y="1358"/>
      <point x="1126.5" y="1358" type="qcurve"/>
      <point x="1279" y="1358"/>
      <point x="1324" y="1363" type="qcurve"/>
      <point x="1337" y="1363"/>
      <point x="1337" y="1325" type="qcurve"/>
      <point x="1337" y="1287"/>
      <point x="1324" y="1287" type="qcurve"/>
      <point x="1186" y="1287"/>
      <point x="1114" y="1178" type="qcurve"/>
      <point x="892" y="838" type="line"/>
      <point x="1096" y="838" type="line"/>
      <point x="1111" y="838"/>
      <point x="1111" y="787.5" type="qcurve"/>
      <point x="1111" y="737"/>
      <point x="1096" y="737" type="qcurve"/>
      <point x="826" y="737" type="line"/>
      <point x="805" y="705" type="line"/>
      <point x="740" y="605"/>
      <point x="734" y="576" type="qcurve"/>
      <point x="734" y="574"/>
      <point x="733" y="571" type="qcurve"/>
    </contour>
  </outline>
</glyph>
<glyph name="brokenbar" format="1">
  <advance width="537"/>
  <unicode hex="00A6"/>
  <outline>
    <contour>
      <point x="354" y="834" type="line"/>
      <point x="233" y="834" type="line"/>
      <point x="233" y="1372" type="line"/>
      <point x="354" y="1372" type="line"/>
    </contour>
    <contour>
      <point x="354" y="111" type="line"/>
      <point x="233" y="111" type="line"/>
      <point x="233" y="647" type="line"/>
      <point x="354" y="647" type="line"/>
    </contour>
  </outline>
</glyph>
<glyph name="section" format="1">
  <advance width="956"/>
  <unicode hex="00A7"/>
  <outline>
    <contour>
      <point x="879" y="481" type="qcurve"/>
      <point x="879" y="286"/>
      <point x="696" y="182" type="qcurve"/>
      <point x="827" y="81"/>
      <point x="827" y="-61" type="qcurve"/>
      <point x="827" y="-203"/>
      <point x="715" y="-303" type="qcurve"/>
      <point x="603" y="-403"/>
      <point x="457" y="-403" type="qcurve"/>
      <point x="359" y="-403"/>
      <point x="239" y="-355" type="qcurve"/>
      <point x="119" y="-307"/>
      <point x="119" y="-231" type="qcurve"/>
      <point x="119" y="-209"/>
      <point x="152.5" y="-181.5" type="qcurve"/>
      <point x="186" y="-154"/>
      <point x="205.5" y="-154" type="qcurve"/>
      <point x="225" y="-154"/>
      <point x="299.02" y="-240" type="qcurve"/>
      <point x="373.041" y="-326"/>
      <point x="470.52" y="-326" type="qcurve"/>
      <point x="568" y="-326"/>
      <point x="622" y="-258" type="qcurve"/>
      <point x="676" y="-190"/>
      <point x="676" y="-95" type="qcurve"/>
      <point x="676" y="0"/>
      <point x="524" y="102" type="qcurve"/>
      <point x="246" y="279" type="line"/>
      <point x="94" y="393"/>
      <point x="94" y="530" type="qcurve"/>
      <point x="94" y="625"/>
      <point x="145" y="711" type="qcurve"/>
      <point x="198" y="800"/>
      <point x="285" y="834" type="qcurve"/>
      <point x="170" y="936"/>
      <point x="170" y="1067" type="qcurve"/>
      <point x="170" y="1198"/>
      <point x="271" y="1289" type="qcurve"/>
      <point x="372" y="1380"/>
      <point x="510" y="1380" type="qcurve"/>
      <point x="593" y="1380"/>
      <point x="690.5" y="1342.5" type="qcurve"/>
      <point x="788" y="1305"/>
      <point x="788" y="1243" type="qcurve"/>
      <point x="788" y="1214"/>
      <point x="759.5" y="1189.5" type="qcurve"/>
      <point x="731" y="1165"/>
      <point x="711" y="1165" type="qcurve"/>
      <point x="701" y="1165"/>
      <point x="633.5" y="1234" type="qcurve"/>
      <point x="566" y="1303"/>
      <point x="485" y="1303" type="qcurve"/>
      <point x="418" y="1303"/>
      <point x="361.5" y="1251.5" type="qcurve"/>
      <point x="305" y="1200"/>
      <point x="305" y="1107" type="qcurve"/>
      <point x="305" y="1014"/>
      <point x="455" y="920" type="qcurve"/>
      <point x="729" y="748" type="line"/>
      <point x="879" y="631"/>
    </contour>
    <contour>
      <point x="754" y="428" type="qcurve"/>
      <point x="754" y="551"/>
      <point x="530" y="676" type="qcurve"/>
      <point x="419" y="738"/>
      <point x="336" y="797" type="qcurve"/>
      <point x="215" y="725"/>
      <point x="215" y="613.5" type="qcurve"/>
      <point x="215" y="502"/>
      <point x="307" y="442" type="qcurve"/>
      <point x="641" y="223" type="line"/>
      <point x="754" y="302"/>
    </contour>
  </outline>
</glyph>
<glyph name="dieresis" format="1">
  <advance width="797"/>
  <unicode hex="00A8"/>
  <outline>
    <contour>
      <point x="325" y="1156" type="qcurve" smooth="yes"/>
      <point x="325" y="1111"/>
      <point x="262" y="1048"/>
      <point x="172" y="1048"/>
      <point x="109" y="1111"/>
      <point x="109" y="1201"/>
      <point x="172" y="1264"/>
      <point x="262" y="1264"/>
      <point x="325" y="1201"/>
    </contour>
    <contour>
      <point x="706" y="1156" type="qcurve" smooth="yes"/>
      <point x="706" y="1111"/>
      <point x="643" y="1048"/>
      <point x="554" y="1048"/>
      <point x="491" y="1111"/>
      <point x="491" y="1201"/>
      <point x="554" y="1264"/>
      <point x="643" y="1264"/>
      <point x="706" y="1201"/>
    </contour>
  </outline>
</glyph>
<glyph name="copyright" format="1">
  <advance width="1442"/>
  <unicode hex="00A9"/>
  <outline>
    <contour>
      <point x="347" y="744" type="qcurve"/>
      <point x="347" y="860"/>
      <point x="399.5" y="950.5" type="qcurve"/>
      <point x="452" y="1041"/>
      <point x="536" y="1092" type="qcurve"/>
      <point x="620" y="1143"/>
      <point x="743" y="1143" type="qcurve"/>
      <point x="789" y="1143"/>
      <point x="880.5" y="1127" type="qcurve"/>
      <point x="972" y="1111"/>
      <point x="974" y="1111" type="qcurve"/>
      <point x="989" y="1037"/>
      <point x="989" y="940" type="qcurve"/>
      <point x="989" y="931"/>
      <point x="971.5" y="931" type="qcurve"/>
      <point x="954" y="931"/>
      <point x="952" y="939" type="qcurve"/>
      <point x="937" y="1104"/>
      <point x="728" y="1104" type="qcurve"/>
      <point x="616" y="1104"/>
      <point x="534" y="1002.5" type="qcurve"/>
      <point x="452" y="901"/>
      <point x="452" y="757.5" type="qcurve"/>
      <point x="452" y="614"/>
      <point x="532" y="510.5" type="qcurve"/>
      <point x="612" y="407"/>
      <point x="726" y="407" type="qcurve"/>
      <point x="921" y="407"/>
      <point x="975" y="555" type="qcurve"/>
      <point x="977" y="561"/>
      <point x="990.5" y="561" type="qcurve"/>
      <point x="1004" y="561"/>
      <point x="1009" y="557" type="qcurve"/>
      <point x="1011" y="555"/>
      <point x="1011" y="549" type="qcurve"/>
      <point x="990" y="444"/>
      <point x="962" y="401" type="qcurve"/>
      <point x="944" y="399"/>
      <point x="920" y="391" type="qcurve"/>
      <point x="839" y="366"/>
      <point x="713" y="366" type="qcurve"/>
      <point x="615" y="366"/>
      <point x="531.5" y="413.5" type="qcurve"/>
      <point x="448" y="461"/>
      <point x="397.5" y="544.5" type="qcurve"/>
      <point x="347" y="628"/>
    </contour>
    <contour>
      <point x="2" y="748" type="qcurve"/>
      <point x="2" y="1047"/>
      <point x="213" y="1257.5" type="qcurve"/>
      <point x="424" y="1468"/>
      <point x="723" y="1468" type="qcurve"/>
      <point x="1022" y="1468"/>
      <point x="1233" y="1257.5" type="qcurve"/>
      <point x="1444" y="1047"/>
      <point x="1444" y="748" type="qcurve"/>
      <point x="1444" y="449"/>
      <point x="1233" y="238" type="qcurve"/>
      <point x="1022" y="27"/>
      <point x="723" y="27" type="qcurve"/>
      <point x="424" y="27"/>
      <point x="213" y="238" type="qcurve"/>
      <point x="2" y="449"/>
    </contour>
    <contour>
      <point x="72" y="755" type="qcurve"/>
      <point x="72" y="492"/>
      <point x="256" y="294" type="qcurve"/>
      <point x="440" y="96"/>
      <point x="715.5" y="96" type="qcurve"/>
      <point x="991" y="96"/>
      <point x="1182.5" y="287.5" type="qcurve"/>
      <point x="1374" y="479"/>
      <point x="1374" y="748.5" type="qcurve"/>
      <point x="1374" y="1018"/>
      <point x="1183.5" y="1208.5" type="qcurve"/>
      <point x="993" y="1399"/>
      <point x="723" y="1399" type="qcurve"/>
      <point x="453" y="1399"/>
      <point x="262.5" y="1208.5" type="qcurve"/>
      <point x="72" y="1018"/>
    </contour>
  </outline>
</glyph>
<glyph name="ordfeminine" format="1">
  <advance width="516"/>
  <unicode hex="00AA"/>
  <outline>
    <contour>
      <point x="38" y="621" type="qcurve"/>
      <point x="38" y="694"/>
      <point x="165" y="760" type="qcurve"/>
      <point x="256" y="803" type="line"/>
      <point x="277" y="815"/>
      <point x="277" y="831" type="qcurve"/>
      <point x="277" y="945" type="line"/>
      <point x="277" y="988"/>
      <point x="222" y="988" type="qcurve"/>
      <point x="167" y="988"/>
      <point x="144" y="958" type="qcurve"/>
      <point x="139" y="950"/>
      <point x="138.5" y="921" type="qcurve"/>
      <point x="138" y="892"/>
      <point x="135" y="882" type="qcurve"/>
      <point x="120" y="829"/>
      <point x="80" y="829" type="qcurve"/>
      <point x="26" y="829"/>
      <point x="26" y="872.5" type="qcurve"/>
      <point x="26" y="916"/>
      <point x="59" y="962" type="qcurve"/>
      <point x="78" y="988"/>
      <point x="98" y="1001" type="qcurve"/>
      <point x="170" y="1046"/>
      <point x="257" y="1046" type="qcurve"/>
      <point x="322" y="1046"/>
      <point x="367.5" y="1017" type="qcurve"/>
      <point x="413" y="988"/>
      <point x="414" y="948" type="qcurve"/>
      <point x="414" y="643" type="line"/>
      <point x="414" y="575"/>
      <point x="454" y="575" type="qcurve"/>
      <point x="472" y="575"/>
      <point x="497" y="597" type="qcurve"/>
      <point x="499" y="599"/>
      <point x="502.5" y="599" type="qcurve" smooth="yes"/>
      <point x="506" y="599"/>
      <point x="513.5" y="592" type="qcurve"/>
      <point x="521" y="585"/>
      <point x="521" y="581.5" type="qcurve"/>
      <point x="521" y="578"/>
      <point x="519" y="574" type="qcurve"/>
      <point x="485" y="509"/>
      <point x="406" y="509" type="qcurve"/>
      <point x="351" y="509"/>
      <point x="308" y="558" type="qcurve"/>
      <point x="300" y="570"/>
      <point x="294" y="570" type="qcurve"/>
      <point x="288" y="570"/>
      <point x="279" y="559" type="qcurve"/>
      <point x="230" y="510"/>
      <point x="165.5" y="510" type="qcurve"/>
      <point x="101" y="510"/>
      <point x="69.5" y="541" type="qcurve"/>
      <point x="38" y="572"/>
    </contour>
    <contour>
      <point x="176" y="647" type="qcurve"/>
      <point x="176" y="577"/>
      <point x="219" y="577" type="qcurve"/>
      <point x="277" y="577"/>
      <point x="277" y="640" type="qcurve"/>
      <point x="277" y="749" type="line"/>
      <point x="277" y="763"/>
      <point x="268" y="763" type="qcurve"/>
      <point x="264" y="763"/>
      <point x="260" y="761" type="qcurve"/>
      <point x="176" y="718"/>
    </contour>
  </outline>
</glyph>
<glyph name="guillemotleft" format="1">
  <advance width="789"/>
  <unicode hex="00AB"/>
  <outline>
    <contour>
      <point x="419" y="104" type="line"/>
      <point x="423" y="99"/>
      <point x="423" y="91.5" type="qcurve"/>
      <point x="423" y="84"/>
      <point x="412.5" y="74.5" type="qcurve"/>
      <point x="402" y="65"/>
      <point x="394.5" y="65" type="qcurve"/>
      <point x="387" y="65"/>
      <point x="382" y="70" type="qcurve"/>
      <point x="83" y="382" type="line"/>
      <point x="59" y="407"/>
      <point x="59" y="435" type="qcurve"/>
      <point x="59" y="463"/>
      <point x="83" y="488" type="qcurve"/>
      <point x="382" y="800" type="line"/>
      <point x="387" y="805"/>
      <point x="393.5" y="805" type="qcurve" smooth="yes"/>
      <point x="400" y="805"/>
      <point x="411" y="796.5" type="qcurve"/>
      <point x="422" y="788"/>
      <point x="422" y="779" type="qcurve" smooth="yes"/>
      <point x="422" y="775"/>
      <point x="419" y="770" type="qcurve"/>
      <point x="222" y="476" type="line"/>
      <point x="210" y="458"/>
      <point x="210" y="435" type="qcurve"/>
      <point x="210" y="412"/>
      <point x="222" y="394" type="qcurve"/>
    </contour>
    <contour>
      <point x="726" y="104" type="line"/>
      <point x="729.634" y="98.4105"/>
      <point x="729.634" y="92.75" type="qcurve" smooth="yes"/>
      <point x="729.634" y="83.2221"/>
      <point x="719.093" y="73.9932" type="qcurve"/>
      <point x="708.552" y="64.7643"/>
      <point x="701.365" y="64.7643" type="qcurve" smooth="yes"/>
      <point x="694.178" y="64.7643"/>
      <point x="689" y="70" type="qcurve"/>
      <point x="390" y="382" type="line"/>
      <point x="366" y="407"/>
      <point x="366" y="435" type="qcurve"/>
      <point x="366" y="463"/>
      <point x="390" y="488" type="qcurve"/>
      <point x="689" y="800" type="line"/>
      <point x="693.781" y="804.839"/>
      <point x="700.695" y="804.839" type="qcurve" smooth="yes"/>
      <point x="707.608" y="804.839"/>
      <point x="718.331" y="796.36" type="qcurve"/>
      <point x="729.054" y="787.881"/>
      <point x="729.054" y="779.184" type="qcurve" smooth="yes"/>
      <point x="729.054" y="774.531"/>
      <point x="726" y="770" type="qcurve"/>
      <point x="529" y="476" type="line"/>
      <point x="517" y="458"/>
      <point x="517" y="435" type="qcurve"/>
      <point x="517" y="412"/>
      <point x="529" y="394" type="qcurve"/>
    </contour>
  </outline>
</glyph>
<glyph name="registered" format="1">
  <advance width="1524"/>
  <unicode hex="00AE"/>
  <outline>
    <contour>
      <point x="527" y="487" type="qcurve"/>
      <point x="527" y="1020" type="line"/>
      <point x="527" y="1079"/>
      <point x="425" y="1079" type="qcurve"/>
      <point x="418" y="1079"/>
      <point x="418" y="1099.5" type="qcurve"/>
      <point x="418" y="1120"/>
      <point x="425" y="1120" type="qcurve"/>
      <point x="488" y="1118"/>
      <point x="540" y="1118" type="qcurve"/>
      <point x="592" y="1118"/>
      <point x="644" y="1119" type="qcurve"/>
      <point x="696" y="1120"/>
      <point x="729" y="1120" type="qcurve"/>
      <point x="853" y="1120"/>
      <point x="923.5" y="1068" type="qcurve"/>
      <point x="994" y="1016"/>
      <point x="994" y="918" type="qcurve"/>
      <point x="994" y="768"/>
      <point x="850" y="730" type="qcurve"/>
      <point x="843" y="728"/>
      <point x="843" y="720.5" type="qcurve"/>
      <point x="843" y="713"/>
      <point x="850" y="700" type="qcurve"/>
      <point x="934" y="550"/>
      <point x="1044" y="452" type="qcurve"/>
      <point x="1111" y="395"/>
      <point x="1145" y="395" type="qcurve"/>
      <point x="1152" y="395"/>
      <point x="1152" y="385.5" type="qcurve"/>
      <point x="1152" y="376"/>
      <point x="1145" y="376" type="qcurve"/>
      <point x="1114" y="374"/>
      <point x="1108" y="374" type="qcurve"/>
      <point x="1020" y="374"/>
      <point x="978" y="403" type="qcurve"/>
      <point x="912" y="449"/>
      <point x="864" y="512" type="qcurve"/>
      <point x="770" y="650" type="line"/>
      <point x="744" y="688"/>
      <point x="729" y="698.5" type="qcurve"/>
      <point x="714" y="709"/>
      <point x="684" y="709" type="qcurve"/>
      <point x="654" y="709"/>
      <point x="643" y="710.5" type="qcurve"/>
      <point x="632" y="712"/>
      <point x="626.5" y="712" type="qcurve"/>
      <point x="621" y="712"/>
      <point x="617.5" y="709" type="qcurve"/>
      <point x="614" y="706"/>
      <point x="614" y="700" type="qcurve"/>
      <point x="614" y="487" type="line"/>
      <point x="614" y="424"/>
      <point x="718" y="424" type="qcurve"/>
      <point x="726" y="424"/>
      <point x="726" y="404" type="qcurve"/>
      <point x="726" y="384"/>
      <point x="718" y="383" type="qcurve"/>
      <point x="676" y="387"/>
      <point x="574" y="387" type="qcurve"/>
      <point x="472" y="387"/>
      <point x="430" y="383" type="qcurve"/>
      <point x="423" y="383"/>
      <point x="423" y="403.5" type="qcurve"/>
      <point x="423" y="424"/>
      <point x="430" y="424" type="qcurve"/>
      <point x="527" y="424"/>
    </contour>
    <contour>
      <point x="614" y="768" type="line"/>
      <point x="614" y="751"/>
      <point x="634.5" y="746.5" type="qcurve"/>
      <point x="655" y="742"/>
      <point x="692" y="742" type="qcurve"/>
      <point x="901" y="742"/>
      <point x="901" y="918" type="qcurve"/>
      <point x="901" y="989"/>
      <point x="844.5" y="1038" type="qcurve"/>
      <point x="788" y="1087"/>
      <point x="687" y="1087" type="qcurve"/>
      <point x="639" y="1087" type="line"/>
      <point x="614" y="1087"/>
      <point x="614" y="1070" type="qcurve"/>
    </contour>
    <contour>
      <point x="1444" y="748" type="qcurve"/>
      <point x="1444" y="449"/>
      <point x="1233" y="238" type="qcurve"/>
      <point x="1022" y="27"/>
      <point x="723" y="27" type="qcurve"/>
      <point x="424" y="27"/>
      <point x="213" y="238" type="qcurve"/>
      <point x="2" y="449"/>
      <point x="2" y="748" type="qcurve"/>
      <point x="2" y="1047"/>
      <point x="213" y="1257.5" type="qcurve"/>
      <point x="424" y="1468"/>
      <point x="723" y="1468" type="qcurve"/>
      <point x="1022" y="1468"/>
      <point x="1233" y="1257.5" type="qcurve"/>
      <point x="1444" y="1047"/>
    </contour>
    <contour>
      <point x="1374" y="748" type="qcurve"/>
      <point x="1374" y="1018"/>
      <point x="1183.5" y="1208.5" type="qcurve"/>
      <point x="993" y="1399"/>
      <point x="723" y="1399" type="qcurve"/>
      <point x="453" y="1399"/>
      <point x="262.5" y="1208.5" type="qcurve"/>
      <point x="72" y="1018"/>
      <point x="72" y="753.5" type="qcurve"/>
      <point x="72" y="489"/>
      <point x="257.5" y="292.5" type="qcurve"/>
      <point x="443" y="96"/>
      <point x="717" y="96" type="qcurve"/>
      <point x="991" y="96"/>
      <point x="1182.5" y="287" type="qcurve"/>
      <point x="1374" y="478"/>
    </contour>
  </outline>
</glyph>
<glyph name="macron" format="1">
  <advance width="608"/>
  <unicode hex="00AF"/>
  <outline>
    <contour>
      <point x="528" y="1198" type="line"/>
      <point x="556" y="1198"/>
      <point x="556" y="1151" type="qcurve"/>
      <point x="556" y="1104"/>
      <point x="524" y="1104" type="qcurve"/>
      <point x="78" y="1104" type="line"/>
      <point x="49" y="1104"/>
      <point x="49" y="1151" type="qcurve"/>
      <point x="49" y="1198"/>
      <point x="78" y="1198" type="qcurve"/>
    </contour>
  </outline>
</glyph>
<glyph name="uni00B2" format="1">
  <advance width="630"/>
  <unicode hex="00B2"/>
  <outline>
    <contour>
      <point x="526" y="541" type="line"/>
      <point x="516" y="518"/>
      <point x="478" y="518" type="qcurve"/>
      <point x="437" y="518"/>
      <point x="398.5" y="520" type="qcurve"/>
      <point x="360" y="522"/>
      <point x="330" y="522" type="qcurve"/>
      <point x="282" y="522" type="line"/>
      <point x="234" y="520"/>
      <point x="183" y="519" type="qcurve"/>
      <point x="132" y="518"/>
      <point x="77" y="518" type="qcurve"/>
      <point x="45" y="518"/>
      <point x="45" y="546" type="qcurve"/>
      <point x="45" y="559"/>
      <point x="57" y="570" type="qcurve"/>
      <point x="153" y="666"/>
      <point x="246" y="792" type="qcurve"/>
      <point x="399" y="1002"/>
      <point x="399" y="1110" type="qcurve"/>
      <point x="399" y="1233"/>
      <point x="296" y="1233" type="qcurve"/>
      <point x="207" y="1233"/>
      <point x="151" y="1134" type="qcurve"/>
      <point x="148" y="1128"/>
      <point x="141" y="1128" type="qcurve"/>
      <point x="134" y="1128"/>
      <point x="122" y="1135" type="qcurve"/>
      <point x="110" y="1142"/>
      <point x="110" y="1149" type="qcurve"/>
      <point x="110" y="1152"/>
      <point x="112" y="1155" type="qcurve"/>
      <point x="161" y="1250"/>
      <point x="238" y="1294" type="qcurve"/>
      <point x="288" y="1322"/>
      <point x="344" y="1322" type="qcurve"/>
      <point x="442" y="1322"/>
      <point x="501" y="1256" type="qcurve"/>
      <point x="553" y="1198"/>
      <point x="553" y="1116" type="qcurve"/>
      <point x="553" y="1005"/>
      <point x="388" y="816" type="qcurve"/>
      <point x="353" y="776"/>
      <point x="214" y="638" type="qcurve"/>
      <point x="391" y="638" type="line"/>
      <point x="460" y="638"/>
      <point x="486" y="649" type="qcurve"/>
      <point x="513" y="661"/>
      <point x="533" y="697" type="qcurve"/>
      <point x="537" y="704"/>
      <point x="546" y="704" type="qcurve"/>
      <point x="554" y="704"/>
      <point x="565" y="699" type="qcurve"/>
      <point x="585" y="691"/>
      <point x="585" y="683" type="qcurve"/>
      <point x="585" y="681"/>
      <point x="584" y="679" type="qcurve"/>
    </contour>
  </outline>
</glyph>
<glyph name="uni00B3" format="1">
  <advance width="630"/>
  <unicode hex="00B3"/>
  <outline>
    <contour>
      <point x="538" y="778" type="qcurve"/>
      <point x="538" y="674"/>
      <point x="464" y="597" type="qcurve"/>
      <point x="378" y="508"/>
      <point x="247" y="508" type="qcurve"/>
      <point x="161" y="508"/>
      <point x="108" y="538" type="qcurve"/>
      <point x="61" y="564"/>
      <point x="60" y="608" type="qcurve"/>
      <point x="60" y="666"/>
      <point x="133" y="666" type="qcurve"/>
      <point x="160" y="666"/>
      <point x="189" y="633" type="qcurve"/>
      <point x="219" y="597" type="line"/>
      <point x="247" y="569"/>
      <point x="279" y="569" type="qcurve"/>
      <point x="340" y="569"/>
      <point x="372" y="649" type="qcurve"/>
      <point x="392" y="701"/>
      <point x="392" y="763" type="qcurve"/>
      <point x="392" y="843"/>
      <point x="343" y="889" type="qcurve"/>
      <point x="304" y="927"/>
      <point x="245" y="927" type="qcurve"/>
      <point x="210" y="927"/>
      <point x="181" y="916" type="qcurve"/>
      <point x="164" y="916"/>
      <point x="164" y="950" type="qcurve"/>
      <point x="164" y="981"/>
      <point x="177" y="981" type="qcurve"/>
      <point x="269" y="981"/>
      <point x="322" y="1031" type="qcurve"/>
      <point x="363" y="1070"/>
      <point x="363" y="1127" type="qcurve"/>
      <point x="363" y="1187"/>
      <point x="330" y="1221" type="qcurve"/>
      <point x="307" y="1245"/>
      <point x="272" y="1245" type="qcurve"/>
      <point x="217" y="1245"/>
      <point x="171" y="1195" type="qcurve"/>
      <point x="153" y="1175"/>
      <point x="138" y="1152" type="qcurve"/>
      <point x="135" y="1146"/>
      <point x="128" y="1146" type="qcurve"/>
      <point x="120" y="1146"/>
      <point x="108" y="1156" type="qcurve"/>
      <point x="97" y="1164"/>
      <point x="97" y="1172" type="qcurve"/>
      <point x="97" y="1175"/>
      <point x="99" y="1179" type="qcurve"/>
      <point x="156" y="1264"/>
      <point x="208" y="1294" type="qcurve"/>
      <point x="255" y="1322"/>
      <point x="312" y="1322" type="qcurve"/>
      <point x="392" y="1322"/>
      <point x="447" y="1266" type="qcurve"/>
      <point x="498" y="1214"/>
      <point x="498" y="1141" type="qcurve"/>
      <point x="498" y="1038"/>
      <point x="394" y="978" type="qcurve"/>
      <point x="538" y="936"/>
    </contour>
  </outline>
</glyph>
<glyph name="acute" format="1">
  <advance width="569"/>
  <unicode hex="00B4"/>
  <outline>
    <contour>
      <point x="400" y="1336" type="qcurve" smooth="yes"/>
      <point x="221" y="1051" type="line" smooth="yes"/>
      <point x="203" y="1022"/>
      <point x="147" y="1022"/>
      <point x="147" y="1059" type="qcurve" smooth="yes"/>
      <point x="147" y="1071"/>
      <point x="152" y="1081" type="qcurve" smooth="yes"/>
      <point x="287" y="1388" type="line" smooth="yes"/>
      <point x="293" y="1401"/>
      <point x="312" y="1401" type="qcurve" smooth="yes"/>
      <point x="346" y="1401"/>
      <point x="402" y="1356"/>
      <point x="402" y="1343" type="qcurve" smooth="yes"/>
      <point x="402" y="1340"/>
    </contour>
  </outline>
</glyph>
<glyph name="paragraph" format="1">
  <advance width="997"/>
  <unicode hex="00B6"/>
  <outline>
    <contour>
      <point x="836" y="127" type="line"/>
      <point x="836" y="49"/>
      <point x="954" y="49" type="qcurve"/>
      <point x="968" y="49"/>
      <point x="968" y="20.5" type="qcurve"/>
      <point x="968" y="-8"/>
      <point x="954" y="-8" type="qcurve"/>
      <point x="871" y="0"/>
      <point x="797" y="0" type="qcurve"/>
      <point x="541" y="0" type="line"/>
      <point x="459" y="0"/>
      <point x="371" y="-8" type="qcurve"/>
      <point x="357" y="-8"/>
      <point x="357" y="20.5" type="qcurve"/>
      <point x="357" y="49"/>
      <point x="371" y="49" type="qcurve"/>
      <point x="487" y="49"/>
      <point x="487" y="125" type="qcurve"/>
      <point x="487" y="645.067" type="line"/>
      <point x="487" y="692.48"/>
      <point x="436.167" y="695.442" type="qcurve"/>
      <point x="217.109" y="708.21"/>
      <point x="116.555" y="819.105" type="qcurve"/>
      <point x="16" y="930"/>
      <point x="16" y="1096" type="qcurve"/>
      <point x="16" y="1262"/>
      <point x="141.5" y="1359" type="qcurve"/>
      <point x="267" y="1456"/>
      <point x="453" y="1456" type="qcurve"/>
      <point x="538" y="1456"/>
      <point x="644" y="1454" type="qcurve"/>
      <point x="750" y="1452"/>
      <point x="797.5" y="1452" type="qcurve"/>
      <point x="845" y="1452"/>
      <point x="954" y="1458" type="qcurve"/>
      <point x="968" y="1458"/>
      <point x="968" y="1429.5" type="qcurve"/>
      <point x="968" y="1401"/>
      <point x="954" y="1401" type="qcurve"/>
      <point x="836" y="1401"/>
      <point x="836" y="1324" type="qcurve"/>
    </contour>
    <contour>
      <point x="743" y="125" type="qcurve"/>
      <point x="743" y="1324" type="line"/>
      <point x="743" y="1398"/>
      <point x="661.5" y="1398" type="qcurve"/>
      <point x="580" y="1398"/>
      <point x="580" y="1324" type="qcurve"/>
      <point x="580" y="127" type="line"/>
      <point x="580" y="49"/>
      <point x="661.5" y="49" type="qcurve"/>
      <point x="743" y="49"/>
    </contour>
  </outline>
</glyph>
<glyph name="periodcentered" format="1">
  <advance width="745"/>
  <unicode hex="00B7"/>
  <outline>
    <contour>
      <point x="235.88297872340428" y="623.2765957446809" type="qcurve" smooth="yes"/>
      <point x="235.88297872340428" y="674.2765957446809"/>
      <point x="307.8829787234043" y="736.2765957446809"/>
      <point x="417.8829787234043" y="736.2765957446809"/>
      <point x="477.8829787234043" y="662.2765957446809"/>
      <point x="477.8829787234043" y="561.2765957446809"/>
      <point x="408.8829787234043" y="500.2765957446809"/>
      <point x="302.8829787234043" y="500.2765957446809"/>
      <point x="235.88297872340428" y="572.2765957446809"/>
    </contour>
  </outline>
</glyph>
<glyph name="cedilla" format="1">
  <advance width="737"/>
  <unicode hex="00B8"/>
  <outline>
    <contour>
      <point x="406" y="0" type="line"/>
      <point x="479" y="0" type="line"/>
      <point x="421" y="-80" type="line"/>
      <point x="416" y="-87"/>
      <point x="416" y="-94.5" type="qcurve"/>
      <point x="416" y="-102"/>
      <point x="427" y="-110" type="qcurve"/>
      <point x="535" y="-183"/>
      <point x="535" y="-268" type="qcurve"/>
      <point x="535" y="-353"/>
      <point x="468" y="-403" type="qcurve"/>
      <point x="401" y="-453"/>
      <point x="322" y="-453" type="qcurve"/>
      <point x="203" y="-453"/>
      <point x="203" y="-381" type="qcurve"/>
      <point x="203" y="-328"/>
      <point x="254" y="-328" type="qcurve"/>
      <point x="277" y="-328"/>
      <point x="312.5" y="-357.5" type="qcurve"/>
      <point x="348" y="-387"/>
      <point x="362" y="-387" type="qcurve"/>
      <point x="418" y="-387"/>
      <point x="418" y="-319.5" type="qcurve"/>
      <point x="418" y="-252"/>
      <point x="312" y="-196" type="qcurve"/>
      <point x="293" y="-186"/>
      <point x="293" y="-176.5" type="qcurve"/>
      <point x="293" y="-167"/>
      <point x="298" y="-159" type="qcurve"/>
    </contour>
  </outline>
</glyph>
<glyph name="uni00B9" format="1">
  <advance width="630"/>
  <unicode hex="00B9"/>
  <outline>
    <contour>
      <point x="116" y="518" type="qcurve"/>
      <point x="106.5" y="517.994"/>
      <point x="106.5" y="540.5" type="qcurve" smooth="yes"/>
      <point x="106.5" y="563.006"/>
      <point x="116" y="563" type="qcurve" smooth="yes"/>
      <point x="222" y="563"/>
      <point x="222" y="691" type="qcurve" smooth="yes"/>
      <point x="222" y="1175" type="line" smooth="yes"/>
      <point x="222" y="1209.13"/>
      <point x="213" y="1209.13" type="qcurve" smooth="yes"/>
      <point x="206.072" y="1209.13"/>
      <point x="179.203" y="1199.47" type="qcurve"/>
      <point x="152.333" y="1189.8"/>
      <point x="113" y="1171" type="qcurve" smooth="yes"/>
      <point x="110" y="1170"/>
      <point x="107" y="1170" type="qcurve" smooth="yes"/>
      <point x="98" y="1170"/>
      <point x="94" y="1184" type="qcurve" smooth="yes"/>
      <point x="92" y="1191"/>
      <point x="92" y="1196" type="qcurve" smooth="yes"/>
      <point x="92" y="1204"/>
      <point x="99" y="1207" type="qcurve" smooth="yes"/>
      <point x="185.524" y="1243.14"/>
      <point x="308" y="1335" type="qcurve" smooth="yes"/>
      <point x="324" y="1347"/>
      <point x="337" y="1347" type="qcurve" smooth="yes"/>
      <point x="363" y="1347"/>
      <point x="363" y="1323.15" type="qcurve" smooth="yes"/>
      <point x="363" y="1299.31"/>
      <point x="358" y="1253.08"/>
      <point x="358" y="1219" type="qcurve" smooth="yes"/>
      <point x="358" y="692" type="line" smooth="yes"/>
      <point x="358" y="564.815"/>
      <point x="456" y="563" type="qcurve" smooth="yes"/>
      <point x="465" y="563"/>
      <point x="465" y="518"/>
      <point x="456" y="518" type="qcurve"/>
      <point x="408" y="522"/>
      <point x="286" y="522" type="qcurve" smooth="yes"/>
      <point x="164" y="522"/>
    </contour>
  </outline>
</glyph>
<glyph name="guillemotright" format="1">
  <advance width="789"/>
  <unicode hex="00BB"/>
  <outline>
    <contour>
      <point x="364" y="778.5" type="qcurve"/>
      <point x="364" y="786"/>
      <point x="374.5" y="795.5" type="qcurve"/>
      <point x="385" y="805"/>
      <point x="392.5" y="805" type="qcurve"/>
      <point x="400" y="805"/>
      <point x="405" y="800" type="qcurve"/>
      <point x="704" y="488" type="line"/>
      <point x="728" y="463"/>
      <point x="728" y="435" type="qcurve"/>
      <point x="728" y="407"/>
      <point x="704" y="382" type="qcurve"/>
      <point x="405" y="70" type="line"/>
      <point x="400" y="65"/>
      <point x="393.5" y="65" type="qcurve" smooth="yes"/>
      <point x="387" y="65"/>
      <point x="376" y="73.5" type="qcurve"/>
      <point x="365" y="82"/>
      <point x="365" y="91" type="qcurve" smooth="yes"/>
      <point x="365" y="95"/>
      <point x="368" y="100" type="qcurve"/>
      <point x="565" y="394" type="line"/>
      <point x="577" y="412"/>
      <point x="577" y="435" type="qcurve"/>
      <point x="577" y="458"/>
      <point x="565" y="476" type="qcurve"/>
      <point x="368" y="766" type="line"/>
      <point x="364" y="771"/>
    </contour>
    <contour>
      <point x="57" y="777" type="qcurve" smooth="yes"/>
      <point x="57" y="787"/>
      <point x="67.5" y="796" type="qcurve"/>
      <point x="78" y="805"/>
      <point x="85" y="805" type="qcurve" smooth="yes"/>
      <point x="92" y="805"/>
      <point x="98" y="800" type="qcurve"/>
      <point x="397" y="488" type="line"/>
      <point x="421" y="463"/>
      <point x="421" y="435" type="qcurve"/>
      <point x="421" y="407"/>
      <point x="397" y="382" type="qcurve"/>
      <point x="98" y="70" type="line"/>
      <point x="93" y="65"/>
      <point x="86" y="65" type="qcurve" smooth="yes"/>
      <point x="79" y="65"/>
      <point x="68.5" y="73.5" type="qcurve"/>
      <point x="58" y="82"/>
      <point x="58" y="91" type="qcurve" smooth="yes"/>
      <point x="58" y="96"/>
      <point x="61" y="100" type="qcurve"/>
      <point x="258" y="394" type="line"/>
      <point x="270" y="412"/>
      <point x="270" y="435" type="qcurve"/>
      <point x="270" y="458"/>
      <point x="258" y="476" type="qcurve"/>
      <point x="61" y="766" type="line"/>
      <point x="57" y="771"/>
    </contour>
  </outline>
</glyph>
<glyph name="onequarter" format="1">
  <advance width="1509"/>
  <unicode hex="00BC"/>
  <outline>
    <contour>
      <point x="1258" y="1389" type="qcurve"/>
      <point x="367" y="35" type="line"/>
      <point x="364" y="31"/>
      <point x="359" y="31" type="qcurve"/>
      <point x="349" y="31"/>
      <point x="331" y="44" type="qcurve"/>
      <point x="309" y="61"/>
      <point x="309" y="71" type="qcurve"/>
      <point x="309" y="73"/>
      <point x="310" y="74" type="qcurve"/>
      <point x="1198" y="1425" type="line"/>
      <point x="1202" y="1431"/>
      <point x="1208" y="1431" type="qcurve"/>
      <point x="1218" y="1431"/>
      <point x="1236" y="1419" type="qcurve"/>
      <point x="1259" y="1404"/>
      <point x="1259" y="1394" type="qcurve"/>
      <point x="1259" y="1391"/>
    </contour>
    <contour>
      <point x="132" y="518" type="qcurve"/>
      <point x="122" y="518"/>
      <point x="122" y="542.5" type="qcurve"/>
      <point x="122" y="567"/>
      <point x="132" y="567" type="qcurve"/>
      <point x="246" y="567"/>
      <point x="246" y="705" type="qcurve"/>
      <point x="246" y="1229" type="line"/>
      <point x="246" y="1266"/>
      <point x="237" y="1266" type="qcurve"/>
      <point x="230" y="1266"/>
      <point x="200.5" y="1255.5" type="qcurve"/>
      <point x="171" y="1245"/>
      <point x="128" y="1225" type="qcurve"/>
      <point x="125" y="1224"/>
      <point x="122" y="1224" type="qcurve"/>
      <point x="112" y="1224"/>
      <point x="108" y="1239" type="qcurve"/>
      <point x="106" y="1247"/>
      <point x="106" y="1252" type="qcurve"/>
      <point x="106" y="1261"/>
      <point x="113" y="1264" type="qcurve"/>
      <point x="207" y="1303"/>
      <point x="339" y="1402" type="qcurve"/>
      <point x="356" y="1415"/>
      <point x="371" y="1415" type="qcurve"/>
      <point x="399" y="1415"/>
      <point x="399" y="1389.5" type="qcurve"/>
      <point x="399" y="1364"/>
      <point x="396.5" y="1339" type="qcurve"/>
      <point x="394" y="1314"/>
      <point x="394" y="1277" type="qcurve"/>
      <point x="394" y="706" type="line"/>
      <point x="394" y="568"/>
      <point x="500" y="567" type="qcurve"/>
      <point x="510" y="567"/>
      <point x="510" y="542.5" type="qcurve"/>
      <point x="510" y="518"/>
      <point x="500" y="518" type="qcurve"/>
      <point x="448" y="522"/>
      <point x="316" y="522" type="qcurve"/>
      <point x="184" y="522"/>
    </contour>
    <contour>
      <point x="1384" y="101" type="line"/>
      <point x="1384" y="44"/>
      <point x="1450" y="44" type="qcurve"/>
      <point x="1460" y="44"/>
      <point x="1460" y="19.5" type="qcurve"/>
      <point x="1460" y="-5"/>
      <point x="1450" y="-5" type="qcurve"/>
      <point x="1398" y="0"/>
      <point x="1315" y="0" type="qcurve"/>
      <point x="1199" y="0"/>
      <point x="1144" y="-5" type="qcurve"/>
      <point x="1134" y="-5"/>
      <point x="1134" y="19.5" type="qcurve"/>
      <point x="1134" y="44"/>
      <point x="1144" y="44" type="qcurve"/>
      <point x="1236" y="44"/>
      <point x="1236" y="101" type="qcurve"/>
      <point x="1236" y="241" type="line"/>
      <point x="937" y="241" type="line"/>
      <point x="880" y="241"/>
      <point x="880" y="279" type="qcurve"/>
      <point x="880" y="311"/>
      <point x="914" y="358" type="qcurve"/>
      <point x="1102" y="607" type="line"/>
      <point x="1224" y="769"/>
      <point x="1257" y="821" type="qcurve"/>
      <point x="1318" y="918" type="line"/>
      <point x="1328" y="930"/>
      <point x="1346" y="930" type="qcurve"/>
      <point x="1401" y="930"/>
      <point x="1402" y="895" type="qcurve"/>
      <point x="1402" y="889"/>
      <point x="1399" y="884" type="qcurve"/>
      <point x="998" y="354" type="line"/>
      <point x="992" y="346"/>
      <point x="992" y="340" type="qcurve"/>
      <point x="992" y="328"/>
      <point x="1004" y="328" type="qcurve"/>
      <point x="1236" y="328" type="line"/>
      <point x="1236" y="606" type="line"/>
      <point x="1236" y="620"/>
      <point x="1309" y="620" type="qcurve"/>
      <point x="1384" y="620"/>
      <point x="1384" y="606" type="qcurve"/>
      <point x="1384" y="328" type="line"/>
      <point x="1464" y="328" type="line"/>
      <point x="1474" y="328"/>
      <point x="1474" y="285" type="qcurve"/>
      <point x="1474" y="241"/>
      <point x="1464" y="241" type="qcurve"/>
      <point x="1384" y="241" type="line"/>
    </contour>
  </outline>
</glyph>
<glyph name="onehalf" format="1">
  <advance width="1509"/>
  <unicode hex="00BD"/>
  <outline>
    <contour>
      <point x="1402" y="20" type="line"/>
      <point x="1391" y="-4"/>
      <point x="1351" y="-4" type="qcurve"/>
      <point x="1307" y="-4"/>
      <point x="1265" y="-2" type="qcurve"/>
      <point x="1223" y="0"/>
      <point x="1191" y="0" type="qcurve"/>
      <point x="1139" y="0" type="line"/>
      <point x="1087" y="-2"/>
      <point x="1032" y="-3" type="qcurve"/>
      <point x="977" y="-4"/>
      <point x="917" y="-4" type="qcurve"/>
      <point x="883" y="-4"/>
      <point x="883" y="26" type="qcurve"/>
      <point x="883" y="40"/>
      <point x="896" y="52" type="qcurve"/>
      <point x="1000" y="156"/>
      <point x="1100" y="292" type="qcurve"/>
      <point x="1265" y="519"/>
      <point x="1265" y="635" type="qcurve"/>
      <point x="1265" y="768"/>
      <point x="1154" y="768" type="qcurve"/>
      <point x="1058" y="768"/>
      <point x="997" y="661" type="qcurve"/>
      <point x="993" y="654"/>
      <point x="986" y="654" type="qcurve"/>
      <point x="979" y="654"/>
      <point x="966" y="662" type="qcurve"/>
      <point x="953" y="670"/>
      <point x="953" y="677" type="qcurve"/>
      <point x="953" y="680"/>
      <point x="955" y="684" type="qcurve"/>
      <point x="1008" y="787"/>
      <point x="1091" y="834" type="qcurve"/>
      <point x="1145" y="864"/>
      <point x="1206" y="864" type="qcurve"/>
      <point x="1312" y="864"/>
      <point x="1375" y="793" type="qcurve"/>
      <point x="1431" y="730"/>
      <point x="1432" y="641" type="qcurve"/>
      <point x="1432" y="521"/>
      <point x="1253" y="317" type="qcurve"/>
      <point x="1215" y="274"/>
      <point x="1065" y="125" type="qcurve"/>
      <point x="1257" y="125" type="line"/>
      <point x="1332" y="125"/>
      <point x="1359" y="137" type="qcurve"/>
      <point x="1388" y="150"/>
      <point x="1410" y="189" type="qcurve"/>
      <point x="1414" y="197"/>
      <point x="1424" y="197" type="qcurve"/>
      <point x="1433" y="197"/>
      <point x="1445" y="191" type="qcurve"/>
      <point x="1466" y="181"/>
      <point x="1466" y="174" type="qcurve"/>
      <point x="1466" y="172"/>
      <point x="1465" y="170" type="qcurve"/>
    </contour>
    <contour>
      <point x="132" y="518" type="qcurve"/>
      <point x="122" y="518"/>
      <point x="122" y="542.5" type="qcurve"/>
      <point x="122" y="567"/>
      <point x="132" y="567" type="qcurve"/>
      <point x="246" y="567"/>
      <point x="246" y="705" type="qcurve"/>
      <point x="246" y="1229" type="line"/>
      <point x="246" y="1266"/>
      <point x="237" y="1266" type="qcurve"/>
      <point x="230" y="1266"/>
      <point x="200.5" y="1255.5" type="qcurve"/>
      <point x="171" y="1245"/>
      <point x="128" y="1225" type="qcurve"/>
      <point x="125" y="1224"/>
      <point x="122" y="1224" type="qcurve"/>
      <point x="112" y="1224"/>
      <point x="108" y="1239" type="qcurve"/>
      <point x="106" y="1247"/>
      <point x="106" y="1252" type="qcurve"/>
      <point x="106" y="1261"/>
      <point x="113" y="1264" type="qcurve"/>
      <point x="207" y="1303"/>
      <point x="339" y="1402" type="qcurve"/>
      <point x="356" y="1415"/>
      <point x="371" y="1415" type="qcurve"/>
      <point x="399" y="1415"/>
      <point x="399" y="1389.5" type="qcurve"/>
      <point x="399" y="1364"/>
      <point x="396.5" y="1339" type="qcurve"/>
      <point x="394" y="1314"/>
      <point x="394" y="1277" type="qcurve"/>
      <point x="394" y="706" type="line"/>
      <point x="394" y="568"/>
      <point x="500" y="567" type="qcurve"/>
      <point x="510" y="567"/>
      <point x="510" y="542.5" type="qcurve"/>
      <point x="510" y="518"/>
      <point x="500" y="518" type="qcurve"/>
      <point x="448" y="522"/>
      <point x="316" y="522" type="qcurve"/>
      <point x="184" y="522"/>
    </contour>
    <contour>
      <point x="1255" y="1389" type="qcurve"/>
      <point x="364" y="35" type="line"/>
      <point x="361" y="31"/>
      <point x="356" y="31" type="qcurve"/>
      <point x="346" y="31"/>
      <point x="328" y="44" type="qcurve"/>
      <point x="306" y="61"/>
      <point x="306" y="71" type="qcurve"/>
      <point x="306" y="73"/>
      <point x="307" y="74" type="qcurve"/>
      <point x="1195" y="1425" type="line"/>
      <point x="1199" y="1431"/>
      <point x="1205" y="1431" type="qcurve"/>
      <point x="1215" y="1431"/>
      <point x="1233" y="1419" type="qcurve"/>
      <point x="1256" y="1404"/>
      <point x="1256" y="1394" type="qcurve"/>
      <point x="1256" y="1391"/>
    </contour>
  </outline>
</glyph>
<glyph name="threequarters" format="1">
  <advance width="1509"/>
  <unicode hex="00BE"/>
  <outline>
    <contour>
      <point x="1258" y="1389" type="qcurve"/>
      <point x="367" y="35" type="line"/>
      <point x="364" y="31"/>
      <point x="359" y="31" type="qcurve"/>
      <point x="349" y="31"/>
      <point x="331" y="44" type="qcurve"/>
      <point x="309" y="61"/>
      <point x="309" y="71" type="qcurve"/>
      <point x="309" y="73"/>
      <point x="310" y="74" type="qcurve"/>
      <point x="1198" y="1425" type="line"/>
      <point x="1202" y="1431"/>
      <point x="1208" y="1431" type="qcurve"/>
      <point x="1218" y="1431"/>
      <point x="1236" y="1419" type="qcurve"/>
      <point x="1259" y="1404"/>
      <point x="1259" y="1394" type="qcurve"/>
      <point x="1259" y="1391"/>
    </contour>
    <contour>
      <point x="555.9" y="798.3" type="qcurve"/>
      <point x="555.9" y="683.9"/>
      <point x="474.5" y="599.2" type="qcurve"/>
      <point x="379.9" y="501.3"/>
      <point x="235.8" y="501.3" type="qcurve"/>
      <point x="141.2" y="501.3"/>
      <point x="82.9004" y="534.3" type="qcurve"/>
      <point x="31.2002" y="562.9"/>
      <point x="30.0996" y="611.3" type="qcurve"/>
      <point x="30.0996" y="675.1"/>
      <point x="110.4" y="675.1" type="qcurve"/>
      <point x="140.1" y="675.1"/>
      <point x="172" y="638.8" type="qcurve"/>
      <point x="205" y="599.2" type="line"/>
      <point x="235.8" y="568.4"/>
      <point x="271" y="568.4" type="qcurve"/>
      <point x="338.1" y="568.4"/>
      <point x="373.3" y="656.4" type="qcurve"/>
      <point x="395.3" y="713.6"/>
      <point x="395.3" y="781.8" type="qcurve"/>
      <point x="395.3" y="869.8"/>
      <point x="341.4" y="920.4" type="qcurve"/>
      <point x="298.5" y="962.2"/>
      <point x="233.6" y="962.2" type="qcurve"/>
      <point x="195.1" y="962.2"/>
      <point x="163.2" y="950.1" type="qcurve"/>
      <point x="144.5" y="950.1"/>
      <point x="144.5" y="987.5" type="qcurve"/>
      <point x="144.5" y="1021.6"/>
      <point x="158.8" y="1021.6" type="qcurve"/>
      <point x="260" y="1021.6"/>
      <point x="318.3" y="1076.6" type="qcurve"/>
      <point x="363.4" y="1119.5"/>
      <point x="363.4" y="1182.2" type="qcurve"/>
      <point x="363.4" y="1248.2"/>
      <point x="327.1" y="1285.6" type="qcurve"/>
      <point x="301.8" y="1312"/>
      <point x="263.3" y="1312" type="qcurve"/>
      <point x="202.8" y="1312"/>
      <point x="152.2" y="1257" type="qcurve"/>
      <point x="132.4" y="1235"/>
      <point x="115.9" y="1209.7" type="qcurve"/>
      <point x="112.6" y="1203.1"/>
      <point x="104.9" y="1203.1" type="qcurve"/>
      <point x="96.0996" y="1203.1"/>
      <point x="82.9004" y="1214.1" type="qcurve"/>
      <point x="70.7998" y="1222.9"/>
      <point x="70.7998" y="1231.7" type="qcurve"/>
      <point x="70.7998" y="1235"/>
      <point x="73" y="1239.4" type="qcurve"/>
      <point x="135.7" y="1332.9"/>
      <point x="192.9" y="1365.9" type="qcurve"/>
      <point x="244.6" y="1396.7"/>
      <point x="307.3" y="1396.7" type="qcurve"/>
      <point x="395.3" y="1396.7"/>
      <point x="455.8" y="1335.1" type="qcurve"/>
      <point x="511.9" y="1277.9"/>
      <point x="511.9" y="1197.6" type="qcurve"/>
      <point x="511.9" y="1084.3"/>
      <point x="397.5" y="1018.3" type="qcurve"/>
      <point x="555.9" y="972.1"/>
    </contour>
    <contour>
      <point x="1384" y="101" type="line" smooth="yes"/>
      <point x="1384" y="44"/>
      <point x="1450" y="44" type="qcurve" smooth="yes"/>
      <point x="1460" y="44"/>
      <point x="1460" y="-5"/>
      <point x="1450" y="-5" type="qcurve"/>
      <point x="1398" y="0"/>
      <point x="1315" y="0" type="qcurve" smooth="yes"/>
      <point x="1199" y="0"/>
      <point x="1144" y="-5" type="qcurve"/>
      <point x="1134" y="-5"/>
      <point x="1134" y="44"/>
      <point x="1144" y="44" type="qcurve" smooth="yes"/>
      <point x="1236" y="44"/>
      <point x="1236" y="101" type="qcurve" smooth="yes"/>
      <point x="1236" y="241" type="line"/>
      <point x="937" y="241" type="line" smooth="yes"/>
      <point x="880" y="241"/>
      <point x="880" y="279" type="qcurve" smooth="yes"/>
      <point x="880" y="311"/>
      <point x="914" y="358" type="qcurve" smooth="yes"/>
      <point x="1102" y="607" type="line" smooth="yes"/>
      <point x="1224" y="769"/>
      <point x="1257" y="821" type="qcurve" smooth="yes"/>
      <point x="1318" y="918" type="line" smooth="yes"/>
      <point x="1328" y="930"/>
      <point x="1346" y="930" type="qcurve" smooth="yes"/>
      <point x="1401" y="930"/>
      <point x="1402" y="895" type="qcurve" smooth="yes"/>
      <point x="1402" y="889"/>
      <point x="1399" y="884" type="qcurve" smooth="yes"/>
      <point x="998" y="354" type="line" smooth="yes"/>
      <point x="992" y="346"/>
      <point x="992" y="340" type="qcurve" smooth="yes"/>
      <point x="992" y="328"/>
      <point x="1004" y="328" type="qcurve" smooth="yes"/>
      <point x="1236" y="328" type="line"/>
      <point x="1236" y="606" type="line" smooth="yes"/>
      <point x="1236" y="620"/>
      <point x="1309" y="620" type="qcurve" smooth="yes"/>
      <point x="1384" y="620"/>
      <point x="1384" y="606" type="qcurve" smooth="yes"/>
      <point x="1384" y="328" type="line"/>
      <point x="1464" y="328" type="line" smooth="yes"/>
      <point x="1474" y="328"/>
      <point x="1474" y="285" type="qcurve" smooth="yes"/>
      <point x="1474" y="241"/>
      <point x="1464" y="241" type="qcurve" smooth="yes"/>
      <point x="1384" y="241" type="line"/>
    </contour>
  </outline>
</glyph>
<glyph name="questiondown" format="1">
  <advance width="752"/>
  <unicode hex="00BF"/>
  <outline>
    <contour>
      <point x="513" y="-531" type="qcurve"/>
      <point x="383" y="-531"/>
      <point x="267" y="-395" type="qcurve"/>
      <point x="151" y="-259"/>
      <point x="151" y="-106" type="qcurve"/>
      <point x="151" y="47"/>
      <point x="233" y="90" type="qcurve"/>
      <point x="398" y="178" type="line"/>
      <point x="472" y="219"/>
      <point x="472" y="271.5" type="qcurve"/>
      <point x="472" y="324"/>
      <point x="452" y="393" type="qcurve"/>
      <point x="452" y="412"/>
      <point x="474" y="412" type="qcurve"/>
      <point x="489" y="412"/>
      <point x="497" y="405" type="qcurve"/>
      <point x="572" y="269"/>
      <point x="572" y="187" type="qcurve"/>
      <point x="572" y="105"/>
      <point x="458" y="43" type="qcurve"/>
      <point x="353" y="-13" type="line"/>
      <point x="237" y="-75"/>
      <point x="237" y="-164" type="qcurve"/>
      <point x="237" y="-363"/>
      <point x="529" y="-363" type="qcurve"/>
      <point x="597" y="-363"/>
      <point x="597" y="-447" type="qcurve"/>
      <point x="597" y="-531"/>
    </contour>
    <contour>
      <point x="349" y="744" type="qcurve"/>
      <point x="349" y="794"/>
      <point x="384" y="830.5" type="qcurve"/>
      <point x="419" y="867"/>
      <point x="470" y="867" type="qcurve"/>
      <point x="521" y="867"/>
      <point x="554" y="829" type="qcurve"/>
      <point x="587" y="791"/>
      <point x="587" y="738" type="qcurve"/>
      <point x="587" y="685"/>
      <point x="552" y="654" type="qcurve"/>
      <point x="517" y="623"/>
      <point x="465.5" y="623" type="qcurve"/>
      <point x="414" y="623"/>
      <point x="381.5" y="658.5" type="qcurve"/>
      <point x="349" y="694"/>
    </contour>
  </outline>
</glyph>
<glyph name="Aring" format="1">
  <advance width="1398"/>
  <unicode hex="00C5"/>
  <outline>
    <contour>
      <point x="9" y="-7" type="qcurve"/>
      <point x="-4" y="-7"/>
      <point x="-4" y="31" type="qcurve"/>
      <point x="-4" y="69"/>
      <point x="9" y="69" type="qcurve"/>
      <point x="94" y="69"/>
      <point x="134" y="94.5" type="qcurve"/>
      <point x="174" y="120"/>
      <point x="204" y="201" type="qcurve"/>
      <point x="618" y="1287" type="line"/>
      <point x="630" y="1319"/>
      <point x="630" y="1332.5" type="qcurve"/>
      <point x="630" y="1346"/>
      <point x="593" y="1365" type="qcurve"/>
      <point x="518" y="1413"/>
      <point x="518" y="1513" type="qcurve"/>
      <point x="518" y="1599"/>
      <point x="581" y="1646.5" type="qcurve"/>
      <point x="644" y="1694"/>
      <point x="724" y="1694" type="qcurve"/>
      <point x="804" y="1694"/>
      <point x="853" y="1635" type="qcurve"/>
      <point x="902" y="1576"/>
      <point x="902" y="1513" type="qcurve"/>
      <point x="902" y="1418"/>
      <point x="830" y="1370" type="qcurve"/>
      <point x="800" y="1353"/>
      <point x="800" y="1334.5" type="qcurve"/>
      <point x="800" y="1316"/>
      <point x="808" y="1289" type="qcurve"/>
      <point x="1175" y="186" type="line"/>
      <point x="1214" y="69"/>
      <point x="1367" y="69" type="qcurve"/>
      <point x="1380" y="69"/>
      <point x="1380" y="31" type="qcurve"/>
      <point x="1380" y="-7"/>
      <point x="1367" y="-7" type="qcurve"/>
      <point x="1294" y="0"/>
      <point x="1136" y="0" type="qcurve"/>
      <point x="978" y="0"/>
      <point x="906" y="-7" type="qcurve"/>
      <point x="892" y="-7"/>
      <point x="892" y="31" type="qcurve"/>
      <point x="892" y="69"/>
      <point x="906" y="69" type="qcurve"/>
      <point x="1005" y="69"/>
      <point x="1005" y="137" type="qcurve"/>
      <point x="1005" y="160"/>
      <point x="997" y="186" type="qcurve"/>
      <point x="896" y="499" type="line"/>
      <point x="887" y="531"/>
      <point x="852" y="531" type="qcurve"/>
      <point x="445" y="531" type="line"/>
      <point x="417" y="531"/>
      <point x="405" y="496" type="qcurve"/>
      <point x="292" y="182" type="line"/>
      <point x="283" y="160"/>
      <point x="283" y="142" type="qcurve"/>
      <point x="283" y="69"/>
      <point x="434" y="69" type="qcurve"/>
      <point x="448" y="69"/>
      <point x="448" y="31" type="qcurve"/>
      <point x="448" y="-7"/>
      <point x="434" y="-7" type="qcurve"/>
      <point x="354" y="0"/>
      <point x="219" y="0" type="qcurve"/>
      <point x="84" y="0"/>
    </contour>
    <contour>
      <point x="608" y="1513" type="qcurve"/>
      <point x="608" y="1453"/>
      <point x="639" y="1423.5" type="qcurve"/>
      <point x="670" y="1394"/>
      <point x="711" y="1394" type="qcurve"/>
      <point x="760" y="1394"/>
      <point x="785" y="1430" type="qcurve"/>
      <point x="810" y="1466"/>
      <point x="810" y="1513" type="qcurve"/>
      <point x="810" y="1566"/>
      <point x="782" y="1598.5" type="qcurve"/>
      <point x="754" y="1631"/>
      <point x="711" y="1631" type="qcurve"/>
      <point x="659" y="1631"/>
      <point x="633.5" y="1592.5" type="qcurve"/>
      <point x="608" y="1554"/>
    </contour>
    <contour>
      <point x="831" y="600" type="line"/>
      <point x="855" y="600"/>
      <point x="855" y="614" type="qcurve"/>
      <point x="855" y="621"/>
      <point x="853" y="627" type="qcurve"/>
      <point x="684" y="1159" type="line"/>
      <point x="678" y="1179"/>
      <point x="666" y="1179" type="qcurve"/>
      <point x="654" y="1179"/>
      <point x="647" y="1159" type="qcurve"/>
      <point x="450" y="627" type="line"/>
      <point x="448" y="622"/>
      <point x="448" y="614" type="qcurve"/>
      <point x="448" y="600"/>
      <point x="472" y="600" type="qcurve"/>
    </contour>
  </outline>
</glyph>
<glyph name="AE" format="1">
  <advance width="1742"/>
  <unicode hex="00C6"/>
  <outline>
    <contour>
      <point x="66" y="172" type="qcurve" smooth="yes"/>
      <point x="642" y="1196" type="line" smooth="yes"/>
      <point x="658" y="1224"/>
      <point x="658" y="1241" type="qcurve" smooth="yes"/>
      <point x="658" y="1282"/>
      <point x="575" y="1282" type="qcurve" smooth="yes"/>
      <point x="562" y="1282"/>
      <point x="562" y="1358"/>
      <point x="575" y="1358" type="qcurve" smooth="yes"/>
      <point x="714" y="1352"/>
      <point x="986" y="1352"/>
      <point x="1375" y="1358"/>
      <point x="1560" y="1358"/>
      <point x="1580" y="1344"/>
      <point x="1580" y="1325" type="qcurve" smooth="yes"/>
      <point x="1580" y="1006" type="line" smooth="yes"/>
      <point x="1580" y="993"/>
      <point x="1505" y="993"/>
      <point x="1505" y="1006" type="qcurve" smooth="yes"/>
      <point x="1505" y="1138"/>
      <point x="1338" y="1281"/>
      <point x="1243" y="1283" type="qcurve" smooth="yes"/>
      <point x="974" y="1289" type="line" smooth="yes"/>
      <point x="933" y="1289"/>
      <point x="933" y="1249" type="qcurve" smooth="yes"/>
      <point x="933" y="711" type="line" smooth="yes"/>
      <point x="933" y="676"/>
      <point x="968" y="676" type="qcurve" smooth="yes"/>
      <point x="1181" y="676" type="line" smooth="yes"/>
      <point x="1282" y="676"/>
      <point x="1282" y="769" type="qcurve" smooth="yes"/>
      <point x="1282" y="864" type="line" smooth="yes"/>
      <point x="1282" y="877"/>
      <point x="1351" y="877"/>
      <point x="1351" y="864" type="qcurve"/>
      <point x="1345" y="807"/>
      <point x="1345" y="488"/>
      <point x="1351" y="436" type="qcurve"/>
      <point x="1351" y="423"/>
      <point x="1282" y="423"/>
      <point x="1282" y="436" type="qcurve" smooth="yes"/>
      <point x="1282" y="520" type="line" smooth="yes"/>
      <point x="1282" y="607"/>
      <point x="1181" y="607" type="qcurve" smooth="yes"/>
      <point x="968" y="607" type="line" smooth="yes"/>
      <point x="933" y="607"/>
      <point x="933" y="573" type="qcurve" smooth="yes"/>
      <point x="933" y="300" type="line" smooth="yes"/>
      <point x="933" y="178"/>
      <point x="1036" y="62"/>
      <point x="1101" y="62" type="qcurve"/>
      <point x="1339" y="69" type="line" smooth="yes"/>
      <point x="1428" y="72"/>
      <point x="1587" y="220"/>
      <point x="1587" y="344" type="qcurve" smooth="yes"/>
      <point x="1587" y="362"/>
      <point x="1662" y="362"/>
      <point x="1662" y="344" type="qcurve" smooth="yes"/>
      <point x="1662" y="19" type="line" smooth="yes"/>
      <point x="1662" y="-7"/>
      <point x="1458" y="-7"/>
      <point x="998" y="0"/>
      <point x="730" y="0"/>
      <point x="603" y="-7" type="qcurve" smooth="yes"/>
      <point x="590" y="-7"/>
      <point x="590" y="69"/>
      <point x="603" y="69" type="qcurve" smooth="yes"/>
      <point x="773" y="69"/>
      <point x="773" y="177" type="qcurve" smooth="yes"/>
      <point x="773" y="573" type="line" smooth="yes"/>
      <point x="773" y="607"/>
      <point x="740" y="607" type="qcurve" smooth="yes"/>
      <point x="423" y="607" type="line" smooth="yes"/>
      <point x="394" y="607"/>
      <point x="382" y="583" type="qcurve" smooth="yes"/>
      <point x="172" y="168" type="line" smooth="yes"/>
      <point x="160" y="144"/>
      <point x="160" y="128" type="qcurve" smooth="yes"/>
      <point x="160" y="69"/>
      <point x="312" y="69" type="qcurve" smooth="yes"/>
      <point x="326" y="69"/>
      <point x="326" y="-7"/>
      <point x="312" y="-7" type="qcurve"/>
      <point x="238" y="0"/>
      <point x="-32" y="0"/>
      <point x="-113" y="-7" type="qcurve"/>
      <point x="-126" y="-7"/>
      <point x="-126" y="69"/>
      <point x="-113" y="69" type="qcurve" smooth="yes"/>
      <point x="8" y="69"/>
    </contour>
    <contour>
      <point x="470" y="676" type="qcurve" smooth="yes"/>
      <point x="740" y="676" type="line" smooth="yes"/>
      <point x="773" y="676"/>
      <point x="773" y="711" type="qcurve" smooth="yes"/>
      <point x="773" y="1190" type="line" smooth="yes"/>
      <point x="773" y="1217"/>
      <point x="734" y="1217"/>
      <point x="724" y="1196" type="qcurve"/>
      <point x="452" y="705" type="line" smooth="yes"/>
      <point x="448" y="698"/>
      <point x="448" y="690" type="qcurve" smooth="yes"/>
      <point x="448" y="676"/>
    </contour>
  </outline>
</glyph>
<glyph name="Ccedilla" format="1">
  <advance width="1344"/>
  <unicode hex="00C7"/>
  <outline>
    <contour>
      <point x="858" y="-284" type="qcurve" smooth="yes"/>
      <point x="858" y="-367"/>
      <point x="723" y="-465"/>
      <point x="645" y="-465" type="qcurve" smooth="yes"/>
      <point x="526" y="-465"/>
      <point x="526" y="-393" type="qcurve" smooth="yes"/>
      <point x="526" y="-340"/>
      <point x="577" y="-340" type="qcurve" smooth="yes"/>
      <point x="600" y="-340"/>
      <point x="671" y="-399"/>
      <point x="685" y="-399" type="qcurve" smooth="yes"/>
      <point x="741" y="-399"/>
      <point x="741" y="-336" type="qcurve" smooth="yes"/>
      <point x="741" y="-269"/>
      <point x="644" y="-213" type="qcurve"/>
      <point x="620" y="-201"/>
      <point x="620" y="-174"/>
      <point x="629" y="-160" type="qcurve" smooth="yes"/>
      <point x="690" y="-69" type="line" smooth="yes"/>
      <point x="700" y="-54"/>
      <point x="700" y="-25"/>
      <point x="676" y="-23" type="qcurve" smooth="yes"/>
      <point x="559" y="-12"/>
      <point x="276" y="145"/>
      <point x="91" y="448"/>
      <point x="91" y="647" type="qcurve" smooth="yes"/>
      <point x="91" y="870"/>
      <point x="282" y="1199"/>
      <point x="588" y="1385"/>
      <point x="812" y="1385" type="qcurve" smooth="yes"/>
      <point x="923" y="1385"/>
      <point x="1101" y="1350"/>
      <point x="1230" y="1327" type="qcurve"/>
      <point x="1259" y="1193"/>
      <point x="1259" y="1016" type="qcurve" smooth="yes"/>
      <point x="1259" y="1000"/>
      <point x="1192" y="1000"/>
      <point x="1190" y="1014" type="qcurve" smooth="yes"/>
      <point x="1162" y="1314"/>
      <point x="783" y="1314" type="qcurve" smooth="yes"/>
      <point x="579" y="1314"/>
      <point x="282" y="946"/>
      <point x="282" y="707" type="qcurve" smooth="yes"/>
      <point x="282" y="424"/>
      <point x="572" y="48"/>
      <point x="780" y="48" type="qcurve" smooth="yes"/>
      <point x="1134" y="48"/>
      <point x="1232" y="317" type="qcurve" smooth="yes"/>
      <point x="1236" y="328"/>
      <point x="1285" y="328"/>
      <point x="1299" y="317"/>
      <point x="1299" y="306" type="qcurve"/>
      <point x="1262" y="115"/>
      <point x="1209" y="36" type="qcurve"/>
      <point x="1177" y="32"/>
      <point x="1132" y="19" type="qcurve" smooth="yes"/>
      <point x="999" y="-22"/>
      <point x="826" y="-26" type="qcurve" smooth="yes"/>
      <point x="791" y="-27"/>
      <point x="773" y="-52" type="qcurve" smooth="yes"/>
      <point x="753" y="-80" type="line"/>
      <point x="743" y="-92"/>
      <point x="743" y="-118"/>
      <point x="762" y="-130" type="qcurve"/>
      <point x="858" y="-201"/>
    </contour>
  </outline>
</glyph>
<glyph name="Eth" format="1">
  <advance width="1525"/>
  <unicode hex="00D0"/>
  <outline>
    <contour>
      <point x="271" y="186" type="qcurve" smooth="yes"/>
      <point x="271" y="600" type="line" smooth="yes"/>
      <point x="271" y="634"/>
      <point x="237" y="634" type="qcurve" smooth="yes"/>
      <point x="65" y="634" type="line" smooth="yes"/>
      <point x="52" y="634"/>
      <point x="52" y="710"/>
      <point x="65" y="710" type="qcurve" smooth="yes"/>
      <point x="237" y="710" type="line" smooth="yes"/>
      <point x="271" y="710"/>
      <point x="271" y="745" type="qcurve" smooth="yes"/>
      <point x="271" y="1172" type="line" smooth="yes"/>
      <point x="271" y="1282"/>
      <point x="82" y="1282" type="qcurve" smooth="yes"/>
      <point x="68" y="1282"/>
      <point x="68" y="1358"/>
      <point x="82" y="1358" type="qcurve" smooth="yes"/>
      <point x="222" y="1352"/>
      <point x="418" y="1352"/>
      <point x="631" y="1358"/>
      <point x="703" y="1358" type="qcurve" smooth="yes"/>
      <point x="1006" y="1358"/>
      <point x="1432" y="1030"/>
      <point x="1432" y="729" type="qcurve" smooth="yes"/>
      <point x="1432" y="380"/>
      <point x="1045" y="-7"/>
      <point x="751" y="-7" type="qcurve" smooth="yes"/>
      <point x="683" y="-7"/>
      <point x="418" y="0"/>
      <point x="220" y="0"/>
      <point x="91" y="-7" type="qcurve" smooth="yes"/>
      <point x="78" y="-7"/>
      <point x="78" y="69"/>
      <point x="91" y="69" type="qcurve" smooth="yes"/>
      <point x="271" y="69"/>
    </contour>
    <contour>
      <point x="431" y="298" type="line" smooth="yes"/>
      <point x="431" y="156"/>
      <point x="535" y="53"/>
      <point x="682" y="53" type="qcurve" smooth="yes"/>
      <point x="925" y="53"/>
      <point x="1241" y="409"/>
      <point x="1241" y="716" type="qcurve" smooth="yes"/>
      <point x="1241" y="956"/>
      <point x="901" y="1297"/>
      <point x="621" y="1297" type="qcurve" smooth="yes"/>
      <point x="501" y="1297"/>
      <point x="431" y="1250"/>
      <point x="431" y="1181" type="qcurve" smooth="yes"/>
      <point x="431" y="745" type="line" smooth="yes"/>
      <point x="431" y="710"/>
      <point x="466" y="710" type="qcurve" smooth="yes"/>
      <point x="687" y="710" type="line" smooth="yes"/>
      <point x="700" y="710"/>
      <point x="700" y="634"/>
      <point x="687" y="634" type="qcurve" smooth="yes"/>
      <point x="466" y="634" type="line" smooth="yes"/>
      <point x="431" y="634"/>
      <point x="431" y="600" type="qcurve" smooth="yes"/>
    </contour>
  </outline>
</glyph>
<glyph name="multiply" format="1">
  <advance width="786"/>
  <unicode hex="00D7"/>
  <outline>
    <contour>
      <point x="725" y="98" type="line"/>
      <point x="641" y="12" type="line"/>
      <point x="397" y="256" type="line"/>
      <point x="156" y="12" type="line"/>
      <point x="70" y="98" type="line"/>
      <point x="311" y="342" type="line"/>
      <point x="70" y="584" type="line"/>
      <point x="156" y="670" type="line"/>
      <point x="397" y="426" type="line"/>
      <point x="641" y="670" type="line"/>
      <point x="725" y="584" type="line"/>
      <point x="483" y="342" type="line"/>
    </contour>
  </outline>
</glyph>
<glyph name="Oslash" format="1">
  <advance width="1461"/>
  <unicode hex="00D8"/>
  <outline>
    <contour>
      <point x="91" y="667" type="qcurve"/>
      <point x="91" y="930"/>
      <point x="267" y="1157.5" type="qcurve"/>
      <point x="443" y="1385"/>
      <point x="740" y="1385" type="qcurve"/>
      <point x="975" y="1385"/>
      <point x="1150" y="1222" type="qcurve"/>
      <point x="1236" y="1325" type="line"/>
      <point x="1240" y="1329"/>
      <point x="1246" y="1329" type="qcurve"/>
      <point x="1258" y="1329"/>
      <point x="1281.5" y="1310" type="qcurve"/>
      <point x="1305" y="1291"/>
      <point x="1305" y="1277" type="qcurve"/>
      <point x="1305" y="1273"/>
      <point x="1303" y="1269" type="qcurve"/>
      <point x="1210" y="1159" type="line"/>
      <point x="1383" y="956"/>
      <point x="1383" y="663" type="qcurve"/>
      <point x="1383" y="407"/>
      <point x="1209" y="190" type="qcurve"/>
      <point x="1035" y="-27"/>
      <point x="735" y="-27" type="qcurve"/>
      <point x="495" y="-27"/>
      <point x="332" y="113" type="qcurve"/>
      <point x="232" y="-6" type="line"/>
      <point x="229" y="-9"/>
      <point x="225" y="-9" type="qcurve"/>
      <point x="213" y="-9"/>
      <point x="189" y="14" type="qcurve"/>
      <point x="165" y="37"/>
      <point x="165" y="46" type="qcurve"/>
      <point x="165" y="49"/>
      <point x="169" y="54" type="qcurve"/>
      <point x="271" y="175" type="line"/>
      <point x="91" y="381"/>
    </contour>
    <contour>
      <point x="282" y="726" type="qcurve"/>
      <point x="282" y="474"/>
      <point x="381" y="306" type="qcurve"/>
      <point x="1055" y="1109" type="line"/>
      <point x="907" y="1314"/>
      <point x="727" y="1314" type="qcurve"/>
      <point x="517" y="1314"/>
      <point x="399.5" y="1133" type="qcurve"/>
      <point x="282" y="952"/>
    </contour>
    <contour>
      <point x="432" y="232" type="line"/>
      <point x="582" y="48"/>
      <point x="749" y="48" type="qcurve"/>
      <point x="961" y="48"/>
      <point x="1076.5" y="221" type="qcurve"/>
      <point x="1192" y="394"/>
      <point x="1192" y="647" type="qcurve"/>
      <point x="1192" y="865"/>
      <point x="1103" y="1031" type="qcurve"/>
    </contour>
  </outline>
</glyph>
<glyph name="Thorn" format="1">
  <advance width="1157"/>
  <unicode hex="00DE"/>
  <outline>
    <contour>
      <point x="1070" y="741" type="qcurve" smooth="yes"/>
      <point x="1070" y="483"/>
      <point x="703" y="25"/>
      <point x="419" y="-17" type="qcurve" smooth="yes"/>
      <point x="381" y="-23"/>
      <point x="380" y="-62" type="qcurve"/>
      <point x="380" y="-275" type="line" smooth="yes"/>
      <point x="380" y="-333"/>
      <point x="294" y="-399" type="qcurve" smooth="yes"/>
      <point x="144" y="-516" type="line" smooth="yes"/>
      <point x="139" y="-520"/>
      <point x="130" y="-520" type="qcurve" smooth="yes"/>
      <point x="99" y="-520"/>
      <point x="52" y="-459"/>
      <point x="52" y="-430"/>
      <point x="59" y="-424" type="qcurve" smooth="yes"/>
      <point x="168" y="-334" type="line" smooth="yes"/>
      <point x="220" y="-291"/>
      <point x="220" y="-233" type="qcurve" smooth="yes"/>
      <point x="220" y="1106" type="line" smooth="yes"/>
      <point x="220" y="1241"/>
      <point x="44" y="1241" type="qcurve" smooth="yes"/>
      <point x="30" y="1241"/>
      <point x="30" y="1317"/>
      <point x="44" y="1317" type="qcurve" smooth="yes"/>
      <point x="143" y="1317"/>
      <point x="319" y="1378" type="qcurve"/>
      <point x="344" y="1385"/>
      <point x="357" y="1385" type="qcurve" smooth="yes"/>
      <point x="388" y="1385"/>
      <point x="388" y="1345"/>
      <point x="380" y="1257"/>
      <point x="380" y="1188" type="qcurve" smooth="yes"/>
      <point x="380" y="1137" type="line" smooth="yes"/>
      <point x="380" y="1106"/>
      <point x="395" y="1106" type="qcurve" smooth="yes"/>
      <point x="404" y="1106"/>
      <point x="419" y="1116" type="qcurve" smooth="yes"/>
      <point x="487" y="1162"/>
      <point x="573" y="1231"/>
      <point x="682" y="1327"/>
      <point x="744" y="1327" type="qcurve" smooth="yes"/>
      <point x="816" y="1327"/>
      <point x="916" y="1229"/>
      <point x="1003" y="1098"/>
      <point x="1070" y="868"/>
    </contour>
    <contour>
      <point x="879" y="741" type="qcurve" smooth="yes"/>
      <point x="879" y="862"/>
      <point x="738" y="1211"/>
      <point x="663" y="1211" type="qcurve" smooth="yes"/>
      <point x="645" y="1211"/>
      <point x="627" y="1196" type="qcurve" smooth="yes"/>
      <point x="520" y="1101"/>
      <point x="443" y="1047"/>
      <point x="380" y="1012"/>
      <point x="380" y="984" type="qcurve" smooth="yes"/>
      <point x="380" y="90" type="line" smooth="yes"/>
      <point x="380" y="59"/>
      <point x="407" y="58" type="qcurve"/>
      <point x="615" y="58"/>
      <point x="879" y="489"/>
    </contour>
  </outline>
</glyph>
<glyph name="germandbls" format="1">
  <advance width="1085"/>
  <unicode hex="00DF"/>
  <outline>
    <contour>
      <point x="203" y="125" type="qcurve"/>
      <point x="203" y="692" type="line"/>
      <point x="203" y="713"/>
      <point x="178" y="713" type="qcurve"/>
      <point x="92" y="713" type="line"/>
      <point x="77" y="713"/>
      <point x="77" y="740.5" type="qcurve"/>
      <point x="77" y="768"/>
      <point x="92" y="768" type="qcurve"/>
      <point x="151" y="768"/>
      <point x="183" y="834" type="qcurve"/>
      <point x="203" y="875"/>
      <point x="203" y="924" type="qcurve"/>
      <point x="203" y="1178"/>
      <point x="344" y="1332.5" type="qcurve"/>
      <point x="485" y="1487"/>
      <point x="674" y="1487" type="qcurve"/>
      <point x="801" y="1487"/>
      <point x="883" y="1403.5" type="qcurve"/>
      <point x="965" y="1320"/>
      <point x="965" y="1197" type="qcurve"/>
      <point x="965" y="1074"/>
      <point x="813.5" y="941" type="qcurve"/>
      <point x="662" y="808"/>
      <point x="662" y="727" type="qcurve"/>
      <point x="662" y="678"/>
      <point x="687.5" y="641" type="qcurve"/>
      <point x="713" y="604"/>
      <point x="820" y="550" type="qcurve"/>
      <point x="927" y="496"/>
      <point x="976.5" y="432" type="qcurve"/>
      <point x="1026" y="368"/>
      <point x="1026" y="266" type="qcurve"/>
      <point x="1026" y="128"/>
      <point x="939" y="51.5" type="qcurve"/>
      <point x="852" y="-25"/>
      <point x="735" y="-25" type="qcurve"/>
      <point x="658" y="-25"/>
      <point x="569" y="35" type="qcurve"/>
      <point x="553" y="92"/>
      <point x="553" y="197" type="qcurve"/>
      <point x="553" y="211"/>
      <point x="573.5" y="211" type="qcurve"/>
      <point x="594" y="211"/>
      <point x="600" y="197" type="qcurve"/>
      <point x="600" y="131"/>
      <point x="651.5" y="85" type="qcurve"/>
      <point x="703" y="39"/>
      <point x="762" y="39" type="qcurve"/>
      <point x="821" y="39"/>
      <point x="865" y="91.5" type="qcurve"/>
      <point x="909" y="144"/>
      <point x="909" y="195" type="qcurve"/>
      <point x="909" y="328"/>
      <point x="786.5" y="394" type="qcurve"/>
      <point x="664" y="460"/>
      <point x="605.5" y="521" type="qcurve"/>
      <point x="547" y="582"/>
      <point x="547" y="678" type="qcurve"/>
      <point x="547" y="774"/>
      <point x="610" y="836" type="qcurve"/>
      <point x="709" y="932" type="line"/>
      <point x="781" y="1002"/>
      <point x="800" y="1060.5" type="qcurve"/>
      <point x="819" y="1119"/>
      <point x="819" y="1186" type="qcurve"/>
      <point x="819" y="1289"/>
      <point x="758.5" y="1347" type="qcurve"/>
      <point x="698" y="1405"/>
      <point x="595" y="1405" type="qcurve"/>
      <point x="492" y="1405"/>
      <point x="432" y="1333.5" type="qcurve"/>
      <point x="372" y="1262"/>
      <point x="363" y="1161" type="qcurve"/>
      <point x="354" y="1060"/>
      <point x="354" y="901" type="qcurve"/>
      <point x="354" y="127" type="line"/>
      <point x="354" y="49"/>
      <point x="479" y="49" type="qcurve"/>
      <point x="493" y="49"/>
      <point x="493" y="20.5" type="qcurve"/>
      <point x="493" y="-8"/>
      <point x="479" y="-8" type="qcurve"/>
      <point x="399" y="0"/>
      <point x="283" y="0" type="qcurve"/>
      <point x="167" y="0"/>
      <point x="86" y="-8" type="qcurve"/>
      <point x="72" y="-8"/>
      <point x="72" y="20.5" type="qcurve"/>
      <point x="72" y="49"/>
      <point x="86" y="49" type="qcurve"/>
      <point x="203" y="49"/>
    </contour>
  </outline>
</glyph>
